<svg height="256" viewBox="0 0 1024 256" width="1024" xmlns="http://www.w3.org/2000/svg"><path d="m-6.226-277.505h1039.973v598.533h-1039.973z" fill="#6bd6fc"/><path d="m639.726-70.259a29.3 29.3 0 0 0 -8.683 20.628v165.436a29.252 29.252 0 0 0 8.683 20.731 28.506 28.506 0 0 0 13.966 8.106v35.54a251.636 251.636 0 0 0 -52.357 5.04 494.778 494.778 0 0 0 -77.443 22.29l-7.77-1.611-1.93-17.562-9.8 14.133-14.066-5.092 6.246 16.523-8.989 2.494 5.688 3.845q-5.484 2.493-10.918 5.143a280.348 280.348 0 0 1 -121.37 28.162 343.415 343.415 0 0 1 -123.758-21.667 1020.152 1020.152 0 0 0 -100.448-31.8v-8.937a13.705 13.705 0 0 0 10.106-12.99v-75.026a13.278 13.278 0 0 0 -3.91-9.352 13.271 13.271 0 0 0 -18.993 0 13.278 13.278 0 0 0 -3.91 9.352v75.028a13.282 13.282 0 0 0 3.91 9.353 12.884 12.884 0 0 0 6.348 3.689v7.222q-5.688-1.455-11.375-2.806a244.968 244.968 0 0 0 -125.179 2.387v321.419h1039.973v-321.419q-35.447 12.89-69.622 28.892-59.872 28.058-122.437 4.417-50.274-19.069-101.463-35.176v-15.38a21.063 21.063 0 0 0 9.9-5.819 21.358 21.358 0 0 0 6.3-15.068v-120.492a21.176 21.176 0 0 0 -6.3-15.016 21.233 21.233 0 0 0 -30.469 0 21.171 21.171 0 0 0 -6.3 15.016v120.492a21.353 21.353 0 0 0 6.3 15.068 20.764 20.764 0 0 0 10.207 5.923v12l-5.383-1.662a251.008 251.008 0 0 0 -56.521-10.5v-36.157a28.817 28.817 0 0 0 13.61-8 29.342 29.342 0 0 0 8.633-20.731v-165.438a29.391 29.391 0 0 0 -8.633-20.628 28.275 28.275 0 0 0 -20.922-8.832h-.047a28.113 28.113 0 0 0 -20.874 8.832z" fill="#65cde5"/><path d="m566.621 196.514a35.885 35.885 0 0 1 .616 5.673v-5.463q-1.231-19.329-21.56-19.328h-162.217q-19.507 0-21.355 17.857v.946a2.007 2.007 0 0 0 -.1.63q-.1 1.156-.1 2.416v2.416q.019-.7.1-1.47 1.434-18.591 21.455-18.591h162.217q17.864 0 20.944 14.914z" fill="#3bde80"/><path d="m504.4 239.058h-.3a147.21 147.21 0 0 0 -29.466 2.836l-.206.1a.769.769 0 0 1 -.308.105q-2.156.315-4.414.736a7.145 7.145 0 0 0 -.924.315 137.878 137.878 0 0 1 -16.427 3.571q-4.312.737-8.727 1.156l-4.518.42h-.11q-5.955.21-12.115.105a150.266 150.266 0 0 1 -30.185-3.571 172.735 172.735 0 0 1 -17.248-4.307q-4-1.262-8.009-2.732l9.557 28.158a9.917 9.917 0 0 0 3.49 4.937 10.041 10.041 0 0 0 5.545 2.1l143.736 9.454a10.228 10.228 0 0 0 6.263-1.681 10.4 10.4 0 0 0 4-5.252l9.24-25.841a117.316 117.316 0 0 0 -12.834-4.727 9.317 9.317 0 0 0 -1.129-.316q-2.874-.945-5.852-1.785h-.308a132.665 132.665 0 0 0 -28.747-3.782m5.133-37.4h-.308a153.018 153.018 0 0 0 -29.466 6.3l-.2.1a.778.778 0 0 1 -.308.105q-2.157.63-4.415 1.366a7.145 7.145 0 0 0 -.924.315 167.9 167.9 0 0 1 -16.427 5.567q-4.312 1.157-8.727 2.1-2.259.526-4.517.841h-.1q-5.955 1.05-12.115 1.575a155.158 155.158 0 0 1 -30.185 0 161.953 161.953 0 0 1 -17.248-2.416 163.691 163.691 0 0 1 -16.838-4.1.778.778 0 0 1 -.308-.1l-4.928-1.471 3.388 9.769q.718.21 1.54.525a.778.778 0 0 0 .308.1 168.276 168.276 0 0 0 16.838 4.728 164.983 164.983 0 0 0 17.248 3.046 150.937 150.937 0 0 0 30.185 1.155q6.161-.315 12.115-1.05h.1q2.259-.315 4.517-.735 4.414-.737 8.727-1.786a162.654 162.654 0 0 0 16.427-4.937 7.145 7.145 0 0 1 .924-.315q2.259-.631 4.415-1.156a.778.778 0 0 0 .308-.1l.2-.1a153.907 153.907 0 0 1 29.466-5.147h.308a126.987 126.987 0 0 1 28.747 1.575h.308q2.978.525 5.853 1.261a9.35 9.35 0 0 1 1.129.315 93.969 93.969 0 0 1 16.324 5.042.778.778 0 0 0 .308.1h.1l4.312-12.185a9.274 9.274 0 0 0 .513-2.206q-2.156-.945-4.62-1.786h-.308a.778.778 0 0 1 -.308-.1 92.234 92.234 0 0 0 -16.324-4.412q-.616-.1-1.129-.21-2.875-.63-5.853-1.05h-.308a127.058 127.058 0 0 0 -28.744-.519z" fill="#cb8a48"/><path d="m509.537 215.843h-.308a153.907 153.907 0 0 0 -29.466 5.147l-.2.1a.778.778 0 0 1 -.308.1q-2.157.525-4.415 1.156a7.145 7.145 0 0 0 -.924.315 162.654 162.654 0 0 1 -16.427 4.937q-4.312 1.05-8.727 1.786-2.259.42-4.517.735h-.1q-5.955.735-12.115 1.05a150.937 150.937 0 0 1 -30.185-1.155 164.983 164.983 0 0 1 -17.248-3.046 168.276 168.276 0 0 1 -16.838-4.728.778.778 0 0 1 -.308-.1q-.82-.315-1.54-.525l5.544 16.177q4 1.471 8.009 2.732a172.735 172.735 0 0 0 17.248 4.307 150.266 150.266 0 0 0 30.185 3.571q6.159.1 12.115-.105h.1l4.518-.42q4.414-.42 8.727-1.156a137.878 137.878 0 0 0 16.427-3.571 7.145 7.145 0 0 1 .924-.315q2.257-.42 4.414-.736a.769.769 0 0 0 .308-.105l.206-.1a147.21 147.21 0 0 1 29.466-2.836h.308a132.665 132.665 0 0 1 28.747 3.782h.308q2.978.84 5.852 1.785a9.317 9.317 0 0 1 1.129.316 117.316 117.316 0 0 1 12.834 4.727l9.035-25.527h-.1a.778.778 0 0 1 -.308-.1 93.969 93.969 0 0 0 -16.324-5.042 9.35 9.35 0 0 0 -1.129-.315q-2.875-.735-5.853-1.261h-.308a126.987 126.987 0 0 0 -28.756-1.58z" fill="#d29353"/><path d="m514.055 192.312h.308a131.518 131.518 0 0 1 29.671-.21h.308q3.079.315 6.057.84.514.106 1.13.211a105.183 105.183 0 0 1 15.092 3.361q-3.079-14.914-20.944-14.914h-162.217q-20.02 0-21.458 18.594v3.151a8.062 8.062 0 0 0 .616 3.151q2.567.737 5.133 1.366a.778.778 0 0 0 .308.1 166.506 166.506 0 0 0 17.351 3.677q8.932 1.365 17.762 1.891a165.517 165.517 0 0 0 31.212-.841 117.8 117.8 0 0 0 12.422-1.891h.1a37.592 37.592 0 0 0 4.723-.945q4.518-1.05 9.035-2.311a170.128 170.128 0 0 0 16.94-6.093 7.145 7.145 0 0 1 .924-.315q2.361-.735 4.518-1.471a.778.778 0 0 0 .308-.1l.308-.1a164.238 164.238 0 0 1 30.393-7.151z" fill="#2ecc71"/><path d="m514.363 192.312h-.308a164.238 164.238 0 0 0 -30.39 7.143l-.308.1a.778.778 0 0 1 -.308.1q-2.157.737-4.518 1.471a7.145 7.145 0 0 0 -.924.315 170.128 170.128 0 0 1 -16.94 6.093q-4.518 1.26-9.035 2.311a37.592 37.592 0 0 1 -4.723.945h-.1a117.8 117.8 0 0 1 -12.422 1.891 165.517 165.517 0 0 1 -31.212.841q-8.829-.526-17.762-1.891a166.506 166.506 0 0 1 -17.351-3.677.778.778 0 0 1 -.308-.1q-2.566-.63-5.133-1.366a8.062 8.062 0 0 1 -.616-3.151v-3.151q-.084.768-.1 1.47v6.933a8.885 8.885 0 0 0 .616 3.257l4.928 1.471a.778.778 0 0 0 .308.1 163.691 163.691 0 0 0 16.838 4.1 161.953 161.953 0 0 0 17.248 2.416 155.158 155.158 0 0 0 30.185 0q6.161-.525 12.115-1.575h.1q2.259-.315 4.517-.841 4.414-.945 8.727-2.1a167.9 167.9 0 0 0 16.427-5.567 7.145 7.145 0 0 1 .924-.315q2.259-.735 4.415-1.366a.778.778 0 0 0 .308-.105l.2-.1a153.018 153.018 0 0 1 29.466-6.3h.308a127.058 127.058 0 0 1 28.747.526h.308q2.978.42 5.853 1.05.513.1 1.129.21a92.234 92.234 0 0 1 16.324 4.412.778.778 0 0 0 .308.1h.308q2.465.84 4.62 1.786a7.167 7.167 0 0 0 .1-1.156v-6.407a35.885 35.885 0 0 0 -.616-5.673 105.183 105.183 0 0 0 -15.092-3.361q-.616-.1-1.13-.211-2.978-.525-6.057-.84h-.308a131.518 131.518 0 0 0 -29.666.212z" fill="#28b162"/><path d="m295.58 265.6a10.169 10.169 0 0 0 3.594-3.677l6.468-11.03a37.556 37.556 0 0 0 -4.723-.945h-.2a115.887 115.887 0 0 0 -27-.841h-.319a135.176 135.176 0 0 0 -27.618 6.093l-.205.1a.778.778 0 0 1 -.308.1q-2.465.735-5.031 1.576a121.816 121.816 0 0 1 -15.4 5.357q-4.005 1.157-8.111 2.1l-4.312.841h-.1q-5.544.945-11.294 1.365a132.373 132.373 0 0 1 -28.336-.315 130 130 0 0 1 -16.222-2.521 157.891 157.891 0 0 1 -15.708-4.2.774.774 0 0 1 -.308-.105q-2.361-.84-4.62-1.576-3.49-1.365-6.16-2.521-2.157-.945-4.415-1.786h-.308a.774.774 0 0 1 -.308-.105 82.285 82.285 0 0 0 -15.3-4.622q-.617-.105-1.129-.21a6.611 6.611 0 0 0 -1.643-.21q-1.848-.525-3.8-.945h-.308a111.993 111.993 0 0 0 -27-.736h-.2a139.489 139.489 0 0 0 -27.721 5.988l-.1.1a.778.778 0 0 1 -.308.1q-2.566.735-5.031 1.576a134.816 134.816 0 0 1 -15.4 5.462q-4.107 1.157-8.214 2a21.383 21.383 0 0 1 -4.209.84h-.1a99.247 99.247 0 0 1 -11.4 1.471 132.448 132.448 0 0 1 -28.337-.315q-8.008-.84-16.119-2.521a1.9 1.9 0 0 0 -.616-.1l5.031 11.555a10.424 10.424 0 0 0 4 4.622 9.665 9.665 0 0 0 5.749 1.576l318.274-12.081a9.982 9.982 0 0 0 4.825-1.47m29.774-48.847a9.906 9.906 0 0 0 1.232-3.362q-1.539-.63-3.182-1.26h-.304a.774.774 0 0 1 -.308-.1 81.649 81.649 0 0 0 -15.3-4.412l-1.027-.21q-2.668-.63-5.544-1.051h-.2a112.261 112.261 0 0 0 -27-.525h-.321a135.939 135.939 0 0 0 -27.618 6.3l-.205.105a.778.778 0 0 1 -.308.1q-2.465.735-5.031 1.681a150.722 150.722 0 0 1 -15.4 5.567q-4.005 1.157-8.111 2.1-2.157.525-4.312.841h-.1q-5.544 1.05-11.294 1.575a136.774 136.774 0 0 1 -28.336 0 143.779 143.779 0 0 1 -16.222-2.416 140.05 140.05 0 0 1 -15.708-4.1.774.774 0 0 1 -.308-.105q-2.361-.735-4.62-1.47-3.49-1.261-6.16-2.416-2.157-.946-4.415-1.786h-.308a.774.774 0 0 1 -.308-.1 81.649 81.649 0 0 0 -15.3-4.412q-.617-.1-1.129-.21a13.582 13.582 0 0 0 -1.643-.315q-1.848-.421-3.8-.736h-.308a112.119 112.119 0 0 0 -27-.525h-.2a135.769 135.769 0 0 0 -27.721 6.3l-.1.105a.778.778 0 0 1 -.308.1q-2.566.735-5.031 1.681a150.961 150.961 0 0 1 -15.4 5.567q-4.107 1.155-8.214 2.1a40.8 40.8 0 0 1 -4.209.84h-.1q-5.544 1.052-11.4 1.576a136.784 136.784 0 0 1 -28.337 0 144.575 144.575 0 0 1 -16.119-2.416 145.687 145.687 0 0 1 -15.811-4.1.778.778 0 0 1 -.308-.105q-2.259-.735-4.62-1.471l3.491 7.984q.615.21 1.129.42a.778.778 0 0 0 .308.1q7.9 2.731 15.811 4.622a146.8 146.8 0 0 0 16.119 2.837 133.038 133.038 0 0 0 28.337.945 99.438 99.438 0 0 0 11.4-1.261h.1a27.882 27.882 0 0 0 4.209-.735q4.107-.735 8.214-1.786a146.95 146.95 0 0 0 15.4-5.147q2.465-.84 5.031-1.471a.778.778 0 0 0 .308-.1l.1-.105a132.826 132.826 0 0 1 27.721-5.462h.2a111.941 111.941 0 0 1 27 1.365h.308q1.952.422 3.8.946a13.582 13.582 0 0 1 1.643.315q.513.1 1.129.21a88.883 88.883 0 0 1 15.3 4.937.774.774 0 0 0 .308.105h.308q2.259.946 4.415 1.891 2.668 1.262 6.16 2.626 2.257.842 4.62 1.681a.774.774 0 0 0 .308.105 142.541 142.541 0 0 0 15.708 4.517 131.477 131.477 0 0 0 16.222 2.941 137.588 137.588 0 0 0 28.336.841q5.75-.315 11.294-1.156h.1q2.155-.315 4.312-.735 4.107-.84 8.111-1.891a131.494 131.494 0 0 0 15.4-5.042q2.567-.84 5.031-1.471a.778.778 0 0 0 .308-.1l.205-.105a132.769 132.769 0 0 1 27.618-5.462h.308a112.25 112.25 0 0 1 27 1.365h.2q2.876.525 5.544 1.261l1.027.21a79.386 79.386 0 0 1 10.78 3.046z" fill="#cb8a48"/><path d="m318.27 228.936a79.386 79.386 0 0 0 -10.78-3.046l-1.027-.21q-2.668-.735-5.544-1.261h-.2a112.25 112.25 0 0 0 -27-1.365h-.319a132.769 132.769 0 0 0 -27.618 5.462l-.205.105a.778.778 0 0 1 -.308.1q-2.465.63-5.031 1.471a131.494 131.494 0 0 1 -15.4 5.042q-4.005 1.05-8.111 1.891-2.157.42-4.312.735h-.1q-5.544.841-11.294 1.156a137.588 137.588 0 0 1 -28.336-.841 131.477 131.477 0 0 1 -16.222-2.941 142.541 142.541 0 0 1 -15.708-4.517.774.774 0 0 1 -.308-.105q-2.361-.84-4.62-1.681-3.49-1.365-6.16-2.626-2.157-.945-4.415-1.891h-.308a.774.774 0 0 1 -.308-.105 88.883 88.883 0 0 0 -15.3-4.937q-.617-.105-1.129-.21a13.582 13.582 0 0 0 -1.643-.315q-1.848-.525-3.8-.946h-.308a111.941 111.941 0 0 0 -27-1.365h-.2a132.826 132.826 0 0 0 -27.724 5.464l-.1.105a.778.778 0 0 1 -.308.1q-2.566.631-5.031 1.471a146.95 146.95 0 0 1 -15.4 5.147q-4.107 1.052-8.214 1.786a27.882 27.882 0 0 1 -4.209.735h-.1a99.438 99.438 0 0 1 -11.4 1.261 133.038 133.038 0 0 1 -28.337-.945 146.8 146.8 0 0 1 -16.119-2.837q-7.905-1.89-15.811-4.622a.778.778 0 0 1 -.308-.1q-.513-.21-1.129-.42l16.634 37.719a1.9 1.9 0 0 1 .616.1q8.11 1.68 16.119 2.521a132.448 132.448 0 0 0 28.337.315 99.247 99.247 0 0 0 11.4-1.471h.1a21.383 21.383 0 0 0 4.209-.84q4.107-.84 8.214-2a134.816 134.816 0 0 0 15.4-5.462q2.465-.842 5.031-1.576a.778.778 0 0 0 .308-.1l.1-.1a139.489 139.489 0 0 1 27.721-5.988h.2a111.993 111.993 0 0 1 27 .736h.308q1.952.42 3.8.945a6.611 6.611 0 0 1 1.643.21q.513.1 1.129.21a82.285 82.285 0 0 1 15.3 4.622.774.774 0 0 0 .308.105h.308q2.259.841 4.415 1.786 2.668 1.155 6.16 2.521 2.257.735 4.62 1.576a.774.774 0 0 0 .308.105 157.891 157.891 0 0 0 15.708 4.2 130 130 0 0 0 16.222 2.521 132.373 132.373 0 0 0 28.336.315q5.75-.42 11.294-1.365h.1l4.312-.841q4.107-.945 8.111-2.1a121.816 121.816 0 0 0 15.4-5.357q2.567-.84 5.031-1.576a.778.778 0 0 0 .308-.1l.205-.1a135.176 135.176 0 0 1 27.618-6.093h.308a115.887 115.887 0 0 1 27 .841h.2a37.556 37.556 0 0 1 4.723.945z" fill="#d29353"/><path d="m325.765 197.843a29.713 29.713 0 0 1 1.027 7.353v-2.942a38.018 38.018 0 0 0 -.206-4.1q-1.846-17.754-21.355-17.753h-347.021q-14.167 0-18.993 9.349-2.566 4.936-2.567 12.5v3.152a26.8 26.8 0 0 1 2.567-11.45q4.825-9.349 18.993-9.349h347.021q16.839.004 20.534 13.24z" fill="#3bde80"/><path d="m306.258 193.746h.205a45.342 45.342 0 0 1 5.647.945 5.114 5.114 0 0 0 1.027.1 85.16 85.16 0 0 1 12.628 3.047q-3.7-13.236-20.534-13.236h-347.021q-14.167 0-18.993 9.349a26.8 26.8 0 0 0 -2.567 11.45v5.567a25.183 25.183 0 0 1 3.08.841.778.778 0 0 0 .308.105q8.111 2.31 16.119 3.781a149.566 149.566 0 0 0 16.53 2 137.612 137.612 0 0 0 28.952-.525q5.955-.63 11.705-1.786h.1q2.157-.42 4.312-.945 4.107-1.05 8.317-2.311a144.783 144.783 0 0 0 15.811-5.883q2.463-.945 5.133-1.786a.778.778 0 0 0 .308-.105l.1-.1a148.62 148.62 0 0 1 28.336-6.828h.206a113.915 113.915 0 0 1 27.618 0h.308a37.689 37.689 0 0 1 3.9.631 13.582 13.582 0 0 1 1.643.315q.513.1 1.129.21a79.824 79.824 0 0 1 15.708 4.1.778.778 0 0 0 .308.1l.308-.1q2.259.84 4.518 1.785 2.67 1.052 6.263 2.206l4.722 1.471h.308a131.194 131.194 0 0 0 16.12 3.782 131.747 131.747 0 0 0 16.529 2.1 137.688 137.688 0 0 0 28.953-.526q5.955-.63 11.6-1.785h.1q2.156-.42 4.415-.946 4.209-1.05 8.213-2.311a144.414 144.414 0 0 0 15.811-5.882q2.567-.947 5.134-1.786a.778.778 0 0 0 .308-.1l.205-.1a148.757 148.757 0 0 1 28.234-6.828h.308a113.821 113.821 0 0 1 27.628-.016z" fill="#2ecc71"/><path d="m306.463 193.746h-.205a113.821 113.821 0 0 0 -27.618 0h-.308a148.757 148.757 0 0 0 -28.234 6.828l-.205.1a.778.778 0 0 1 -.308.1q-2.567.84-5.134 1.786a144.414 144.414 0 0 1 -15.811 5.882q-4 1.262-8.213 2.311-2.259.525-4.415.946h-.1q-5.646 1.155-11.6 1.785a137.688 137.688 0 0 1 -28.953.526 131.747 131.747 0 0 1 -16.529-2.1 131.194 131.194 0 0 1 -16.12-3.782h-.31l-4.722-1.471q-3.594-1.155-6.263-2.206-2.259-.945-4.518-1.785l-.308.1a.778.778 0 0 1 -.308-.1 79.824 79.824 0 0 0 -15.708-4.1q-.617-.1-1.129-.21a13.582 13.582 0 0 0 -1.643-.315 37.689 37.689 0 0 0 -3.9-.631h-.308a113.915 113.915 0 0 0 -27.618 0h-.206a148.62 148.62 0 0 0 -28.339 6.84l-.1.1a.778.778 0 0 1 -.308.105q-2.67.841-5.133 1.786a144.783 144.783 0 0 1 -15.811 5.883q-4.21 1.26-8.317 2.311-2.155.525-4.312.945h-.1q-5.749 1.157-11.7 1.786a137.612 137.612 0 0 1 -28.952.525 149.566 149.566 0 0 1 -16.53-2q-8.008-1.47-16.119-3.781a.778.778 0 0 1 -.308-.105 25.183 25.183 0 0 0 -3.08-.841v.736a12.045 12.045 0 0 0 .924 3.991q2.361.737 4.62 1.471a.778.778 0 0 0 .308.105 145.687 145.687 0 0 0 15.811 4.1 144.575 144.575 0 0 0 16.119 2.416 136.784 136.784 0 0 0 28.337 0q5.852-.525 11.4-1.576h.1a40.8 40.8 0 0 0 4.209-.84q4.107-.945 8.214-2.1a150.961 150.961 0 0 0 15.4-5.567q2.465-.946 5.031-1.681a.778.778 0 0 0 .308-.1l.1-.105a135.769 135.769 0 0 1 27.721-6.3h.2a112.119 112.119 0 0 1 27 .525h.308q1.952.315 3.8.736a13.582 13.582 0 0 1 1.643.315q.513.105 1.129.21a81.649 81.649 0 0 1 15.3 4.412.774.774 0 0 0 .308.1h.308q2.259.84 4.415 1.786 2.668 1.155 6.16 2.416 2.257.735 4.62 1.47a.774.774 0 0 0 .308.105 140.05 140.05 0 0 0 15.708 4.1 143.779 143.779 0 0 0 16.222 2.416 136.774 136.774 0 0 0 28.336 0q5.75-.525 11.294-1.575h.1q2.155-.316 4.312-.841 4.107-.945 8.111-2.1a150.722 150.722 0 0 0 15.4-5.567q2.567-.946 5.031-1.681a.778.778 0 0 0 .308-.1l.205-.105a135.939 135.939 0 0 1 27.618-6.3h.308a112.261 112.261 0 0 1 27 .525h.2q2.876.42 5.544 1.051l1.027.21a81.649 81.649 0 0 1 15.3 4.412.774.774 0 0 0 .308.1h.308q1.643.63 3.182 1.26a7.048 7.048 0 0 0 .206-1.68v-6.514a29.713 29.713 0 0 0 -1.027-7.353 85.16 85.16 0 0 0 -12.628-3.047 5.114 5.114 0 0 1 -1.027-.1 45.342 45.342 0 0 0 -5.644-.954z" fill="#28b162"/><path d="m1050.053 261.31h-.308a135.106 135.106 0 0 0 -27.618 6.092l-.2.106a.778.778 0 0 1 -.308.105q-2.465.735-5.031 1.575a122.036 122.036 0 0 1 -15.4 5.358q-4 1.155-8.111 2.1l-4.312.84h-.1q-5.544.945-11.294 1.366a132.374 132.374 0 0 1 -28.336-.316 129.819 129.819 0 0 1 -16.222-2.521 157.619 157.619 0 0 1 -15.708-4.2.774.774 0 0 1 -.308-.105q-2.362-.84-4.62-1.575-3.492-1.366-6.161-2.521-2.156-.946-4.414-1.786h-.308a.774.774 0 0 1 -.308-.105 82.209 82.209 0 0 0 -15.3-4.622q-.616-.105-1.129-.21a6.613 6.613 0 0 0 -1.643-.211q-1.848-.525-3.8-.945h-.314a111.942 111.942 0 0 0 -27-.735h-.2a139.414 139.414 0 0 0 -27.721 5.987l-.1.105a.768.768 0 0 1 -.308.106q-2.567.735-5.031 1.575a135.084 135.084 0 0 1 -15.4 5.463q-4.107 1.155-8.214 2a21.383 21.383 0 0 1 -4.209.84h-.1a99.691 99.691 0 0 1 -11.4 1.471 132.383 132.383 0 0 1 -28.337-.316q-8.009-.84-16.119-2.521a1.9 1.9 0 0 0 -.616-.1l5.031 11.555a10.418 10.418 0 0 0 4 4.622 9.658 9.658 0 0 0 5.749 1.576l318.274-12.08a9.972 9.972 0 0 0 4.825-1.471 10.161 10.161 0 0 0 3.594-3.677l6.468-11.029a37.419 37.419 0 0 0 -4.723-.946h-.2a115.887 115.887 0 0 0 -27-.84m27.207-42.754h-.2a112.159 112.159 0 0 0 -27-.525h-.308a135.935 135.935 0 0 0 -27.618 6.3l-.2.1a.778.778 0 0 1 -.308.105q-2.465.736-5.031 1.681a151.057 151.057 0 0 1 -15.4 5.568q-4 1.155-8.111 2.1-2.157.525-4.312.84h-.1q-5.544 1.05-11.294 1.576a136.913 136.913 0 0 1 -28.336 0 144.236 144.236 0 0 1 -16.222-2.416 140.266 140.266 0 0 1 -15.708-4.1.774.774 0 0 1 -.308-.1q-2.362-.735-4.62-1.471-3.492-1.26-6.161-2.416-2.156-.945-4.414-1.786h-.308a.774.774 0 0 1 -.308-.1 81.725 81.725 0 0 0 -15.3-4.412q-.616-.1-1.129-.21a13.582 13.582 0 0 0 -1.643-.315q-1.848-.42-3.8-.735h-.331a112.067 112.067 0 0 0 -27-.526h-.2a135.9 135.9 0 0 0 -27.721 6.3l-.1.1a.778.778 0 0 1 -.308.105q-2.567.735-5.031 1.681a151.057 151.057 0 0 1 -15.4 5.568q-4.107 1.155-8.214 2.1a40.537 40.537 0 0 1 -4.209.841h-.1q-5.544 1.05-11.4 1.576a136.923 136.923 0 0 1 -28.337 0 144.58 144.58 0 0 1 -16.119-2.417 145.912 145.912 0 0 1 -15.811-4.1.778.778 0 0 1 -.308-.1q-2.259-.737-4.62-1.471l3.491 7.983q.615.211 1.129.421a.778.778 0 0 0 .308.1q7.905 2.732 15.811 4.622a146.795 146.795 0 0 0 16.119 2.836 132.905 132.905 0 0 0 28.337.945 99.664 99.664 0 0 0 11.4-1.26h.1a27.882 27.882 0 0 0 4.209-.735q4.107-.737 8.214-1.786a147.269 147.269 0 0 0 15.4-5.148q2.465-.84 5.031-1.47a.778.778 0 0 0 .308-.105l.1-.1a132.829 132.829 0 0 1 27.721-5.463h.2a111.891 111.891 0 0 1 27 1.366h.308q1.951.42 3.8.945a13.582 13.582 0 0 1 1.643.315q.513.107 1.129.211a88.8 88.8 0 0 1 15.3 4.937.774.774 0 0 0 .308.1h.308q2.259.945 4.414 1.891 2.67 1.26 6.161 2.626 2.258.84 4.62 1.681a.774.774 0 0 0 .308.1 142.98 142.98 0 0 0 15.708 4.517 131.665 131.665 0 0 0 16.222 2.941 137.587 137.587 0 0 0 28.336.84q5.749-.315 11.294-1.155h.1q2.156-.315 4.312-.736 4.106-.84 8.111-1.89a131.75 131.75 0 0 0 15.4-5.043q2.567-.84 5.031-1.47a.778.778 0 0 0 .308-.105l.2-.1a132.773 132.773 0 0 1 27.618-5.463h.308a112.25 112.25 0 0 1 27 1.366h.2q2.875.525 5.544 1.26l1.027.21a79.389 79.389 0 0 1 10.78 3.047l7.084-12.186a9.922 9.922 0 0 0 1.232-3.361q-1.539-.63-3.182-1.261h-.308a.774.774 0 0 1 -.308-.1 81.725 81.725 0 0 0 -15.3-4.412l-1.027-.21q-2.653-.632-5.529-1.052z" fill="#cb8a48"/><path d="m1077.26 236.624h-.2a112.25 112.25 0 0 0 -27-1.366h-.308a132.773 132.773 0 0 0 -27.618 5.463l-.2.1a.778.778 0 0 1 -.308.105q-2.465.63-5.031 1.47a131.75 131.75 0 0 1 -15.4 5.043q-4 1.05-8.111 1.89-2.157.422-4.312.736h-.1q-5.544.84-11.294 1.155a137.587 137.587 0 0 1 -28.336-.84 131.665 131.665 0 0 1 -16.222-2.941 142.98 142.98 0 0 1 -15.708-4.517.774.774 0 0 1 -.308-.1q-2.362-.841-4.62-1.681-3.492-1.367-6.161-2.626-2.156-.947-4.414-1.891h-.308a.774.774 0 0 1 -.308-.1 88.8 88.8 0 0 0 -15.3-4.937q-.616-.1-1.129-.211a13.582 13.582 0 0 0 -1.643-.315q-1.848-.525-3.8-.945h-.321a111.891 111.891 0 0 0 -27-1.366h-.2a132.829 132.829 0 0 0 -27.721 5.463l-.1.1a.778.778 0 0 1 -.308.105q-2.567.63-5.031 1.47a147.269 147.269 0 0 1 -15.4 5.148q-4.107 1.05-8.214 1.786a27.882 27.882 0 0 1 -4.209.735h-.1a99.664 99.664 0 0 1 -11.4 1.26 132.905 132.905 0 0 1 -28.337-.945 146.795 146.795 0 0 1 -16.119-2.836q-7.9-1.892-15.811-4.622a.778.778 0 0 1 -.308-.1q-.513-.21-1.129-.421l16.625 37.707a1.9 1.9 0 0 1 .616.1q8.111 1.682 16.119 2.521a132.383 132.383 0 0 0 28.337.316 99.691 99.691 0 0 0 11.4-1.471h.1a21.383 21.383 0 0 0 4.209-.84q4.107-.841 8.214-2a135.084 135.084 0 0 0 15.4-5.463q2.465-.84 5.031-1.575a.768.768 0 0 0 .308-.106l.1-.105a139.414 139.414 0 0 1 27.722-5.977h.2a111.942 111.942 0 0 1 27 .735h.308q1.951.42 3.8.945a6.613 6.613 0 0 1 1.643.211q.513.105 1.129.21a82.209 82.209 0 0 1 15.3 4.622.774.774 0 0 0 .308.105h.308q2.259.84 4.414 1.786 2.67 1.155 6.161 2.521 2.258.735 4.62 1.575a.774.774 0 0 0 .308.105 157.619 157.619 0 0 0 15.708 4.2 129.819 129.819 0 0 0 16.222 2.521 132.374 132.374 0 0 0 28.336.316q5.749-.421 11.294-1.366h.1l4.312-.84q4.106-.946 8.111-2.1a122.036 122.036 0 0 0 15.4-5.358q2.567-.84 5.031-1.575a.778.778 0 0 0 .308-.105l.2-.106a135.106 135.106 0 0 1 27.618-6.092h.308a115.887 115.887 0 0 1 27 .84h.2a37.419 37.419 0 0 1 4.723.946l12.628-21.955a79.389 79.389 0 0 0 -10.78-3.047l-1.027-.21q-2.649-.735-5.525-1.26z" fill="#d29353"/><path d="m1102.106 210.047a85.157 85.157 0 0 0 -12.628-3.047 5.114 5.114 0 0 1 -1.027-.105 45.186 45.186 0 0 0 -5.647-.946h-.205a113.922 113.922 0 0 0 -27.618 0h-.308a148.909 148.909 0 0 0 -28.234 6.828l-.205.105a.778.778 0 0 1 -.308.1q-2.567.841-5.134 1.786a144.629 144.629 0 0 1 -15.811 5.883q-4 1.26-8.213 2.311-2.259.525-4.415.945h-.1q-5.646 1.155-11.6 1.786a137.689 137.689 0 0 1 -28.953.525 159.815 159.815 0 0 1 -32.649-5.882h-.308l-4.722-1.471q-3.594-1.155-6.263-2.206-2.259-.945-4.518-1.786l-.308.105a.778.778 0 0 1 -.308-.105 79.894 79.894 0 0 0 -15.708-4.1q-.617-.105-1.129-.21a13.582 13.582 0 0 0 -1.643-.315 37.685 37.685 0 0 0 -3.9-.63h-.308a113.814 113.814 0 0 0 -27.618 0h-.206a148.47 148.47 0 0 0 -28.336 6.828l-.1.1a.778.778 0 0 1 -.308.1q-2.67.84-5.133 1.786a144.567 144.567 0 0 1 -15.811 5.882q-4.211 1.262-8.317 2.311-2.155.525-4.312.946h-.1q-5.749 1.155-11.7 1.786a137.748 137.748 0 0 1 -28.952.525 149.806 149.806 0 0 1 -16.53-2q-8.009-1.471-16.119-3.782a.778.778 0 0 1 -.308-.1 25.176 25.176 0 0 0 -3.08-.84v.735a12.051 12.051 0 0 0 .924 3.992q2.361.735 4.62 1.471a.778.778 0 0 0 .308.1 145.912 145.912 0 0 0 15.811 4.1 144.58 144.58 0 0 0 16.119 2.417 136.923 136.923 0 0 0 28.337 0q5.851-.526 11.4-1.576h.1a40.537 40.537 0 0 0 4.209-.841q4.107-.945 8.214-2.1a151.057 151.057 0 0 0 15.4-5.568q2.465-.945 5.031-1.681a.778.778 0 0 0 .308-.105l.1-.1a135.9 135.9 0 0 1 27.721-6.3h.2a112.067 112.067 0 0 1 27 .526h.308q1.951.315 3.8.735a13.582 13.582 0 0 1 1.643.315q.513.1 1.129.21a81.725 81.725 0 0 1 15.3 4.412.774.774 0 0 0 .308.1h.308q2.259.84 4.414 1.786 2.67 1.155 6.161 2.416 2.258.735 4.62 1.471a.774.774 0 0 0 .308.1 140.266 140.266 0 0 0 15.708 4.1 144.236 144.236 0 0 0 16.222 2.416 136.913 136.913 0 0 0 28.336 0q5.749-.525 11.294-1.576h.1q2.156-.315 4.312-.84 4.106-.946 8.111-2.1a151.057 151.057 0 0 0 15.4-5.568q2.567-.945 5.031-1.681a.778.778 0 0 0 .308-.105l.2-.1a135.935 135.935 0 0 1 27.618-6.3h.308a112.159 112.159 0 0 1 27 .525h.2q2.875.42 5.544 1.05l1.027.21a81.725 81.725 0 0 1 15.3 4.412.774.774 0 0 0 .308.1h.308q1.642.631 3.182 1.261a7.056 7.056 0 0 0 .206-1.681v-6.498a29.72 29.72 0 0 0 -1.024-7.353z" fill="#dec898"/><path d="m1102.106 210.047q-3.7-13.236-20.534-13.236h-347.021q-14.168 0-18.993 9.349a26.8 26.8 0 0 0 -2.567 11.45v5.568a25.176 25.176 0 0 1 3.08.84.778.778 0 0 0 .308.1q8.11 2.311 16.119 3.782a149.806 149.806 0 0 0 16.53 2 137.748 137.748 0 0 0 28.952-.525q5.955-.631 11.7-1.786h.1q2.157-.42 4.312-.946 4.107-1.05 8.317-2.311a144.567 144.567 0 0 0 15.811-5.882q2.463-.946 5.133-1.786a.778.778 0 0 0 .308-.1l.1-.1a148.47 148.47 0 0 1 28.336-6.828h.206a113.814 113.814 0 0 1 27.618 0h.308a37.685 37.685 0 0 1 3.9.63 13.582 13.582 0 0 1 1.643.315q.513.1 1.129.21a79.894 79.894 0 0 1 15.708 4.1.778.778 0 0 0 .308.105l.308-.105q2.259.84 4.518 1.786 2.668 1.05 6.263 2.206l4.722 1.471h.308a159.815 159.815 0 0 0 32.649 5.882 137.689 137.689 0 0 0 28.953-.525q5.955-.63 11.6-1.786h.1q2.155-.42 4.415-.945 4.209-1.052 8.213-2.311a144.629 144.629 0 0 0 15.811-5.883q2.567-.945 5.134-1.786a.778.778 0 0 0 .308-.1l.205-.105a148.909 148.909 0 0 1 28.234-6.828h.308a113.922 113.922 0 0 1 27.618 0h.205a45.186 45.186 0 0 1 5.647.946 5.114 5.114 0 0 0 1.027.105 85.157 85.157 0 0 1 12.643 3.029z" fill="#ecdcb8"/><path d="m1081.572 196.811q16.838 0 20.534 13.236a29.72 29.72 0 0 1 1.027 7.353v-2.941a38.037 38.037 0 0 0 -.206-4.1q-1.848-17.753-21.355-17.753h-347.021q-14.168 0-18.993 9.349-2.568 4.938-2.567 12.5v3.151a26.8 26.8 0 0 1 2.567-11.45q4.825-9.35 18.993-9.349z" fill="#faf0da"/><path d="m362.818 169.732 9.792-2.766v-2.991l-9.792 2.767a2.69 2.69 0 0 0 -1.753 1.346h-.073a2.83 2.83 0 0 0 -.293 2.168 1.349 1.349 0 0 0 .366.747 2.752 2.752 0 0 1 1.753-1.271m57.216-11.065.073-.224a3.47 3.47 0 0 0 .293-1.72 3.659 3.659 0 0 0 -.366-.972l-.438-.6a2.75 2.75 0 0 0 -1.535-.822l-10.741-2.168-2.558-22.879a3.155 3.155 0 0 0 -.731-1.644 2.81 2.81 0 0 0 -1.461-.9 2.183 2.183 0 0 0 -1.681.075 2.694 2.694 0 0 0 -1.388 1.047l-12.861 18.396-18.122-6.5a3.029 3.029 0 0 0 -3.58 1.271l-.147.3a2.981 2.981 0 0 0 0 2.243l.147.448a2.512 2.512 0 0 1 1.388-1.271 2.584 2.584 0 0 1 2.192-.075l18.122 6.5 12.86-18.317a2.684 2.684 0 0 1 1.388-1.047 2.183 2.183 0 0 1 1.681-.075 2.815 2.815 0 0 1 1.461.9 3.162 3.162 0 0 1 .731 1.645l2.558 22.878 10.741 2.094a2.744 2.744 0 0 1 1.535.822z" fill="#2bc26a"/><path d="m419.6 158.069a2.744 2.744 0 0 0 -1.535-.822l-10.741-2.094-2.558-22.878a3.162 3.162 0 0 0 -.731-1.645 2.815 2.815 0 0 0 -1.461-.9 2.183 2.183 0 0 0 -1.681.075 2.684 2.684 0 0 0 -1.388 1.047l-12.865 18.32-18.122-6.5a2.584 2.584 0 0 0 -2.192.075 2.512 2.512 0 0 0 -1.388 1.271l7.672 19.962v2.991l-9.792 2.766a2.752 2.752 0 0 0 -1.753 1.263 2.948 2.948 0 0 0 .877 1.047l10.376 6.879h38.217l9.5-20.262z" fill="#27ae60"/><path d="m153.052 169.241q-.228 4.783-.512 9.57h.146q.274-4.785.366-9.57m28.571-20.261q-.027-5.232-.292-10.467a1.33 1.33 0 0 1 -.146.075q.299 5.196.438 10.392z" fill="#2ecc71"/><path d="m140.848 109.056a10.33 10.33 0 0 1 2.85 7.85q-.145 11.737 8.55 17.944-.114-1.584-.293-3.215-8.4-6.147-8.257-17.72a11.015 11.015 0 0 0 -10.3-11.439 10.207 10.207 0 0 0 -7.673 2.916 10.749 10.749 0 0 0 -3.507 7.626q-.114 2.3-.073 4.486.035-.743.073-1.5a10.746 10.746 0 0 1 3.507-7.626 10.2 10.2 0 0 1 7.673-2.916 10.31 10.31 0 0 1 7.453 3.589m14.03-46.5a13.615 13.615 0 0 1 10.815 1.869 14.176 14.176 0 0 1 4.969 5.383 14.424 14.424 0 0 1 1.388 3.738q4.531 20.262 7.015 40.523 6.5-6.057 6.358-16.224a10.716 10.716 0 0 1 2.85-7.851 10.516 10.516 0 0 1 15.2-.672 10.746 10.746 0 0 1 3.507 7.626q.037.744.073 1.42.039-2.126-.073-4.411a10.749 10.749 0 0 0 -3.507-7.626 10.514 10.514 0 0 0 -15.2.673 10.714 10.714 0 0 0 -2.85 7.85q.146 10.169-6.358 16.224-2.484-20.261-7.015-40.522a6.15 6.15 0 0 0 -.219-.748 14.08 14.08 0 0 0 -6.138-8.374 14.1 14.1 0 0 0 -19.729 4.636 14.585 14.585 0 0 0 -1.681 3.738 13.859 13.859 0 0 0 -.512 5.308 14.46 14.46 0 0 1 1.754-5.308q.207-.377.439-.748a13.725 13.725 0 0 1 8.911-6.503z" fill="#2bc26a"/><path d="m165.693 64.421a14.105 14.105 0 0 0 -19.729 4.635q-.233.372-.439.748a14.46 14.46 0 0 0 -1.754 5.308 19.975 19.975 0 0 0 .366 2.019 371.933 371.933 0 0 1 8.111 54.728c-.082-.058-.179-.133-.293-.224q.179 1.632.293 3.215-8.7-6.207-8.55-17.944a11.015 11.015 0 0 0 -10.3-11.439 10.2 10.2 0 0 0 -7.673 2.916 10.746 10.746 0 0 0 -3.507 7.626q-.038.752-.073 1.5.771 28.755 31.056 39.177v2.991l-.146 9.569q-.091 4.785-.366 9.57h28.572q.262-4.859.438-9.719l-.073-20.112q-.139-5.2-.438-10.392a1.33 1.33 0 0 0 .146-.075q-.063-1.455-.146-2.916 25.161-10.974 25.867-37.233-.036-.677-.073-1.42a10.746 10.746 0 0 0 -3.507-7.626 10.516 10.516 0 0 0 -15.2.672 10.716 10.716 0 0 0 -2.85 7.851q.146 10.169-6.358 16.224-2.486-20.27-7.017-40.528a14.424 14.424 0 0 0 -1.388-3.738 14.176 14.176 0 0 0 -4.969-5.383z" fill="#27ae60"/><path d="m7.153 169.347a2.97 2.97 0 0 0 -.884 1.948 3.159 3.159 0 0 0 .884 1.878l10.265 10.5a2.6 2.6 0 0 0 2.992.556 2.7 2.7 0 0 0 1.223-1.252 2.856 2.856 0 0 0 .136-1.53l-1.155-7.025 5.71-3.687a37.334 37.334 0 0 1 -13.257-7.373l-5.914 5.982m60.166 13.772a3.024 3.024 0 0 0 1.835-.9l10.266-10.5a2.66 2.66 0 0 0 .748-1.461 2.776 2.776 0 0 0 -.2-1.6 2.36 2.36 0 0 0 -2.72-1.391l-6.866 1.183-1.836-3.061a29.375 29.375 0 0 1 -13.6 6.191l10.538 10.712a2.512 2.512 0 0 0 1.835.83z" fill="#b67b3f"/><path d="m36.182 164.339a2.984 2.984 0 0 0 1.088-1.183 2.473 2.473 0 0 0 .136-1.6 2.521 2.521 0 0 0 -.68-1.391l-8.426-8.625a2.8 2.8 0 0 0 -1.9-.835 2.3 2.3 0 0 0 -1.767.835l-11.566 11.825a37.334 37.334 0 0 0 13.257 7.373l9.858-6.4m23.118-12.868a1.915 1.915 0 0 0 -1.495-.208 2.412 2.412 0 0 0 -1.36.695l-8.43 8.626a2.929 2.929 0 0 0 -.816 1.947 3.136 3.136 0 0 0 .816 1.948l6.934 7.095a29.375 29.375 0 0 0 13.6-6.191l-8.029-12.868a2.432 2.432 0 0 0 -1.22-1.044z" fill="#a66c32"/><path d="m47.875 139.089a24.521 24.521 0 0 0 -11.013 7.443q-4.76 5.355-7.479 22.676a49.613 49.613 0 0 0 12.849 1.6 46.3 46.3 0 0 0 21.008-4.661q1.5-.765 2.923-1.6 1.428-.9 2.787-1.808 1.087-.836 2.176-1.739a42.448 42.448 0 0 0 3.6-3.269q-2.515-6.053-4.487-10.712-5.575-9.183-15.84-8.695a17.824 17.824 0 0 0 -6.527.765m-46.5-6.747v1.321q.408-21.285 11.965-36.518 11.963-15.789 28.895-15.79t28.894 15.79q11.556 15.234 11.965 36.588v-1.391q0-22.259-11.965-37.979-11.965-15.791-28.894-15.79t-28.893 15.79q-11.965 15.72-11.965 37.979z" fill="#c98c4f"/><path d="m1.374 137.42q0 .695.068 1.46.545 12.8 11.9 22.12a46.04 46.04 0 0 0 5.031 3.617q1.428.765 2.923 1.53a39.506 39.506 0 0 0 8.09 3.061q2.72-17.321 7.479-22.676a24.521 24.521 0 0 1 11.013-7.443 17.824 17.824 0 0 1 6.527-.765q10.264-.488 15.84 8.695 1.971 4.661 4.487 10.712a28.552 28.552 0 0 0 8.362-18.851v-2.295a9.236 9.236 0 0 0 -.068-1.113q.067-.9.068-1.739-.408-21.354-11.965-36.588-11.968-15.789-28.897-15.79t-28.893 15.79q-11.558 15.234-11.965 36.518 0 .9.068 1.809a9.236 9.236 0 0 0 -.068 1.113z" fill="#b67b3f"/><path d="m32.579 53.949a19.939 19.939 0 0 0 -4.147 11.895q.068.834.136 1.739a46.452 46.452 0 0 0 4.963 17.737q4.011 7.443 7.954 7.443t5.37-7.721a94.682 94.682 0 0 0 1.428-14.816v-2.782a70.417 70.417 0 0 0 -1.428-13.425q-1.426-6.33-5.37-6.33t-8.906 6.26m7.138 5.7a3.411 3.411 0 0 1 .68-.069q2.244 0 3.059 3.547a46.116 46.116 0 0 1 .748 9.112 57.762 57.762 0 0 1 -.748 9.808q-.816 4.381-3.059 4.382a3.411 3.411 0 0 1 -.68-.069q-1.836-.627-3.807-4.1a26.461 26.461 0 0 1 -2.787-9.947q-.544-5.773 2.311-9.182 2.379-2.991 4.283-3.478z" fill="#b67b3f"/><path d="m40.4 59.584a3.411 3.411 0 0 0 -.68.069q-1.9.488-4.283 3.478-2.855 3.408-2.311 9.182a26.461 26.461 0 0 0 2.784 9.947q1.971 3.477 3.807 4.1a3.411 3.411 0 0 0 .68.069q2.244 0 3.059-4.382a57.762 57.762 0 0 0 .748-9.808 46.116 46.116 0 0 0 -.748-9.112q-.816-3.543-3.056-3.543z" fill="#aa7136"/><path d="m32.579 51.167q-4.555 5.633-4.147 14.677a19.939 19.939 0 0 1 4.147-11.895q4.962-6.259 8.906-6.26t5.37 6.33a70.417 70.417 0 0 1 1.428 13.425 75.712 75.712 0 0 0 -1.428-16.207q-1.426-6.33-5.37-6.33t-8.906 6.26z" fill="#c98c4f"/><path d="m58.481 59.862a1.982 1.982 0 0 0 -.476-.07q-2.04-.069-2.72 3.478a56.284 56.284 0 0 0 -.611 9.112 70.552 70.552 0 0 0 .611 9.808q.681 4.383 2.72 4.452a1.933 1.933 0 0 0 .476-.07q1.563-.557 3.127-3.617a77.436 77.436 0 0 0 2.515-14.746 12.14 12.14 0 0 0 -1.835-4.8q-2.04-2.991-3.807-3.547z" fill="#aa7136"/><path d="m55.625 47.689q-2.583 0-3.535 6.33-.612 4.1-.884 9.6l-.068 3.826v2.782a140.875 140.875 0 0 0 .952 14.816q.953 7.72 3.535 7.721t5.235-7.444q.408-1.182.748-2.365-1.565 3.061-3.127 3.617a1.933 1.933 0 0 1 -.476.07q-2.04-.069-2.72-4.452a70.552 70.552 0 0 1 -.611-9.808 56.284 56.284 0 0 1 .611-9.112q.681-3.548 2.72-3.478a1.982 1.982 0 0 1 .476.07q1.767.556 3.807 3.547a12.14 12.14 0 0 1 1.835 4.8v-.626q0-.9.068-1.739a26.828 26.828 0 0 0 -2.719-11.895q-3.264-6.259-5.847-6.26z" fill="#b67b3f"/><path d="m52.09 54.019q.953-6.33 3.535-6.33t5.847 6.26a26.828 26.828 0 0 1 2.719 11.895q.273-9.042-2.719-14.677-3.264-6.26-5.847-6.26t-3.535 6.33a99.7 99.7 0 0 0 -.884 12.381q.273-5.495.884-9.599z" fill="#c98c4f"/><path d="m43.116 108.622a10.5 10.5 0 0 0 -15.092 0 11.1 11.1 0 0 0 0 15.442 10.5 10.5 0 0 0 15.092 0 11.093 11.093 0 0 0 0-15.442m32.429 15.442a11.1 11.1 0 0 0 0-15.442 10.5 10.5 0 0 0 -15.093 0 11.1 11.1 0 0 0 0 15.442 10.5 10.5 0 0 0 15.093 0z" fill="#c98c4f"/><path d="m56.441 121.978a1.7 1.7 0 0 0 -1.5 0 1.875 1.875 0 0 0 -1.019 1.112 2.63 2.63 0 0 1 -.476.835h-.068a2.26 2.26 0 0 1 -3.263 0 1.949 1.949 0 0 1 -.476-.765v-.07a1.9 1.9 0 0 0 -1.02-1.043 1.69 1.69 0 0 0 -1.5-.139 1.649 1.649 0 0 0 -1.019 1.043 1.813 1.813 0 0 0 -.068 1.461 6.276 6.276 0 0 0 1.359 2.3 5.993 5.993 0 0 0 4.351 1.808 5.846 5.846 0 0 0 4.351-1.808 7.4 7.4 0 0 0 1.428-2.226 1.817 1.817 0 0 0 -.068-1.461v-.07a1.921 1.921 0 0 0 -1.02-.973m-14.276-7.86a4.934 4.934 0 0 0 -3.672-1.531 4.853 4.853 0 0 0 -3.6 1.531 5.083 5.083 0 0 0 -1.485 3.678 5.167 5.167 0 0 0 1.495 3.756 4.856 4.856 0 0 0 3.6 1.53 4.937 4.937 0 0 0 3.672-1.53 5.167 5.167 0 0 0 1.493-3.756 5.083 5.083 0 0 0 -1.495-3.686m22.842 8.972a4.856 4.856 0 0 0 3.6-1.53 5.168 5.168 0 0 0 1.5-3.756 5.084 5.084 0 0 0 -1.5-3.686 4.853 4.853 0 0 0 -3.6-1.531 4.932 4.932 0 0 0 -3.671 1.531 5.084 5.084 0 0 0 -1.5 3.686 5.168 5.168 0 0 0 1.5 3.756 4.934 4.934 0 0 0 3.671 1.534z" fill="#482c11"/><path d="m45.5 96.658a3.416 3.416 0 0 0 -2.584-.626 3.291 3.291 0 0 0 -2.243 1.391 3.529 3.529 0 0 0 -.748 2.713 3.689 3.689 0 0 0 1.5 2.365 2.917 2.917 0 0 0 2.583.626 3.369 3.369 0 0 0 2.244-1.391 4.015 4.015 0 0 0 .679-2.643 4.074 4.074 0 0 0 -1.431-2.435m-3.467-4.8a2.448 2.448 0 0 0 1.019 1.669 2.554 2.554 0 0 0 1.972.557 2.633 2.633 0 0 0 1.7-1.044 2.475 2.475 0 0 0 .476-2.017 2.441 2.441 0 0 0 -1.019-1.808 2.7 2.7 0 0 0 -1.972-.487 2.92 2.92 0 0 0 -1.768 1.043 2.84 2.84 0 0 0 -.407 2.087m7.75-.139a5.129 5.129 0 0 0 -.816 3.617 4.335 4.335 0 0 0 1.832 3.064 4.471 4.471 0 0 0 3.468.905 5.058 5.058 0 0 0 2.991-1.948 4.521 4.521 0 0 0 .884-3.478 4.826 4.826 0 0 0 -1.836-3.2 4.616 4.616 0 0 0 -3.467-.834 5.006 5.006 0 0 0 -3.061 1.875z" fill="#a66c32"/><path d="m563.731 138.857-1.145-3.249a52.081 52.081 0 0 1 -10.333 9.478l3.366 5.849a2.831 2.831 0 0 0 1.556 1.346 3 3 0 0 0 2-.405l12.51-7.536a2.617 2.617 0 0 0 1.082-1.223 2.666 2.666 0 0 0 -.683-3.126 2.711 2.711 0 0 0 -1.414-.519z" fill="#bc71e0"/><path d="m544 125.513a2.883 2.883 0 0 0 -1.267 1.676 3.076 3.076 0 0 0 .33 2.028l9.187 15.869a52.081 52.081 0 0 0 10.333-9.478l-4.5-14.7a2.47 2.47 0 0 0 -.929-1.324 1.936 1.936 0 0 0 -1.4-.586 2.4 2.4 0 0 0 -1.487.325z" fill="#ac58d2"/><path d="m508.1 118.088a2.948 2.948 0 0 0 -.313-2.094l-6-10.427a2.335 2.335 0 0 0 -1.195-1.107 1.915 1.915 0 0 0 -1.5-.181 2.4 2.4 0 0 0 -1.44.7l-10.9 10.621a53.9 53.9 0 0 0 4.589 13.5l15.559-9.316a2.789 2.789 0 0 0 1.2-1.696z" fill="#ac58d2"/><path d="m474.289 117.109a2.69 2.69 0 0 0 .366 1.606l7.366 12.8a3.073 3.073 0 0 0 1.555 1.346 2.557 2.557 0 0 0 2.048-.32l5.716-3.443a53.9 53.9 0 0 1 -4.589-13.5l-2.476 2.29-6.423-2.923a2.7 2.7 0 0 0 -1.482-.249 2.66 2.66 0 0 0 -1.492.9 2.111 2.111 0 0 0 -.589 1.493z" fill="#bc71e0"/><path d="m568.883 117.66.34-1.347q5.452-21.549-2.282-39.835-7.716-18.354-24.1-22.694t-31.841 7.879q-15.434 12.15-20.885 33.7l-.324 1.28q5.607-20.5 20.527-32.286 15.45-12.217 31.839-7.878t24.1 22.694q7.458 17.71 2.623 38.488m-26.392 7.165q-4.612-10.633-14.288-13.2t-18.751 4.446a33.828 33.828 0 0 0 -10.789 14.89q1.194 1.107 2.455 2.231a46.645 46.645 0 0 0 19.13 9.88 46.149 46.149 0 0 0 21.478.874q1.635-.357 3.222-.8l.18-1.82a34.4 34.4 0 0 0 -2.634-16.502z" fill="#cc83ee"/><path d="m528.2 111.629q9.675 2.562 14.288 13.2a34.4 34.4 0 0 1 2.637 16.506l-.18 1.82q1.6-.51 3.141-1.036 1.257-.53 2.532-1.126 13.274-6.113 17-18.346l.358-1.414.2-.808a9.114 9.114 0 0 0 .207-1.1q.287-.858.492-1.666 4.834-20.778-2.623-38.488-7.716-18.354-24.1-22.694t-31.839 7.878q-14.913 11.785-20.523 32.287-.222.874-.377 1.768a9.069 9.069 0 0 0 -.339 1.06l-.2.808q-.171.674-.292 1.431-2.608 12.531 6.1 24.465a46.866 46.866 0 0 0 3.985 4.791 33.828 33.828 0 0 1 10.789-14.89q9.073-7.008 18.744-4.446z" fill="#bc71e0"/><path d="m545.428 29.107q.168-6.494-3.649-7.5t-10.155 3.773a19.677 19.677 0 0 0 -6.924 10.451q-.138.826-.294 1.719a46.728 46.728 0 0 0 .46 18.444q2.061 8.233 5.878 9.244t7.09-6.1a94.01 94.01 0 0 0 5.011-13.978l.511-2.02.085-.336.085-.337a70.355 70.355 0 0 0 1.906-13.363m-5.522 7.95a46.112 46.112 0 0 1 -1.51 9.016 57.4 57.4 0 0 1 -3.126 9.3q-1.863 4.032-4.035 3.457a3.407 3.407 0 0 1 -.641-.241q-1.623-1.077-2.68-4.949a26.6 26.6 0 0 1 -.263-10.344q.888-5.728 4.487-8.3 3.036-2.285 5-2.268a3.31 3.31 0 0 1 .675.107q2.172.575 2.093 4.218m19.117-10.888q-3.818-1.011-6.75 4.751a69.891 69.891 0 0 0 -4.67 12.63l-.085.337-.085.337-.171.673q-.169.673-.34 1.347a94.544 94.544 0 0 0 -2.247 14.709q-.508 7.841 3.308 8.852t9.524-5.166a45.933 45.933 0 0 0 9.148-15.9q.288-.858.558-1.649a20.078 20.078 0 0 0 -1.1-12.578q-3.272-7.334-7.088-8.344m-1.154 12.053q1.723.96 3.295 4.465 1.8 4-.077 9.464a26.161 26.161 0 0 1 -5.134 8.915q-2.7 2.878-4.625 3.014a3.37 3.37 0 0 1 -.675-.107q-2.172-.574-1.889-5.026a57.792 57.792 0 0 1 1.678-9.687 45.858 45.858 0 0 1 2.956-8.63q1.659-3.225 3.83-2.65a3.455 3.455 0 0 1 .635.25z" fill="#bc71e0"/><path d="m538.4 46.07a46.112 46.112 0 0 0 1.508-9.013q.078-3.644-2.093-4.218a3.31 3.31 0 0 0 -.675-.107q-1.962-.018-5 2.268-3.6 2.568-4.487 8.3a26.6 26.6 0 0 0 .263 10.344q1.056 3.872 2.68 4.949a3.407 3.407 0 0 0 .641.241q2.172.576 4.035-3.457a57.4 57.4 0 0 0 3.126-9.3m22.766-3.383q-1.571-3.505-3.295-4.465a3.455 3.455 0 0 0 -.641-.242q-2.172-.574-3.83 2.65a45.858 45.858 0 0 0 -2.956 8.63 57.792 57.792 0 0 0 -1.678 9.687q-.283 4.45 1.889 5.026a3.37 3.37 0 0 0 .675.107q1.931-.135 4.625-3.014a26.161 26.161 0 0 0 5.134-8.915q1.875-5.475.077-9.471z" fill="#ac58d2"/><path d="m546.11 26.414q.168-6.5-3.65-7.505t-10.16 3.777q-5.788 4.287-7.609 13.145a19.677 19.677 0 0 1 6.928-10.451q6.338-4.788 10.155-3.778t3.649 7.5a70.355 70.355 0 0 1 -1.906 13.363 75.642 75.642 0 0 0 2.588-16.056m6.163 4.506q2.932-5.762 6.75-4.751t7.088 8.344a20.078 20.078 0 0 1 1.1 12.578q2.609-8.649-.42-15.272-3.272-7.332-7.089-8.343t-6.75 4.75a75.245 75.245 0 0 0 -5.347 15.329 69.891 69.891 0 0 1 4.673-12.63z" fill="#cc83ee"/><path d="m523.337 95.611a10.5 10.5 0 0 0 4.919-6.673 10.734 10.734 0 0 0 -1.137-8.277 10.314 10.314 0 0 0 -6.522-5.032 10.082 10.082 0 0 0 -8.089 1.163 10.5 10.5 0 0 0 -4.918 6.673 10.732 10.732 0 0 0 1.136 8.276 10.31 10.31 0 0 0 6.522 5.032 10.082 10.082 0 0 0 8.089-1.162m31.394 8.314a10.5 10.5 0 0 0 4.918-6.673 10.73 10.73 0 0 0 -1.136-8.277 10.314 10.314 0 0 0 -6.522-5.032 10.082 10.082 0 0 0 -8.089 1.163 10.5 10.5 0 0 0 -4.919 6.673 10.731 10.731 0 0 0 1.137 8.276 10.315 10.315 0 0 0 6.522 5.033 10.086 10.086 0 0 0 8.089-1.163z" fill="#cc83ee"/><path d="m526.506 95.3a1.806 1.806 0 0 0 -.424 1.4 6.345 6.345 0 0 0 .754 2.571 6.077 6.077 0 0 0 3.769 2.866 5.8 5.8 0 0 0 4.655-.635 7.279 7.279 0 0 0 1.928-1.789 1.819 1.819 0 0 0 .292-1.432l.017-.067a1.953 1.953 0 0 0 -.749-1.2 1.7 1.7 0 0 0 -1.448-.384 1.854 1.854 0 0 0 -1.26.816 2.569 2.569 0 0 1 -.665.686l-.066-.017a2.179 2.179 0 0 1 -1.75.255 2.234 2.234 0 0 1 -1.409-1.092 1.98 1.98 0 0 1 -.273-.862l.017-.068a1.921 1.921 0 0 0 -.732-1.271 1.7 1.7 0 0 0 -1.414-.519 1.623 1.623 0 0 0 -1.242.749m-1.043-5.593a5.126 5.126 0 0 0 -.545-3.952 5 5 0 0 0 -3.18-2.423l-.263-.07-.131-.035a12.469 12.469 0 0 1 -4.961-2.319.707.707 0 0 0 -.593-.157.479.479 0 0 0 -.528.147 1.016 1.016 0 0 0 -.351.554 4.873 4.873 0 0 0 .9 4.765 5.564 5.564 0 0 0 -.287.858 5.205 5.205 0 0 0 .528 4.02 5.106 5.106 0 0 0 7.048 1.858 5.1 5.1 0 0 0 2.368-3.253m28.3 1.1a.71.71 0 0 0 -.593-.157 12.344 12.344 0 0 1 -5.438-.434l-.131-.035-.264-.07a4.891 4.891 0 0 0 -3.928.54 5.014 5.014 0 0 0 -2.351 3.186 5.206 5.206 0 0 0 .528 4.02 5 5 0 0 0 3.179 2.422 4.812 4.812 0 0 0 3.863-.557 5.1 5.1 0 0 0 2.367-3.252 5.767 5.767 0 0 0 .156-.893 4.762 4.762 0 0 0 3.047-3.719 1.041 1.041 0 0 0 -.044-.659.491.491 0 0 0 -.393-.391z" fill="#4e2d5d"/><path d="m532.638 69.118a3.253 3.253 0 0 0 -2.513.771 3.49 3.49 0 0 0 -1.388 2.435 3.738 3.738 0 0 0 .868 2.676 2.952 2.952 0 0 0 2.348 1.268 3.324 3.324 0 0 0 2.513-.771 3.967 3.967 0 0 0 1.3-2.385 4.123 4.123 0 0 0 -.786-2.723 3.447 3.447 0 0 0 -2.347-1.268m5.373-3.75a2.472 2.472 0 0 0 -.545-2.013 2.736 2.736 0 0 0 -1.789-.977 2.885 2.885 0 0 0 -1.967.557 2.809 2.809 0 0 0 -.906 1.916 2.482 2.482 0 0 0 .579 1.877 2.575 2.575 0 0 0 1.772 1.045 2.608 2.608 0 0 0 1.9-.575 2.452 2.452 0 0 0 .955-1.83m8.9 2a4.672 4.672 0 0 0 -3.152-1.7 4.961 4.961 0 0 0 -3.422 1.034 5.075 5.075 0 0 0 -1.665 3.295 4.386 4.386 0 0 0 1.027 3.433 4.519 4.519 0 0 0 3.135 1.765 4.988 4.988 0 0 0 3.373-1.119 4.464 4.464 0 0 0 1.707-3.14 4.877 4.877 0 0 0 -.993-3.573z" fill="#ac58d2"/><path d="m532 60.255a3.966 3.966 0 0 0 1.142-2.571 3.292 3.292 0 0 0 -.92-2.471.277.277 0 0 0 -.181-.12 9.621 9.621 0 0 0 -2.852-2.049 17.561 17.561 0 0 0 2.556-2.053.807.807 0 0 0 .183-.167 3.3 3.3 0 0 0 .827-2.44 3.958 3.958 0 0 0 -1.166-2.608 3.55 3.55 0 0 0 -2.53-1.1 3 3 0 0 0 -2.4.874.786.786 0 0 1 -.183.167 15.756 15.756 0 0 0 -1.951 2.717 10.492 10.492 0 0 0 -1.988-2.97.5.5 0 0 0 -.18-.119 2.964 2.964 0 0 0 -2.45-.865 3.518 3.518 0 0 0 -2.466 1.143 4.114 4.114 0 0 0 -1.159 2.639 3.289 3.289 0 0 0 .92 2.471.525.525 0 0 1 .18.12 10.812 10.812 0 0 0 2.9 2.133 11.714 11.714 0 0 0 -2.67 1.952.2.2 0 0 1 -.1.117 3.115 3.115 0 0 0 -.845 2.507 3.965 3.965 0 0 0 1.183 2.54 4.086 4.086 0 0 0 2.5 1.236 3.38 3.38 0 0 0 2.433-1.008.2.2 0 0 0 .1-.118 16.38 16.38 0 0 0 1.935-2.649 12.655 12.655 0 0 0 2.07 2.92.279.279 0 0 1 .181.119 2.962 2.962 0 0 0 2.449.865 3.813 3.813 0 0 0 2.482-1.212m-5.084-9.609a3 3 0 0 1 .889 2.319 3.194 3.194 0 0 1 -.86 2.287 3.1 3.1 0 0 1 -2.283.976 2.8 2.8 0 0 1 -2.153-.929 3.3 3.3 0 0 1 -.971-2.269 3.207 3.207 0 0 1 .943-2.337 2.9 2.9 0 0 1 2.2-.926 3.037 3.037 0 0 1 2.236.879z" fill="#fff"/><path d="m527.806 52.965a3 3 0 0 0 -.889-2.319 3.037 3.037 0 0 0 -2.235-.879 2.9 2.9 0 0 0 -2.2.926 3.207 3.207 0 0 0 -.943 2.337 3.3 3.3 0 0 0 .971 2.269 2.8 2.8 0 0 0 2.153.929 3.1 3.1 0 0 0 2.283-.976 3.194 3.194 0 0 0 .86-2.287z" fill="#fc0"/><path d="m702.426 67.966-12.859-51.882h-5.823l-12.859 51.882a2.364 2.364 0 0 0 .122 1.489 2.261 2.261 0 0 0 .849 1.179 2.331 2.331 0 0 0 1.395.435h26.809a2.331 2.331 0 0 0 1.4-.435 2.629 2.629 0 0 0 .91-1.179 2.671 2.671 0 0 0 .056-1.489z" fill="#adc5c6"/><path d="m685.321 14.843q-1.82-1.3-7.521-2.3a120.808 120.808 0 0 0 -20.077-1.427h-1.334a6.745 6.745 0 0 0 -4.185 1.427 4.8 4.8 0 0 0 -1.7 2.3 4.852 4.852 0 0 0 1.7 2.234 7.048 7.048 0 0 0 4.185 1.49h1.334a115.8 115.8 0 0 0 20.077-1.49q5.7-.993 7.521-2.234m35.968 2.234a4.453 4.453 0 0 0 1.638-2.234 4.427 4.427 0 0 0 -1.638-2.3 6.925 6.925 0 0 0 -4.189-1.423h-1.4a120.368 120.368 0 0 0 -20.016 1.427q-5.762.993-7.521 2.3 1.76 1.242 7.521 2.234a115.38 115.38 0 0 0 20.016 1.49h1.4a7.252 7.252 0 0 0 4.189-1.494z" fill="#d3ecf7"/><path d="m677.8 19.56q8.31-1.428 8.31-3.476a1.554 1.554 0 0 0 -.789-1.241q-1.82 1.242-7.521 2.234a115.8 115.8 0 0 1 -20.077 1.49h-1.334a7.048 7.048 0 0 1 -4.185-1.49 4.852 4.852 0 0 1 -1.7-2.234 3.974 3.974 0 0 0 -.182 1.241 4.241 4.241 0 0 0 1.88 3.476 7.054 7.054 0 0 0 4.185 1.489h1.334a115.811 115.811 0 0 0 20.079-1.489m45.127-4.717a4.453 4.453 0 0 1 -1.638 2.234 7.252 7.252 0 0 1 -4.185 1.49h-1.4a115.38 115.38 0 0 1 -20.016-1.49q-5.762-.993-7.521-2.234a1.544 1.544 0 0 0 -.849 1.241q0 2.049 8.37 3.476a115.389 115.389 0 0 0 20.016 1.489h1.4a7.258 7.258 0 0 0 4.185-1.489 4.284 4.284 0 0 0 1.82-3.476 4 4 0 0 0 -.182-1.241z" fill="#fff"/><path d="m690.355 16.333v-.373a3.685 3.685 0 0 0 -1.091-2.668 3.42 3.42 0 0 0 -2.548-1.055 3.619 3.619 0 0 0 -2.608 1.055 3.8 3.8 0 0 0 -1.031 2.668 1.184 1.184 0 0 0 .061.373q.06.62.97 1.055a5.668 5.668 0 0 0 2.608.558 5.3 5.3 0 0 0 2.548-.558q.97-.435 1.091-1.055z" fill="#5c9fbd"/><g fill="#f90"><path d="m709.4 62.753a2.636 2.636 0 0 0 -.667-1.179 2.43 2.43 0 0 0 -1.335-.435 1.99 1.99 0 0 0 -1.395.248l-9.159 5.4a2.263 2.263 0 0 0 -1.091 1.613 1.9 1.9 0 0 0 .247 1.738l10.918 19.486a2.4 2.4 0 0 0 1.452 1.176 2.355 2.355 0 0 0 1.759-.31l11.221-6.7a2.559 2.559 0 0 0 1.031-1.055 1.917 1.917 0 0 0 .121-1.366 2.781 2.781 0 0 0 -.728-1.365 2.737 2.737 0 0 0 -1.274-.558l-6.247-.559z"/><path d="m665.972 61.077a2.475 2.475 0 0 0 -1.395.5 2.259 2.259 0 0 0 -.788 1.179l-4.852 16.135-6.187.5a2.156 2.156 0 0 0 -1.213.621 2.279 2.279 0 0 0 -.789 1.3 1.665 1.665 0 0 0 .182 1.428 1.9 1.9 0 0 0 .971 1.055l11.16 6.64a2.421 2.421 0 0 0 1.759.31 2.186 2.186 0 0 0 1.516-1.117l10.979-19.548a2.017 2.017 0 0 0 .182-1.738 2.364 2.364 0 0 0 -1.031-1.551l-9.159-5.4a1.792 1.792 0 0 0 -1.335-.314z"/><path d="m713.707 60.705a26.979 26.979 0 0 0 -7.885-18.928 26.587 26.587 0 0 0 -38.273 0 26.863 26.863 0 0 0 -7.949 18.928v21.658h54.1z"/></g><path d="m713.707 58.843a26.938 26.938 0 0 0 -7.885-19.549 26.589 26.589 0 0 0 -38.273 0 26.832 26.832 0 0 0 -7.949 19.549v1.862a26.863 26.863 0 0 1 7.945-18.928 26.587 26.587 0 0 1 38.273 0 26.979 26.979 0 0 1 7.885 18.928z" fill="#ffc164"/><path d="m712.615 47.983a31.412 31.412 0 0 0 -5.034-6.7 28.966 28.966 0 0 0 -41.73 0 28.96 28.96 0 0 0 -5.034 6.7z" fill="#98b6b8"/><path d="m712.615 47.983h1.153a29.541 29.541 0 0 0 -6.187-9.185 28.966 28.966 0 0 0 -41.73 0 29.031 29.031 0 0 0 -6.247 9.185h1.213a28.96 28.96 0 0 1 5.034-6.7 28.966 28.966 0 0 1 41.73 0 31.412 31.412 0 0 1 5.034 6.7z" fill="#a6c4c6"/><path d="m713.707 68.71a2.477 2.477 0 0 0 1.759-.682 2.523 2.523 0 0 0 .667-1.738v-7.075a29.31 29.31 0 0 0 -2.365-11.232h-54.168a30.106 30.106 0 0 0 -2.426 11.232v7.075a2.41 2.41 0 0 0 .727 1.738 2.274 2.274 0 0 0 1.7.682z" fill="#fc0"/><path d="m694.783 62.442a4.6 4.6 0 0 0 3.154 1.366 4.4 4.4 0 0 0 3.275-1.366 4.745 4.745 0 0 0 1.335-3.351 4.212 4.212 0 0 0 -1.274-3.289 4.433 4.433 0 0 0 -2.487-1.3 14.265 14.265 0 0 0 -5.337 5.461 4.958 4.958 0 0 0 1.334 2.482m-16.2-.062a4.569 4.569 0 0 0 1.274-2.482 13.61 13.61 0 0 0 -5.337-5.523 4.794 4.794 0 0 0 -2.42 1.362 4.333 4.333 0 0 0 -1.334 3.227 4.71 4.71 0 0 0 1.395 3.413 4.019 4.019 0 0 0 3.215 1.3 4.433 4.433 0 0 0 3.212-1.3z" fill="#af8c00"/><path d="m803.813 90.285a37.7 37.7 0 0 0 -14.726-3.944q-1.185-.1-2.372-.1h-1.877a39.648 39.648 0 0 0 -28.365 12.438 41.579 41.579 0 0 0 -12.058 30.032v.2a10.2 10.2 0 0 0 .1 1.415v.405a41.991 41.991 0 0 0 .791 7.179 43.89 43.89 0 0 0 2.174 7.079 14.9 14.9 0 0 0 .791 1.921q1.088 2.326 2.471 4.652.988 1.516 2.273 3.134 1.482 1.922 3.261 3.843l.2.2q1.185 1.214 2.372 2.326a2.644 2.644 0 0 1 .692.506 31.386 31.386 0 0 0 3.656 2.831q1.484 1.011 3.064 1.921 1.779.911 3.657 1.719a40.217 40.217 0 0 0 16.011 3.135 39.227 39.227 0 0 0 29.254-12.438 41.259 41.259 0 0 0 12.255-27.5v-2.529a46.657 46.657 0 0 0 -.988-9.707q-.4-1.821-.89-3.641a2.271 2.271 0 0 1 -.3-.707 33.218 33.218 0 0 0 -1.582-3.843 39.243 39.243 0 0 0 -6.028-9.3 26.909 26.909 0 0 0 -1.779-2.022 7.552 7.552 0 0 0 -.692-.809 12.19 12.19 0 0 0 -.988-.91 31.426 31.426 0 0 0 -2.768-2.529 34.511 34.511 0 0 0 -3.657-2.73 29.112 29.112 0 0 0 -3.953-2.224m-1.779 3.842a23.82 23.82 0 0 1 3.558 2.023 37.471 37.471 0 0 1 3.262 2.426 20.057 20.057 0 0 1 2.47 2.326 3.367 3.367 0 0 1 .89.809 3.493 3.493 0 0 1 .692.708 21.877 21.877 0 0 1 1.581 1.82 37.128 37.128 0 0 1 5.436 8.393 26.567 26.567 0 0 1 1.383 3.438 2.557 2.557 0 0 0 .3.607q.394 1.618.791 3.337a41.365 41.365 0 0 1 .889 8.7v2.023h-6.226v.3a30.876 30.876 0 0 1 -9.192 20.224 29.356 29.356 0 0 1 -21.94 9.3 33.3 33.3 0 0 1 -7.413-.809 27.264 27.264 0 0 1 -4.151-1.314 32.662 32.662 0 0 1 -5.435-2.933l-.593-.4a18.969 18.969 0 0 1 -2.175-1.719 6.471 6.471 0 0 1 -.691-.607q-.792-.708-1.582-1.517a32.61 32.61 0 0 1 -3.162-3.741 25.334 25.334 0 0 1 -2.076-3.337 19.3 19.3 0 0 1 -1.482-3.135 12.8 12.8 0 0 1 -.791-2.022 22.077 22.077 0 0 1 -.89-3.438 28.789 28.789 0 0 1 -.593-4.854h-6.226v-.607a7.518 7.518 0 0 1 -.1-1.213v-.2a37.2 37.2 0 0 1 10.872-27 35.8 35.8 0 0 1 25.5-11.224h1.68q1.088 0 2.175.1a32.838 32.838 0 0 1 13.243 3.539m1.483 29.022a1.263 1.263 0 0 0 -.791-.506l-9.392-3.649-6.226-7.888a1.265 1.265 0 0 0 -.791-.5 1.024 1.024 0 0 0 -.889 0 .924.924 0 0 0 -.692.5l-6.326 7.888-9.29 3.64a.925.925 0 0 0 -.691.506 1.106 1.106 0 0 0 -.3.809 2.044 2.044 0 0 0 .2.91l5.534 8.494.395 10.011a1.5 1.5 0 0 0 .3.91 1.263 1.263 0 0 0 .791.506 1.1 1.1 0 0 0 .79.1l9.686-2.731 9.685 2.731a1.328 1.328 0 0 0 .89-.1 1.25 1.25 0 0 0 .692-.506 1.506 1.506 0 0 0 .3-.91l.593-10.112 5.535-8.393a2.057 2.057 0 0 0 .2-.91 1.47 1.47 0 0 0 -.2-.809m-13.244-1.618a3.983 3.983 0 0 0 1.68 1.314l6.523 2.528-3.558 5.36h-17.993l-3.558-5.36 6.523-2.528a4.547 4.547 0 0 0 1.581-1.213l4.448-5.562z" fill="#fc0"/><path d="m788.3 96.959q-1.187-.1-2.372-.1a29.673 29.673 0 0 0 -22.04 9.3 31.293 31.293 0 0 0 -9.092 22.549v.2a8.285 8.285 0 0 0 .1 1.314v.506a28.789 28.789 0 0 0 .593 4.854 22.077 22.077 0 0 0 .89 3.438 12.8 12.8 0 0 0 .791 2.022 19.3 19.3 0 0 0 1.482 3.135 25.334 25.334 0 0 0 2.076 3.337 32.61 32.61 0 0 0 3.162 3.741q.791.81 1.582 1.517a6.471 6.471 0 0 0 .691.607 18.969 18.969 0 0 0 2.175 1.719l.593.4a32.662 32.662 0 0 0 5.435 2.933 27.264 27.264 0 0 0 4.151 1.314 33.3 33.3 0 0 0 7.413.809 29.356 29.356 0 0 0 21.94-9.3 30.876 30.876 0 0 0 9.192-20.224v-2.32a34.582 34.582 0 0 0 -.2-3.741q-.1-1.011-.3-2.022-.2-.91-.3-1.72-.3-1.314-.692-2.528a30.854 30.854 0 0 0 -6.72-11.426q-.5-.608-.989-1.112l-.79-.809-.494-.506a29.913 29.913 0 0 0 -2.965-2.326q-.693-.505-1.285-.91a22.491 22.491 0 0 0 -2.965-1.719 29.345 29.345 0 0 0 -11.062-2.932m14.429 25.684a1.263 1.263 0 0 1 .791.506 1.47 1.47 0 0 1 .2.809 2.057 2.057 0 0 1 -.2.91l-5.535 8.393-.593 10.112a1.506 1.506 0 0 1 -.3.91 1.25 1.25 0 0 1 -.692.506 1.328 1.328 0 0 1 -.89.1l-9.685-2.731-9.686 2.731a1.1 1.1 0 0 1 -.79-.1 1.263 1.263 0 0 1 -.791-.506 1.5 1.5 0 0 1 -.3-.91l-.395-10.011-5.534-8.494a2.044 2.044 0 0 1 -.2-.91 1.106 1.106 0 0 1 .3-.809.925.925 0 0 1 .691-.506l9.29-3.64 6.326-7.888a.924.924 0 0 1 .692-.5 1.024 1.024 0 0 1 .889 0 1.265 1.265 0 0 1 .791.5l6.229 7.885z" fill="#e5b700"/><path d="m791.953 122.845a3.983 3.983 0 0 1 -1.68-1.314l-4.348-5.461-4.448 5.562a4.547 4.547 0 0 1 -1.581 1.213l-6.523 2.528 3.558 5.36h17.987l3.558-5.36zm-6.028-25.988q1.185 0 2.372.1a29.345 29.345 0 0 1 11.069 2.932 22.491 22.491 0 0 1 2.965 1.719q.592.4 1.285.91a29.913 29.913 0 0 1 2.965 2.326l.494.506.79.809q.5.506.989 1.112a30.854 30.854 0 0 1 6.72 11.426q.4 1.213.692 2.528.1.81.3 1.72.2 1.011.3 2.022a34.582 34.582 0 0 1 .2 3.741v2.023h6.226v-2.021a41.365 41.365 0 0 0 -.889-8.7q-.4-1.719-.791-3.337a2.557 2.557 0 0 1 -.3-.607 26.567 26.567 0 0 0 -1.383-3.438 37.128 37.128 0 0 0 -5.436-8.393 21.877 21.877 0 0 0 -1.581-1.82 3.493 3.493 0 0 0 -.692-.708 3.367 3.367 0 0 0 -.89-.809 20.057 20.057 0 0 0 -2.47-2.326 37.471 37.471 0 0 0 -3.262-2.426 23.82 23.82 0 0 0 -3.558-2.023 32.838 32.838 0 0 0 -13.243-3.539q-1.087-.1-2.175-.1h-1.68a35.8 35.8 0 0 0 -25.5 11.224 37.2 37.2 0 0 0 -10.872 27v.2a7.518 7.518 0 0 0 .1 1.213v.607h6.226v-.506a8.285 8.285 0 0 1 -.1-1.314v-.2a31.293 31.293 0 0 1 9.092-22.549 29.673 29.673 0 0 1 22.037-9.302z" fill="#ffda4a"/><path d="m934.274 90.285a37.7 37.7 0 0 0 -14.726-3.944q-1.185-.1-2.372-.1h-1.876a39.651 39.651 0 0 0 -28.365 12.438 41.579 41.579 0 0 0 -12.058 30.032v.2a10.2 10.2 0 0 0 .1 1.415v.405a41.991 41.991 0 0 0 .791 7.179 43.89 43.89 0 0 0 2.174 7.079 15.038 15.038 0 0 0 .791 1.921q1.088 2.326 2.471 4.652.988 1.516 2.273 3.134 1.482 1.922 3.261 3.843l.2.2q1.187 1.214 2.372 2.326a2.644 2.644 0 0 1 .692.506 31.314 31.314 0 0 0 3.657 2.831q1.482 1.011 3.063 1.921 1.779.911 3.657 1.719a40.217 40.217 0 0 0 16.011 3.135 39.227 39.227 0 0 0 29.254-12.438 41.259 41.259 0 0 0 12.255-27.5v-2.529a46.59 46.59 0 0 0 -.988-9.707q-.4-1.821-.89-3.641a2.3 2.3 0 0 1 -.3-.707 33.218 33.218 0 0 0 -1.582-3.843 39.243 39.243 0 0 0 -6.028-9.3 26.909 26.909 0 0 0 -1.779-2.022 7.439 7.439 0 0 0 -.692-.809 12.19 12.19 0 0 0 -.988-.91 31.426 31.426 0 0 0 -2.768-2.529 34.6 34.6 0 0 0 -3.656-2.73 29.181 29.181 0 0 0 -3.954-2.224m-1.774 3.839a23.82 23.82 0 0 1 3.558 2.023 37.32 37.32 0 0 1 3.262 2.426 20.057 20.057 0 0 1 2.47 2.326 3.351 3.351 0 0 1 .89.809 3.467 3.467 0 0 1 .692.708 21.877 21.877 0 0 1 1.581 1.82 37.128 37.128 0 0 1 5.436 8.393 26.713 26.713 0 0 1 1.384 3.438 2.515 2.515 0 0 0 .3.607q.4 1.618.791 3.337a41.365 41.365 0 0 1 .889 8.7v2.023h-6.226v.3a30.876 30.876 0 0 1 -9.192 20.224 29.355 29.355 0 0 1 -21.94 9.3 33.3 33.3 0 0 1 -7.413-.809 27.216 27.216 0 0 1 -4.15-1.314 32.632 32.632 0 0 1 -5.436-2.933l-.593-.4a18.969 18.969 0 0 1 -2.175-1.719 6.471 6.471 0 0 1 -.691-.607q-.792-.708-1.582-1.517a32.61 32.61 0 0 1 -3.162-3.741 25.334 25.334 0 0 1 -2.076-3.337 19.3 19.3 0 0 1 -1.482-3.135 12.8 12.8 0 0 1 -.791-2.022 21.961 21.961 0 0 1 -.889-3.438 28.585 28.585 0 0 1 -.593-4.854h-6.227v-.607a7.518 7.518 0 0 1 -.1-1.213v-.2a37.2 37.2 0 0 1 10.872-27 35.8 35.8 0 0 1 25.5-11.224h1.681q1.086 0 2.174.1a32.838 32.838 0 0 1 13.238 3.536m1.483 29.022a1.263 1.263 0 0 0 -.791-.506l-9.392-3.643-6.226-7.888a1.262 1.262 0 0 0 -.791-.5 1.024 1.024 0 0 0 -.889 0 .924.924 0 0 0 -.692.5l-6.327 7.888-9.291 3.64a.925.925 0 0 0 -.691.506 1.106 1.106 0 0 0 -.3.809 2.044 2.044 0 0 0 .2.91l5.534 8.494.4 10.011a1.493 1.493 0 0 0 .3.91 1.263 1.263 0 0 0 .791.506 1.1 1.1 0 0 0 .79.1l9.686-2.731 9.685 2.731a1.328 1.328 0 0 0 .89-.1 1.247 1.247 0 0 0 .692-.506 1.506 1.506 0 0 0 .3-.91l.593-10.112 5.535-8.393a2.043 2.043 0 0 0 .2-.91 1.461 1.461 0 0 0 -.2-.809m-13.244-1.618a3.986 3.986 0 0 0 1.681 1.314l6.522 2.528-3.558 5.36h-17.998l-3.558-5.36 6.523-2.528a4.547 4.547 0 0 0 1.581-1.213l4.448-5.562z" fill="#fc0"/><path d="m918.758 96.959q-1.187-.1-2.372-.1a29.673 29.673 0 0 0 -22.04 9.3 31.293 31.293 0 0 0 -9.092 22.549v.2a8.164 8.164 0 0 0 .1 1.314v.506a28.585 28.585 0 0 0 .593 4.854 21.961 21.961 0 0 0 .889 3.438 12.8 12.8 0 0 0 .791 2.022 19.3 19.3 0 0 0 1.482 3.135 25.334 25.334 0 0 0 2.076 3.337 32.61 32.61 0 0 0 3.162 3.741q.791.81 1.582 1.517a6.471 6.471 0 0 0 .691.607 18.969 18.969 0 0 0 2.175 1.719l.593.4a32.632 32.632 0 0 0 5.436 2.933 27.216 27.216 0 0 0 4.15 1.314 33.3 33.3 0 0 0 7.413.809 29.355 29.355 0 0 0 21.94-9.3 30.876 30.876 0 0 0 9.192-20.224v-2.32a34.582 34.582 0 0 0 -.2-3.741q-.1-1.011-.3-2.022-.2-.91-.3-1.72-.3-1.314-.692-2.528a30.841 30.841 0 0 0 -6.72-11.426q-.5-.608-.989-1.112l-.79-.809-.494-.506a29.913 29.913 0 0 0 -2.965-2.326q-.693-.505-1.285-.91a22.427 22.427 0 0 0 -2.965-1.719 29.345 29.345 0 0 0 -11.069-2.932m14.429 25.684a1.263 1.263 0 0 1 .791.506 1.461 1.461 0 0 1 .2.809 2.043 2.043 0 0 1 -.2.91l-5.535 8.393-.593 10.112a1.506 1.506 0 0 1 -.3.91 1.247 1.247 0 0 1 -.692.506 1.328 1.328 0 0 1 -.89.1l-9.685-2.731-9.675 2.732a1.1 1.1 0 0 1 -.79-.1 1.263 1.263 0 0 1 -.791-.506 1.493 1.493 0 0 1 -.3-.91l-.4-10.011-5.534-8.494a2.044 2.044 0 0 1 -.2-.91 1.106 1.106 0 0 1 .3-.809.925.925 0 0 1 .691-.506l9.291-3.64 6.325-7.888a.924.924 0 0 1 .692-.5 1.024 1.024 0 0 1 .889 0 1.262 1.262 0 0 1 .791.5l6.236 7.884z" fill="#e5b700"/><path d="m922.415 122.845a3.986 3.986 0 0 1 -1.681-1.314l-4.348-5.461-4.448 5.562a4.547 4.547 0 0 1 -1.581 1.213l-6.523 2.528 3.558 5.36h17.987l3.558-5.36zm-6.029-25.988q1.185 0 2.372.1a29.345 29.345 0 0 1 11.069 2.932 22.427 22.427 0 0 1 2.965 1.719q.592.4 1.285.91a29.913 29.913 0 0 1 2.965 2.326l.494.506.79.809q.495.506.989 1.112a30.841 30.841 0 0 1 6.72 11.426q.4 1.213.692 2.528.1.81.3 1.72.2 1.011.3 2.022a34.582 34.582 0 0 1 .2 3.741v2.023h6.226v-2.021a41.365 41.365 0 0 0 -.889-8.7q-.4-1.719-.791-3.337a2.515 2.515 0 0 1 -.3-.607 26.713 26.713 0 0 0 -1.384-3.438 37.128 37.128 0 0 0 -5.436-8.393 21.877 21.877 0 0 0 -1.581-1.82 3.467 3.467 0 0 0 -.692-.708 3.351 3.351 0 0 0 -.89-.809 20.057 20.057 0 0 0 -2.47-2.326 37.32 37.32 0 0 0 -3.262-2.426 23.82 23.82 0 0 0 -3.558-2.023 32.838 32.838 0 0 0 -13.243-3.539q-1.087-.1-2.174-.1h-1.683a35.8 35.8 0 0 0 -25.5 11.224 37.2 37.2 0 0 0 -10.872 27v.2a7.518 7.518 0 0 0 .1 1.213v.607h6.227v-.506a8.164 8.164 0 0 1 -.1-1.314v-.2a31.293 31.293 0 0 1 9.092-22.549 29.673 29.673 0 0 1 22.039-9.302z" fill="#ffda4a"/><path d="m296.589 90.285a37.707 37.707 0 0 0 -14.726-3.944q-1.186-.1-2.372-.1h-1.878a39.651 39.651 0 0 0 -28.365 12.438 41.578 41.578 0 0 0 -12.057 30.032v.2a10.2 10.2 0 0 0 .1 1.415v.405a41.992 41.992 0 0 0 .79 7.179 43.793 43.793 0 0 0 2.175 7.079 14.881 14.881 0 0 0 .79 1.921q1.088 2.326 2.471 4.652.989 1.516 2.273 3.134 1.482 1.922 3.262 3.843l.2.2q1.186 1.214 2.372 2.326a2.628 2.628 0 0 1 .692.506 31.314 31.314 0 0 0 3.657 2.831q1.482 1.011 3.064 1.921 1.779.911 3.657 1.719a40.208 40.208 0 0 0 16.01 3.135 39.226 39.226 0 0 0 29.254-12.438 41.254 41.254 0 0 0 12.255-27.5v-2.529a46.59 46.59 0 0 0 -.988-9.707q-.394-1.821-.889-3.641a2.272 2.272 0 0 1 -.3-.707 33.215 33.215 0 0 0 -1.581-3.843 39.247 39.247 0 0 0 -6.029-9.3 26.909 26.909 0 0 0 -1.779-2.022 7.439 7.439 0 0 0 -.692-.809 12.026 12.026 0 0 0 -.988-.91 31.419 31.419 0 0 0 -2.767-2.529 34.511 34.511 0 0 0 -3.657-2.73 29.232 29.232 0 0 0 -3.953-2.224m-1.779 3.842a23.82 23.82 0 0 1 3.558 2.023 37.306 37.306 0 0 1 3.261 2.426 20.064 20.064 0 0 1 2.47 2.321 3.363 3.363 0 0 1 .889.809 3.441 3.441 0 0 1 .692.708 22.069 22.069 0 0 1 1.582 1.82 37.089 37.089 0 0 1 5.435 8.393 26.569 26.569 0 0 1 1.384 3.438 2.591 2.591 0 0 0 .3.607q.4 1.618.791 3.337a41.364 41.364 0 0 1 .89 8.7v2.023h-6.227v.3a30.88 30.88 0 0 1 -9.191 20.224 29.357 29.357 0 0 1 -21.941 9.3 33.3 33.3 0 0 1 -7.412-.809 27.229 27.229 0 0 1 -4.151-1.314 32.632 32.632 0 0 1 -5.436-2.933l-.593-.4a19.044 19.044 0 0 1 -2.174-1.719 6.487 6.487 0 0 1 -.692-.607q-.791-.708-1.581-1.517a32.621 32.621 0 0 1 -3.163-3.741 25.432 25.432 0 0 1 -2.075-3.337 19.308 19.308 0 0 1 -1.483-3.135 12.9 12.9 0 0 1 -.791-2.022 22.072 22.072 0 0 1 -.889-3.438 28.789 28.789 0 0 1 -.593-4.854h-6.226v-.607a7.518 7.518 0 0 1 -.1-1.213v-.2a37.2 37.2 0 0 1 10.871-27 35.8 35.8 0 0 1 25.5-11.224h1.68q1.088 0 2.174.1a32.843 32.843 0 0 1 13.244 3.539m1.482 29.022a1.261 1.261 0 0 0 -.79-.506l-9.393-3.644-6.227-7.888a1.26 1.26 0 0 0 -.79-.5 1.026 1.026 0 0 0 -.89 0 .927.927 0 0 0 -.692.5l-6.325 7.888-9.29 3.64a.927.927 0 0 0 -.692.506 1.106 1.106 0 0 0 -.3.809 2.044 2.044 0 0 0 .2.91l5.535 8.494.4 10.011a1.5 1.5 0 0 0 .3.91 1.261 1.261 0 0 0 .79.506 1.1 1.1 0 0 0 .791.1l9.685-2.731 9.686 2.731a1.325 1.325 0 0 0 .889-.1 1.247 1.247 0 0 0 .692-.506 1.5 1.5 0 0 0 .3-.91l.593-10.112 5.534-8.393a2.044 2.044 0 0 0 .2-.91 1.461 1.461 0 0 0 -.2-.809m-13.243-1.618a3.977 3.977 0 0 0 1.68 1.314l6.523 2.528-3.558 5.36h-17.997l-3.558-5.36 6.522-2.528a4.55 4.55 0 0 0 1.582-1.213l4.447-5.562z" fill="#fc0"/><path d="m281.072 96.959q-1.187-.1-2.372-.1a29.67 29.67 0 0 0 -22.039 9.3 31.29 31.29 0 0 0 -9.093 22.549v.2a8.164 8.164 0 0 0 .1 1.314v.506a28.789 28.789 0 0 0 .593 4.854 22.072 22.072 0 0 0 .889 3.438 12.9 12.9 0 0 0 .791 2.022 19.308 19.308 0 0 0 1.483 3.135 25.432 25.432 0 0 0 2.075 3.337 32.621 32.621 0 0 0 3.163 3.741q.791.81 1.581 1.517a6.487 6.487 0 0 0 .692.607 19.044 19.044 0 0 0 2.174 1.719l.593.4a32.632 32.632 0 0 0 5.436 2.933 27.229 27.229 0 0 0 4.151 1.314 33.3 33.3 0 0 0 7.412.809 29.357 29.357 0 0 0 21.941-9.3 30.88 30.88 0 0 0 9.191-20.224v-2.32a34.841 34.841 0 0 0 -.2-3.741q-.1-1.011-.3-2.022-.2-.91-.3-1.72-.3-1.314-.691-2.528a30.857 30.857 0 0 0 -6.721-11.426q-.494-.608-.988-1.112-.4-.405-.791-.809c-.2-.2-.362-.371-.494-.506a29.8 29.8 0 0 0 -2.965-2.326q-.692-.505-1.285-.91a22.363 22.363 0 0 0 -2.965-1.719 29.345 29.345 0 0 0 -11.069-2.932m14.43 25.684a1.261 1.261 0 0 1 .79.506 1.461 1.461 0 0 1 .2.809 2.044 2.044 0 0 1 -.2.91l-5.534 8.393-.593 10.112a1.5 1.5 0 0 1 -.3.91 1.247 1.247 0 0 1 -.692.506 1.325 1.325 0 0 1 -.889.1l-9.686-2.731-9.685 2.731a1.1 1.1 0 0 1 -.791-.1 1.261 1.261 0 0 1 -.79-.506 1.5 1.5 0 0 1 -.3-.91l-.4-10.011-5.535-8.494a2.044 2.044 0 0 1 -.2-.91 1.106 1.106 0 0 1 .3-.809.927.927 0 0 1 .692-.506l9.29-3.64 6.325-7.888a.927.927 0 0 1 .692-.5 1.026 1.026 0 0 1 .89 0 1.26 1.26 0 0 1 .79.5l6.245 7.885z" fill="#e5b700"/><path d="m284.729 122.845a3.977 3.977 0 0 1 -1.68-1.314l-4.349-5.461-4.447 5.562a4.55 4.55 0 0 1 -1.582 1.213l-6.522 2.528 3.558 5.36h17.987l3.558-5.36zm-6.029-25.988q1.186 0 2.372.1a29.345 29.345 0 0 1 11.069 2.932 22.363 22.363 0 0 1 2.965 1.719q.594.4 1.285.91a29.8 29.8 0 0 1 2.965 2.326c.132.135.3.3.494.506q.4.4.791.809.493.506.988 1.112a30.857 30.857 0 0 1 6.721 11.429q.394 1.213.691 2.528.1.81.3 1.72.2 1.011.3 2.022a34.841 34.841 0 0 1 .2 3.741v2.023h6.227v-2.024a41.364 41.364 0 0 0 -.89-8.7q-.4-1.719-.791-3.337a2.591 2.591 0 0 1 -.3-.607 26.569 26.569 0 0 0 -1.384-3.438 37.089 37.089 0 0 0 -5.435-8.393 22.069 22.069 0 0 0 -1.582-1.82 3.441 3.441 0 0 0 -.692-.708 3.363 3.363 0 0 0 -.889-.809 20.064 20.064 0 0 0 -2.471-2.326 37.306 37.306 0 0 0 -3.261-2.426 23.82 23.82 0 0 0 -3.558-2.023 32.843 32.843 0 0 0 -13.244-3.539q-1.087-.1-2.174-.1h-1.68a35.8 35.8 0 0 0 -25.5 11.224 37.2 37.2 0 0 0 -10.871 27v.2a7.518 7.518 0 0 0 .1 1.213v.607h6.226v-.506a8.164 8.164 0 0 1 -.1-1.314v-.2a31.29 31.29 0 0 1 9.093-22.549 29.67 29.67 0 0 1 22.035-9.302z" fill="#ffda4a"/></svg>