<svg height="1080" viewBox="0 0 1920 1080" width="1920" xmlns="http://www.w3.org/2000/svg"><path d="m0 0h1920v1080h-1920z" fill="#6bd6fc"/><path d="m1192.558 373.959a52.279 52.279 0 0 0 -16.032 37.22v298.515a52.2 52.2 0 0 0 16.032 37.408 52.92 52.92 0 0 0 25.783 14.626v64.128a475.172 475.172 0 0 0 -96.661 9.094 929.735 929.735 0 0 0 -142.98 40.221l-14.344-2.907-3.556-31.689-18.1 25.5-25.97-9.188 11.534 29.813-16.594 4.5 10.5 6.938q-10.125 4.5-20.157 9.281-105.849 49.971-224.074 50.815a647.182 647.182 0 0 1 -228.479-39.092 1915.454 1915.454 0 0 0 -185.447-57.378v-16.126a24.713 24.713 0 0 0 11.438-6.563 23.692 23.692 0 0 0 7.219-16.875v-135.382a24.758 24.758 0 0 0 -49.5 0v135.382a24.957 24.957 0 0 0 18.938 23.533v13.032q-10.5-2.625-21-5.063-116.352-27.19-231.108 4.312v579.966h1920v-579.966q-65.44 23.25-128.537 52.127-110.536 50.628-226.043 7.969-92.82-34.41-187.32-63.471v-27.752a39.1 39.1 0 0 0 18.282-10.5 38.106 38.106 0 0 0 11.626-27.189v-217.417a37.785 37.785 0 0 0 -11.626-27.095 39.836 39.836 0 0 0 -56.253 0 37.785 37.785 0 0 0 -11.626 27.095v217.419a38.106 38.106 0 0 0 11.626 27.189 38.539 38.539 0 0 0 18.845 10.688v21.657l-9.938-3a473.079 473.079 0 0 0 -104.349-18.939v-65.255a53.474 53.474 0 0 0 25.126-14.438 52.358 52.358 0 0 0 15.938-37.408v-298.515a54.444 54.444 0 0 0 -54.565-53.159h-.093a52.5 52.5 0 0 0 -38.535 15.939z" fill="#65cde5"/><path d="m1130.109 631.715a63.313 63.313 0 0 1 1.137 10.236v-9.857q-2.274-34.877-39.805-34.876h-299.485q-36.014 0-39.426 32.223v1.706a3.585 3.585 0 0 0 -.189 1.137q-.189 2.085-.19 4.359v4.357q.036-1.268.19-2.654 2.654-33.549 39.615-33.55h299.485q32.982.004 38.668 26.919z" fill="#3bde80"/><path d="m1015.243 708.482h-.568a277.851 277.851 0 0 0 -54.4 5.118l-.38.189a1.443 1.443 0 0 1 -.568.19q-3.981.568-8.151 1.327a13.522 13.522 0 0 0 -1.706.568 259.586 259.586 0 0 1 -30.327 6.445q-7.962 1.326-16.112 2.085l-8.34.758h-.191q-10.995.379-22.367.19a283.565 283.565 0 0 1 -55.727-6.445 324.428 324.428 0 0 1 -31.844-7.771q-7.392-2.275-14.785-4.929l17.628 50.8a17.914 17.914 0 0 0 6.445 8.909 18.8 18.8 0 0 0 10.235 3.791l265.367 17.059a19.209 19.209 0 0 0 11.562-3.033 18.824 18.824 0 0 0 7.393-9.477l17.059-46.629a220.266 220.266 0 0 0 -23.694-8.529 17.393 17.393 0 0 0 -2.085-.569q-5.307-1.706-10.8-3.222h-.568a250.288 250.288 0 0 0 -53.074-6.824m9.476-67.483h-.569a287.965 287.965 0 0 0 -54.4 11.373l-.379.189a1.451 1.451 0 0 1 -.569.19q-3.98 1.137-8.15 2.464a13.33 13.33 0 0 0 -1.706.569 315.41 315.41 0 0 1 -30.328 10.046q-7.961 2.085-16.111 3.791-4.17.947-8.341 1.516h-.189q-10.994 1.9-22.367 2.843a293.235 293.235 0 0 1 -55.727 0 328.97 328.97 0 0 1 -62.929-11.752 1.457 1.457 0 0 1 -.569-.189l-9.1-2.654 6.255 17.628q1.326.379 2.843.948a1.457 1.457 0 0 0 .569.189 315.989 315.989 0 0 0 31.085 8.53 310.923 310.923 0 0 0 31.844 5.5 285.249 285.249 0 0 0 55.727 2.085q11.373-.568 22.367-1.9h.189q4.17-.568 8.341-1.326 8.149-1.327 16.111-3.223a305.478 305.478 0 0 0 30.328-8.908 13.33 13.33 0 0 1 1.706-.569q4.17-1.137 8.15-2.085a1.451 1.451 0 0 0 .569-.19l.379-.189a290.191 290.191 0 0 1 54.4-9.288h.569a239.815 239.815 0 0 1 53.073 2.843h.569q5.5.948 10.8 2.275a17.565 17.565 0 0 1 2.085.568 176.435 176.435 0 0 1 30.138 9.1 1.457 1.457 0 0 0 .569.189h.189l7.961-21.987a16.482 16.482 0 0 0 .948-3.981q-3.981-1.705-8.53-3.222h-.568a1.446 1.446 0 0 1 -.569-.19 173.391 173.391 0 0 0 -30.138-7.961q-1.137-.189-2.085-.379-5.307-1.137-10.8-1.895h-.569a239.931 239.931 0 0 0 -53.071-.948z" fill="#cb8a48"/><path d="m1024.721 666.592h-.569a290.191 290.191 0 0 0 -54.4 9.288l-.379.189a1.451 1.451 0 0 1 -.569.19q-3.98.948-8.15 2.085a13.33 13.33 0 0 0 -1.706.569 305.478 305.478 0 0 1 -30.328 8.908q-7.961 1.9-16.111 3.223-4.17.758-8.341 1.326h-.189q-10.994 1.327-22.367 1.9a285.249 285.249 0 0 1 -55.727-2.085 310.923 310.923 0 0 1 -31.844-5.5 315.989 315.989 0 0 1 -31.085-8.53 1.457 1.457 0 0 1 -.569-.189q-1.516-.568-2.843-.948l10.235 29.19q7.392 2.654 14.785 4.929a324.428 324.428 0 0 0 31.844 7.771 283.565 283.565 0 0 0 55.727 6.445q11.373.189 22.367-.19h.189l8.34-.758q8.151-.759 16.112-2.085a259.586 259.586 0 0 0 30.327-6.445 13.522 13.522 0 0 1 1.706-.568q4.17-.759 8.151-1.327a1.443 1.443 0 0 0 .568-.19l.38-.189a277.851 277.851 0 0 1 54.4-5.118h.568a250.288 250.288 0 0 1 53.074 6.824h.568q5.5 1.516 10.8 3.222a17.393 17.393 0 0 1 2.085.569 220.266 220.266 0 0 1 23.694 8.529l16.68-46.06h-.189a1.457 1.457 0 0 1 -.569-.189 176.435 176.435 0 0 0 -30.138-9.1 17.565 17.565 0 0 0 -2.085-.568q-5.307-1.327-10.8-2.275h-.569a239.815 239.815 0 0 0 -53.073-2.843z" fill="#d29353"/><path d="m1033.061 624.133h.568a248.339 248.339 0 0 1 54.78-.379h.568q5.687.568 11.184 1.517.946.189 2.085.379a198.185 198.185 0 0 1 27.863 6.065q-5.686-26.916-38.668-26.916h-299.485q-36.961 0-39.615 33.55v5.687a14.282 14.282 0 0 0 1.137 5.686q4.739 1.327 9.478 2.464a1.443 1.443 0 0 0 .568.19 313.427 313.427 0 0 0 32.034 6.634q16.49 2.465 32.791 3.412a312.553 312.553 0 0 0 57.623-1.517 222.583 222.583 0 0 0 22.935-3.411h.19a70.841 70.841 0 0 0 8.719-1.706q8.34-1.9 16.68-4.17a318.79 318.79 0 0 0 31.275-10.994 13.541 13.541 0 0 1 1.706-.569q4.361-1.326 8.34-2.653a1.463 1.463 0 0 0 .569-.19l.569-.19a309.064 309.064 0 0 1 56.106-12.889z" fill="#2ecc71"/><path d="m1033.629 624.133h-.568a309.064 309.064 0 0 0 -56.106 12.889l-.569.19a1.463 1.463 0 0 1 -.569.19q-3.98 1.326-8.34 2.653a13.541 13.541 0 0 0 -1.706.569 318.79 318.79 0 0 1 -31.271 10.994q-8.34 2.274-16.68 4.17a70.841 70.841 0 0 1 -8.719 1.706h-.19a222.583 222.583 0 0 1 -22.935 3.411 312.553 312.553 0 0 1 -57.623 1.517q-16.3-.948-32.791-3.412a313.427 313.427 0 0 1 -32.034-6.634 1.443 1.443 0 0 1 -.568-.19q-4.74-1.137-9.478-2.464a14.282 14.282 0 0 1 -1.137-5.686v-5.687q-.154 1.386-.19 2.654v12.51a15.666 15.666 0 0 0 1.138 5.876l9.1 2.654a1.457 1.457 0 0 0 .569.189 328.97 328.97 0 0 0 62.929 11.752 293.235 293.235 0 0 0 55.727 0q11.373-.948 22.367-2.843h.189q4.17-.568 8.341-1.516 8.149-1.707 16.111-3.791a315.41 315.41 0 0 0 30.328-10.046 13.33 13.33 0 0 1 1.706-.569q4.17-1.326 8.15-2.464a1.451 1.451 0 0 0 .569-.19l.379-.189a287.965 287.965 0 0 1 54.4-11.373h.569a239.931 239.931 0 0 1 53.073.948h.569q5.5.757 10.8 1.895.948.19 2.085.379a173.391 173.391 0 0 1 30.138 7.961 1.446 1.446 0 0 0 .569.19h.568q4.549 1.516 8.53 3.222a12.794 12.794 0 0 0 .189-2.085v-11.562a63.313 63.313 0 0 0 -1.137-10.236 198.185 198.185 0 0 0 -27.863-6.065q-1.139-.19-2.085-.379-5.5-.948-11.184-1.517h-.568a248.339 248.339 0 0 0 -54.782.379z" fill="#28b162"/><path d="m557.2 979.982a18.543 18.543 0 0 0 6.635-6.634l11.941-19.9a70.8 70.8 0 0 0 -8.719-1.706h-.379a218.862 218.862 0 0 0 -49.851-1.516h-.569a254.4 254.4 0 0 0 -50.988 10.993l-.379.19a1.463 1.463 0 0 1 -.569.19q-4.55 1.326-9.288 2.843a228.752 228.752 0 0 1 -28.432 9.667q-7.392 2.085-14.974 3.791l-7.961 1.516h-.19q-10.234 1.705-20.85 2.464a250.075 250.075 0 0 1 -52.315-.568 244.956 244.956 0 0 1 -29.948-4.55 296.453 296.453 0 0 1 -29-7.582 1.457 1.457 0 0 1 -.569-.189q-4.359-1.517-8.529-2.843-6.445-2.465-11.373-4.549-3.981-1.707-8.151-3.223h-.568a1.457 1.457 0 0 1 -.569-.189 154.4 154.4 0 0 0 -28.243-8.34q-1.137-.191-2.085-.379a12.451 12.451 0 0 0 -3.032-.38q-3.412-.947-7.014-1.705h-.568a211.472 211.472 0 0 0 -49.851-1.327h-.379a262.505 262.505 0 0 0 -51.178 10.8l-.19.189a1.448 1.448 0 0 1 -.568.19q-4.74 1.327-9.288 2.843a253.013 253.013 0 0 1 -28.432 9.857q-7.582 2.085-15.164 3.6a40.218 40.218 0 0 1 -7.772 1.516h-.189a187.409 187.409 0 0 1 -21.04 2.654 250.007 250.007 0 0 1 -52.315-.569q-14.785-1.515-29.759-4.549a3.585 3.585 0 0 0 -1.138-.187l9.287 20.85a18.943 18.943 0 0 0 7.393 8.34 18.138 18.138 0 0 0 10.614 2.843l587.6-21.8a18.735 18.735 0 0 0 8.908-2.653m54.969-88.14a17.644 17.644 0 0 0 2.275-6.065q-2.844-1.139-5.876-2.275h-.569a1.443 1.443 0 0 1 -.568-.19 153.6 153.6 0 0 0 -28.243-7.961l-1.895-.379q-4.929-1.137-10.236-1.895h-.379a211.887 211.887 0 0 0 -49.851-.948h-.569a255.986 255.986 0 0 0 -50.995 11.373l-.379.19a1.457 1.457 0 0 1 -.569.189q-4.55 1.327-9.288 3.033a282.819 282.819 0 0 1 -28.429 10.048q-7.392 2.085-14.974 3.791-3.981.948-7.961 1.516h-.19q-10.234 1.9-20.85 2.843a258.358 258.358 0 0 1 -52.315 0 271.272 271.272 0 0 1 -29.948-4.359 263.757 263.757 0 0 1 -29-7.393 1.457 1.457 0 0 1 -.569-.189q-4.359-1.327-8.529-2.654-6.445-2.274-11.373-4.359-3.981-1.707-8.151-3.223h-.568a1.457 1.457 0 0 1 -.569-.189 153.5 153.5 0 0 0 -28.243-7.961q-1.137-.191-2.085-.379a25.475 25.475 0 0 0 -3.032-.569q-3.412-.757-7.014-1.327h-.568a211.672 211.672 0 0 0 -49.851-.947h-.379a255.7 255.7 0 0 0 -51.178 11.372l-.19.19a1.459 1.459 0 0 1 -.568.189q-4.74 1.327-9.288 3.033a282.745 282.745 0 0 1 -28.432 10.046q-7.582 2.085-15.164 3.791a76.987 76.987 0 0 1 -7.772 1.517h-.189q-10.236 1.894-21.04 2.843a258.5 258.5 0 0 1 -52.315 0 272.651 272.651 0 0 1 -29.759-4.36 274.159 274.159 0 0 1 -29.19-7.392 1.446 1.446 0 0 1 -.569-.19q-4.17-1.326-8.53-2.653l6.445 14.4q1.137.38 2.085.758a1.446 1.446 0 0 0 .569.19q14.6 4.928 29.19 8.34a276.445 276.445 0 0 0 29.759 5.118 251.173 251.173 0 0 0 52.315 1.706 188.063 188.063 0 0 0 21.04-2.275h.189a52.536 52.536 0 0 0 7.772-1.327q7.581-1.326 15.164-3.222a275.94 275.94 0 0 0 28.425-9.283q4.548-1.516 9.288-2.653a1.465 1.465 0 0 0 .568-.19l.19-.19a250.3 250.3 0 0 1 51.178-9.856h.379a211.308 211.308 0 0 1 49.851 2.464h.568q3.6.759 7.014 1.706a25.475 25.475 0 0 1 3.032.569q.948.189 2.085.379a166.716 166.716 0 0 1 28.247 8.909 1.457 1.457 0 0 0 .569.189h.568q4.17 1.706 8.151 3.412 4.928 2.274 11.373 4.739 4.17 1.516 8.529 3.032a1.446 1.446 0 0 0 .569.19 268.211 268.211 0 0 0 29 8.15 247.943 247.943 0 0 0 29.948 5.308 259.894 259.894 0 0 0 52.315 1.516q10.615-.568 20.85-2.085h.19q3.981-.569 7.961-1.327 7.583-1.517 14.974-3.412a246.693 246.693 0 0 0 28.432-9.1q4.74-1.517 9.288-2.653a1.463 1.463 0 0 0 .569-.19l.379-.19a250.148 250.148 0 0 1 50.988-9.856h.569a211.985 211.985 0 0 1 49.851 2.464h.379q5.307.948 10.236 2.275l1.895.379a149.15 149.15 0 0 1 19.9 5.5z" fill="#cb8a48"/><path d="m599.086 913.83a149.15 149.15 0 0 0 -19.9-5.5l-1.895-.379q-4.929-1.327-10.236-2.275h-.379a211.985 211.985 0 0 0 -49.851-2.464h-.569a250.148 250.148 0 0 0 -50.988 9.856l-.379.19a1.463 1.463 0 0 1 -.569.19q-4.55 1.137-9.288 2.653a246.693 246.693 0 0 1 -28.432 9.1q-7.392 1.9-14.974 3.412-3.981.759-7.961 1.327h-.19q-10.234 1.516-20.85 2.085a259.894 259.894 0 0 1 -52.315-1.516 247.943 247.943 0 0 1 -29.948-5.308 268.211 268.211 0 0 1 -29-8.15 1.446 1.446 0 0 1 -.569-.19q-4.359-1.516-8.529-3.032-6.445-2.465-11.373-4.739-3.981-1.706-8.151-3.412h-.568a1.457 1.457 0 0 1 -.569-.189 166.716 166.716 0 0 0 -28.243-8.909q-1.137-.191-2.085-.379a25.475 25.475 0 0 0 -3.032-.569q-3.412-.948-7.014-1.706h-.568a211.308 211.308 0 0 0 -49.851-2.464h-.379a250.3 250.3 0 0 0 -51.178 9.856l-.19.19a1.465 1.465 0 0 1 -.568.19q-4.74 1.137-9.288 2.653a275.94 275.94 0 0 1 -28.432 9.288q-7.582 1.9-15.164 3.222a52.536 52.536 0 0 1 -7.772 1.327h-.189a188.063 188.063 0 0 1 -21.04 2.275 251.173 251.173 0 0 1 -52.315-1.706 276.445 276.445 0 0 1 -29.759-5.118q-14.595-3.411-29.19-8.34a1.446 1.446 0 0 1 -.569-.19q-.948-.378-2.085-.758l30.708 68.049a3.585 3.585 0 0 1 1.137.189q14.975 3.033 29.759 4.549a250.007 250.007 0 0 0 52.315.569 187.409 187.409 0 0 0 21.04-2.654h.189a40.218 40.218 0 0 0 7.772-1.516q7.581-1.517 15.164-3.6a253.013 253.013 0 0 0 28.424-9.858q4.548-1.516 9.288-2.843a1.448 1.448 0 0 0 .568-.19l.19-.189a262.505 262.505 0 0 1 51.178-10.8h.379a211.472 211.472 0 0 1 49.851 1.327h.568q3.6.758 7.014 1.705a12.451 12.451 0 0 1 3.032.38q.948.189 2.085.379a154.4 154.4 0 0 1 28.243 8.34 1.457 1.457 0 0 0 .569.189h.568q4.17 1.516 8.151 3.223 4.928 2.085 11.373 4.549 4.17 1.326 8.529 2.843a1.457 1.457 0 0 0 .569.189 296.453 296.453 0 0 0 29 7.582 244.956 244.956 0 0 0 29.948 4.55 250.075 250.075 0 0 0 52.315.568q10.615-.757 20.85-2.464h.19l7.961-1.516q7.583-1.707 14.974-3.791a228.752 228.752 0 0 0 28.432-9.667q4.74-1.516 9.288-2.843a1.463 1.463 0 0 0 .569-.19l.379-.19a254.4 254.4 0 0 1 50.988-10.993h.569a218.862 218.862 0 0 1 49.851 1.516h.379a70.8 70.8 0 0 1 8.719 1.706z" fill="#d29353"/><path d="m612.922 857.724a52.4 52.4 0 0 1 1.9 13.268v-5.307a67.1 67.1 0 0 0 -.379-7.393q-3.413-32.034-39.426-32.033h-640.675q-26.157 0-35.066 16.869-4.738 8.91-4.739 22.557v5.686q.38-12.321 4.739-20.661 8.909-16.869 35.066-16.869h640.671q31.087 0 37.909 23.883z" fill="#3bde80"/><path d="m576.908 850.331h.38a85.536 85.536 0 0 1 10.425 1.706 9.667 9.667 0 0 0 1.895.19 160.289 160.289 0 0 1 23.314 5.5q-6.823-23.883-37.909-23.883h-640.671q-26.157 0-35.066 16.869-4.359 8.34-4.739 20.661v10.046a47.463 47.463 0 0 1 5.687 1.516 1.448 1.448 0 0 0 .568.19q14.975 4.17 29.759 6.824a282.656 282.656 0 0 0 30.518 3.6 260.094 260.094 0 0 0 53.452-.948q10.994-1.137 21.608-3.222h.19q3.981-.758 7.961-1.706 7.581-1.9 15.353-4.17a271 271 0 0 0 29.191-10.615q4.548-1.705 9.477-3.222a1.462 1.462 0 0 0 .569-.189l.189-.19a279.615 279.615 0 0 1 52.315-12.321h.379a215.145 215.145 0 0 1 50.989 0h.568a70.978 70.978 0 0 1 7.2 1.138 25.65 25.65 0 0 1 3.033.568q.948.19 2.085.379a150.227 150.227 0 0 1 29 7.393 1.454 1.454 0 0 0 .568.189l.569-.189q4.17 1.516 8.34 3.222 4.929 1.9 11.562 3.981l8.72 2.653h.568a246.8 246.8 0 0 0 29.759 6.824 248.658 248.658 0 0 0 30.517 3.791 260.1 260.1 0 0 0 53.453-.948q10.994-1.137 21.419-3.222h.189q3.981-.759 8.151-1.706 7.771-1.9 15.164-4.17a271.121 271.121 0 0 0 29.19-10.615q4.738-1.706 9.477-3.222a1.446 1.446 0 0 0 .569-.19l.379-.189a280.1 280.1 0 0 1 52.126-12.321h.568a215.042 215.042 0 0 1 50.992-.002z" fill="#2ecc71"/><path d="m577.288 850.331h-.38a215.042 215.042 0 0 0 -50.988 0h-.568a280.1 280.1 0 0 0 -52.126 12.321l-.379.189a1.446 1.446 0 0 1 -.569.19q-4.738 1.517-9.477 3.222a271.121 271.121 0 0 1 -29.19 10.615q-7.393 2.274-15.164 4.17-4.17.948-8.151 1.706h-.189q-10.425 2.085-21.419 3.222a260.1 260.1 0 0 1 -53.453.948 248.658 248.658 0 0 1 -30.517-3.791 246.8 246.8 0 0 1 -29.759-6.824h-.568l-8.72-2.653q-6.633-2.085-11.562-3.981-4.17-1.705-8.34-3.222l-.569.189a1.454 1.454 0 0 1 -.568-.189 150.227 150.227 0 0 0 -29-7.393q-1.137-.189-2.085-.379a25.65 25.65 0 0 0 -3.033-.568 70.978 70.978 0 0 0 -7.2-1.138h-.568a215.145 215.145 0 0 0 -50.989 0h-.379a279.615 279.615 0 0 0 -52.315 12.321l-.189.19a1.462 1.462 0 0 1 -.569.189q-4.927 1.517-9.477 3.222a271 271 0 0 1 -29.195 10.613q-7.772 2.274-15.353 4.17-3.981.948-7.961 1.706h-.19q-10.614 2.085-21.608 3.222a260.094 260.094 0 0 1 -53.452.948 282.656 282.656 0 0 1 -30.518-3.6q-14.784-2.654-29.759-6.824a1.448 1.448 0 0 1 -.568-.19 47.463 47.463 0 0 0 -5.687-1.516v1.327a21.385 21.385 0 0 0 1.706 7.2q4.361 1.326 8.53 2.653a1.446 1.446 0 0 0 .569.19 274.159 274.159 0 0 0 29.19 7.392 272.651 272.651 0 0 0 29.759 4.36 258.5 258.5 0 0 0 52.315 0q10.8-.948 21.04-2.843h.189a76.987 76.987 0 0 0 7.772-1.517q7.581-1.706 15.164-3.791a282.745 282.745 0 0 0 28.429-10.042q4.548-1.706 9.288-3.033a1.459 1.459 0 0 0 .568-.189l.19-.19a255.7 255.7 0 0 1 51.178-11.372h.379a211.672 211.672 0 0 1 49.851.947h.568q3.6.568 7.014 1.327a25.475 25.475 0 0 1 3.032.569q.948.189 2.085.379a153.5 153.5 0 0 1 28.243 7.961 1.457 1.457 0 0 0 .569.189h.568q4.17 1.516 8.151 3.223 4.928 2.085 11.373 4.359 4.17 1.327 8.529 2.654a1.457 1.457 0 0 0 .569.189 263.757 263.757 0 0 0 29 7.393 271.272 271.272 0 0 0 29.948 4.359 258.358 258.358 0 0 0 52.315 0q10.615-.946 20.85-2.843h.19q3.981-.569 7.961-1.516 7.583-1.705 14.974-3.791a282.819 282.819 0 0 0 28.432-10.046q4.74-1.705 9.288-3.033a1.457 1.457 0 0 0 .569-.189l.379-.19a255.986 255.986 0 0 1 50.988-11.373h.569a211.887 211.887 0 0 1 49.851.948h.379q5.307.757 10.236 1.895l1.895.379a153.6 153.6 0 0 1 28.243 7.961 1.443 1.443 0 0 0 .568.19h.569q3.033 1.137 5.876 2.275a12.451 12.451 0 0 0 .379-3.033v-11.752a52.4 52.4 0 0 0 -1.9-13.268 160.289 160.289 0 0 0 -23.314-5.5 9.667 9.667 0 0 1 -1.895-.19 85.536 85.536 0 0 0 -10.417-1.703z" fill="#28b162"/><path d="m2065.188 527.1h-.569a254.407 254.407 0 0 0 -50.988 10.994l-.379.189a1.451 1.451 0 0 1 -.569.19q-4.549 1.326-9.288 2.843a228.643 228.643 0 0 1 -28.432 9.667q-7.392 2.085-14.974 3.791l-7.961 1.516h-.19q-10.236 1.705-20.85 2.464a250.007 250.007 0 0 1 -52.315-.568 245.191 245.191 0 0 1 -29.949-4.549 296.928 296.928 0 0 1 -29-7.582 1.463 1.463 0 0 1 -.569-.19q-4.359-1.516-8.53-2.843-6.444-2.465-11.373-4.549-3.979-1.707-8.15-3.223h-.569a1.454 1.454 0 0 1 -.568-.189 154.422 154.422 0 0 0 -28.243-8.34q-1.137-.19-2.085-.379a12.451 12.451 0 0 0 -3.033-.379q-3.411-.948-7.013-1.706h-.569a211.472 211.472 0 0 0 -49.851-1.327h-.379a262.52 262.52 0 0 0 -51.178 10.8l-.189.19a1.457 1.457 0 0 1 -.569.189q-4.739 1.327-9.288 2.843a252.874 252.874 0 0 1 -28.432 9.857q-7.581 2.085-15.163 3.6a40.31 40.31 0 0 1 -7.772 1.517h-.19a187.624 187.624 0 0 1 -21.039 2.653 250.075 250.075 0 0 1 -52.315-.568q-14.785-1.517-29.759-4.55a3.591 3.591 0 0 0 -1.138-.189l9.288 20.85a18.943 18.943 0 0 0 7.393 8.34 18.138 18.138 0 0 0 10.614 2.843l587.6-21.8a18.727 18.727 0 0 0 8.908-2.653 18.54 18.54 0 0 0 6.634-6.634l11.942-19.9a70.8 70.8 0 0 0 -8.719-1.706h-.379a218.862 218.862 0 0 0 -49.851-1.516m50.23-77.146h-.379a211.94 211.94 0 0 0 -49.851-.948h-.569a255.986 255.986 0 0 0 -50.988 11.373l-.379.19a1.462 1.462 0 0 1 -.569.189q-4.549 1.327-9.288 3.033a282.906 282.906 0 0 1 -28.432 10.046q-7.392 2.085-14.974 3.791-3.981.948-7.961 1.516h-.19q-10.236 1.9-20.85 2.844a258.5 258.5 0 0 1 -52.315 0 271.566 271.566 0 0 1 -29.949-4.36 263.9 263.9 0 0 1 -29-7.392 1.463 1.463 0 0 1 -.569-.19q-4.359-1.326-8.53-2.654-6.444-2.274-11.373-4.359-3.979-1.706-8.15-3.223h-.569a1.454 1.454 0 0 1 -.568-.189 153.519 153.519 0 0 0 -28.243-7.961q-1.137-.189-2.085-.379a25.655 25.655 0 0 0 -3.033-.569q-3.411-.757-7.013-1.327h-.569a211.672 211.672 0 0 0 -49.851-.947h-.379a255.714 255.714 0 0 0 -51.178 11.372l-.189.19a1.463 1.463 0 0 1 -.569.19q-4.739 1.326-9.288 3.032a282.57 282.57 0 0 1 -28.432 10.046q-7.581 2.085-15.163 3.791a76.764 76.764 0 0 1 -7.772 1.517h-.19q-10.234 1.895-21.039 2.843a258.5 258.5 0 0 1 -52.315 0 293.62 293.62 0 0 1 -58.95-11.752 1.443 1.443 0 0 1 -.568-.19q-4.17-1.326-8.53-2.653l6.445 14.4q1.137.38 2.085.759a1.454 1.454 0 0 0 .568.189q14.595 4.929 29.191 8.34a276.4 276.4 0 0 0 29.759 5.118 251.1 251.1 0 0 0 52.315 1.706 187.81 187.81 0 0 0 21.039-2.275h.19a52.428 52.428 0 0 0 7.772-1.327q7.581-1.326 15.163-3.222a275.782 275.782 0 0 0 28.432-9.288q4.55-1.517 9.288-2.653a1.446 1.446 0 0 0 .569-.19l.189-.189a250.254 250.254 0 0 1 51.178-9.857h.379a211.308 211.308 0 0 1 49.851 2.464h.569q3.6.759 7.013 1.706a25.655 25.655 0 0 1 3.033.569q.948.189 2.085.379a166.744 166.744 0 0 1 28.243 8.909 1.454 1.454 0 0 0 .568.189h.569q4.17 1.706 8.15 3.412 4.929 2.274 11.373 4.739 4.17 1.516 8.53 3.032a1.446 1.446 0 0 0 .569.19 268.136 268.136 0 0 0 29 8.151 247.989 247.989 0 0 0 29.949 5.307 259.892 259.892 0 0 0 52.315 1.516q10.614-.568 20.85-2.085h.19q3.98-.569 7.961-1.327 7.581-1.515 14.974-3.411a246.957 246.957 0 0 0 28.432-9.1q4.739-1.517 9.288-2.653a1.468 1.468 0 0 0 .569-.19l.379-.189a250.151 250.151 0 0 1 50.988-9.857h.569a211.985 211.985 0 0 1 49.851 2.464h.379q5.307.948 10.235 2.275l1.9.379a149.136 149.136 0 0 1 19.9 5.5l13.079-21.988a17.664 17.664 0 0 0 2.275-6.065q-2.844-1.137-5.876-2.275h-.569a1.462 1.462 0 0 1 -.569-.189 153.408 153.408 0 0 0 -28.242-7.961l-1.9-.38q-4.927-1.133-10.235-1.891z" fill="#cb8a48"/><path d="m2115.418 482.553h-.379a211.985 211.985 0 0 0 -49.851-2.464h-.569a250.151 250.151 0 0 0 -50.988 9.857l-.379.189a1.468 1.468 0 0 1 -.569.19q-4.549 1.137-9.288 2.653a246.957 246.957 0 0 1 -28.432 9.1q-7.392 1.894-14.974 3.411-3.981.759-7.961 1.327h-.19q-10.236 1.517-20.85 2.085a259.892 259.892 0 0 1 -52.315-1.516 247.989 247.989 0 0 1 -29.949-5.307 268.136 268.136 0 0 1 -29-8.151 1.446 1.446 0 0 1 -.569-.19q-4.359-1.515-8.53-3.032-6.444-2.465-11.373-4.739-3.979-1.705-8.15-3.412h-.569a1.454 1.454 0 0 1 -.568-.189 166.744 166.744 0 0 0 -28.243-8.909q-1.137-.189-2.085-.379a25.655 25.655 0 0 0 -3.033-.569q-3.411-.948-7.013-1.706h-.569a211.308 211.308 0 0 0 -49.851-2.464h-.379a250.254 250.254 0 0 0 -51.178 9.857l-.189.189a1.446 1.446 0 0 1 -.569.19q-4.739 1.137-9.288 2.653a275.782 275.782 0 0 1 -28.432 9.288q-7.581 1.9-15.163 3.222a52.428 52.428 0 0 1 -7.772 1.327h-.19a187.81 187.81 0 0 1 -21.039 2.275 251.1 251.1 0 0 1 -52.315-1.706 276.4 276.4 0 0 1 -29.759-5.118q-14.6-3.411-29.191-8.34a1.454 1.454 0 0 1 -.568-.189q-.948-.38-2.085-.759l30.706 68.048a3.591 3.591 0 0 1 1.138.189q14.973 3.033 29.759 4.55a250.075 250.075 0 0 0 52.315.568 187.624 187.624 0 0 0 21.039-2.653h.19a40.31 40.31 0 0 0 7.772-1.517q7.581-1.516 15.163-3.6a252.874 252.874 0 0 0 28.432-9.857q4.55-1.516 9.288-2.843a1.457 1.457 0 0 0 .569-.189l.189-.19a262.52 262.52 0 0 1 51.178-10.8h.379a211.472 211.472 0 0 1 49.851 1.327h.569q3.6.758 7.013 1.706a12.451 12.451 0 0 1 3.033.379q.948.189 2.085.379a154.422 154.422 0 0 1 28.243 8.34 1.454 1.454 0 0 0 .568.189h.569q4.17 1.517 8.15 3.223 4.929 2.085 11.373 4.549 4.17 1.326 8.53 2.843a1.463 1.463 0 0 0 .569.19 296.928 296.928 0 0 0 29 7.582 245.191 245.191 0 0 0 29.949 4.549 250.007 250.007 0 0 0 52.315.568q10.614-.757 20.85-2.464h.19l7.961-1.516q7.581-1.705 14.974-3.791a228.643 228.643 0 0 0 28.432-9.667q4.739-1.516 9.288-2.843a1.451 1.451 0 0 0 .569-.19l.379-.189a254.407 254.407 0 0 1 50.988-10.994h.569a218.862 218.862 0 0 1 49.851 1.516h.379a70.8 70.8 0 0 1 8.719 1.706l23.314-39.615a149.136 149.136 0 0 0 -19.9-5.5l-1.9-.379q-4.925-1.331-10.233-2.278z" fill="#d29353"/><path d="m2161.288 434.6a160.32 160.32 0 0 0 -23.314-5.5 9.6 9.6 0 0 1 -1.9-.19 85.472 85.472 0 0 0 -10.425-1.706h-.379a215.148 215.148 0 0 0 -50.988 0h-.569a280.108 280.108 0 0 0 -52.125 12.321l-.379.189a1.451 1.451 0 0 1 -.569.19q-4.739 1.517-9.477 3.222a270.922 270.922 0 0 1 -29.191 10.615q-7.392 2.274-15.163 4.17-4.172.948-8.151 1.706h-.19q-10.425 2.085-21.418 3.222a260.1 260.1 0 0 1 -53.453.948 301.07 301.07 0 0 1 -60.276-10.615h-.569l-8.719-2.653q-6.634-2.085-11.562-3.981-4.17-1.706-8.34-3.222l-.569.189a1.462 1.462 0 0 1 -.569-.189 150.161 150.161 0 0 0 -29-7.392q-1.139-.19-2.085-.38a25.65 25.65 0 0 0 -3.033-.568 70.978 70.978 0 0 0 -7.2-1.138h-.569a215.136 215.136 0 0 0 -50.988 0h-.379a279.6 279.6 0 0 0 -52.315 12.321l-.19.19a1.454 1.454 0 0 1 -.568.189q-4.929 1.517-9.478 3.222a270.693 270.693 0 0 1 -29.188 10.616q-7.772 2.275-15.353 4.17-3.981.948-7.961 1.706h-.19q-10.614 2.085-21.608 3.222a259.963 259.963 0 0 1 -53.453.948 282.668 282.668 0 0 1 -30.517-3.6q-14.784-2.654-29.759-6.824a1.443 1.443 0 0 1 -.568-.19 47.463 47.463 0 0 0 -5.687-1.516v1.327a21.385 21.385 0 0 0 1.706 7.2q4.359 1.326 8.53 2.653a1.443 1.443 0 0 0 .568.19 293.62 293.62 0 0 0 58.95 11.752 258.5 258.5 0 0 0 52.315 0q10.8-.948 21.039-2.843h.19a76.764 76.764 0 0 0 7.772-1.517q7.581-1.705 15.163-3.791a282.57 282.57 0 0 0 28.432-10.046q4.55-1.705 9.288-3.032a1.463 1.463 0 0 0 .569-.19l.189-.19a255.714 255.714 0 0 1 51.178-11.372h.379a211.672 211.672 0 0 1 49.851.947h.569q3.6.569 7.013 1.327a25.655 25.655 0 0 1 3.033.569q.948.189 2.085.379a153.519 153.519 0 0 1 28.243 7.961 1.454 1.454 0 0 0 .568.189h.569q4.17 1.516 8.15 3.223 4.929 2.085 11.373 4.359 4.17 1.327 8.53 2.654a1.463 1.463 0 0 0 .569.19 263.9 263.9 0 0 0 29 7.392 271.566 271.566 0 0 0 29.949 4.36 258.5 258.5 0 0 0 52.315 0q10.614-.948 20.85-2.844h.19q3.98-.569 7.961-1.516 7.581-1.706 14.974-3.791a282.906 282.906 0 0 0 28.432-10.046q4.739-1.706 9.288-3.033a1.462 1.462 0 0 0 .569-.189l.379-.19a255.986 255.986 0 0 1 50.987-11.374h.569a211.94 211.94 0 0 1 49.851.948h.379q5.307.759 10.235 1.895l1.9.38a153.408 153.408 0 0 1 28.242 7.961 1.462 1.462 0 0 0 .569.189h.569q3.031 1.137 5.876 2.275a12.5 12.5 0 0 0 .379-3.033v-11.749a52.443 52.443 0 0 0 -1.9-13.266z" fill="#dec898"/><path d="m2161.288 434.6q-6.823-23.883-37.909-23.883h-640.671q-26.157 0-35.066 16.869-4.361 8.34-4.739 20.661v10.046a47.463 47.463 0 0 1 5.687 1.516 1.443 1.443 0 0 0 .568.19q14.975 4.17 29.759 6.824a282.668 282.668 0 0 0 30.517 3.6 259.963 259.963 0 0 0 53.453-.948q10.993-1.137 21.608-3.222h.19q3.979-.757 7.961-1.706 7.581-1.9 15.353-4.17a270.693 270.693 0 0 0 29.19-10.615q4.549-1.705 9.478-3.222a1.454 1.454 0 0 0 .568-.189l.19-.19a279.6 279.6 0 0 1 52.315-12.321h.379a215.136 215.136 0 0 1 50.988 0h.569a70.978 70.978 0 0 1 7.2 1.138 25.65 25.65 0 0 1 3.033.568q.946.19 2.085.38a150.161 150.161 0 0 1 29 7.392 1.462 1.462 0 0 0 .569.189l.569-.189q4.17 1.516 8.34 3.222 4.928 1.9 11.562 3.981l8.719 2.653h.569a301.07 301.07 0 0 0 60.276 10.615 260.1 260.1 0 0 0 53.453-.948q10.994-1.137 21.418-3.222h.19q3.981-.759 8.151-1.706 7.77-1.9 15.163-4.17a270.922 270.922 0 0 0 29.191-10.615q4.739-1.705 9.477-3.222a1.451 1.451 0 0 0 .569-.19l.379-.189a280.108 280.108 0 0 1 52.125-12.321h.569a215.148 215.148 0 0 1 50.988 0h.379a85.472 85.472 0 0 1 10.425 1.706 9.6 9.6 0 0 0 1.9.19 160.32 160.32 0 0 1 23.313 5.498z" fill="#ecdcb8"/><path d="m2123.379 410.715q31.086 0 37.909 23.883a52.443 52.443 0 0 1 1.9 13.268v-5.307a67.345 67.345 0 0 0 -.379-7.393q-3.412-32.033-39.426-32.033h-640.675q-26.157 0-35.066 16.87-4.739 8.909-4.739 22.556v5.686q.379-12.321 4.739-20.661 8.908-16.869 35.066-16.869z" fill="#faf0da"/><path d="m1323.838 896.751q-7.392-2.274-14.785-4.928l17.628 50.8a17.92 17.92 0 0 0 6.445 8.909 18.8 18.8 0 0 0 10.235 3.791l265.367 17.059a19.209 19.209 0 0 0 11.562-3.033 18.824 18.824 0 0 0 7.393-9.477l17.059-46.629a220.332 220.332 0 0 0 -23.693-8.53 17.668 17.668 0 0 0 -2.085-.568q-5.309-1.707-10.8-3.223h-.568a250.287 250.287 0 0 0 -53.074-6.823h-.568a277.849 277.849 0 0 0 -54.4 5.117l-.379.19a1.468 1.468 0 0 1 -.569.19q-3.981.569-8.151 1.326a13.541 13.541 0 0 0 -1.706.569 259.586 259.586 0 0 1 -30.327 6.445q-7.962 1.326-16.112 2.085l-8.34.758h-.189q-11 .379-22.367.189a283.487 283.487 0 0 1 -55.727-6.444 324.15 324.15 0 0 1 -31.844-7.772m-21.608-48.9a1.457 1.457 0 0 1 -.569-.189l-9.1-2.654 6.255 17.628q1.326.379 2.843.948a1.457 1.457 0 0 0 .569.189 316.065 316.065 0 0 0 31.085 8.53 310.923 310.923 0 0 0 31.844 5.5 285.249 285.249 0 0 0 55.727 2.085q11.373-.568 22.367-1.9h.19q4.17-.568 8.34-1.327 8.149-1.326 16.111-3.222a305.218 305.218 0 0 0 30.328-8.909 13.469 13.469 0 0 1 1.706-.568q4.17-1.139 8.15-2.085a1.463 1.463 0 0 0 .569-.19l.379-.189a290.028 290.028 0 0 1 54.4-9.288h.571a239.815 239.815 0 0 1 53.073 2.843h.569q5.5.948 10.8 2.274a17.582 17.582 0 0 1 2.085.569 176.432 176.432 0 0 1 30.138 9.1 1.446 1.446 0 0 0 .569.19h.189l7.961-21.988a16.428 16.428 0 0 0 .948-3.98q-3.981-1.706-8.53-3.222h-.568a1.463 1.463 0 0 1 -.569-.19 173.391 173.391 0 0 0 -30.138-7.961q-1.137-.189-2.085-.379-5.307-1.137-10.8-1.895h-.569a239.931 239.931 0 0 0 -53.073-.948h-.569a287.965 287.965 0 0 0 -54.4 11.373l-.379.189a1.446 1.446 0 0 1 -.569.19q-3.979 1.137-8.15 2.464a13.469 13.469 0 0 0 -1.706.568 315.143 315.143 0 0 1 -30.328 10.047q-7.96 2.085-16.111 3.791-4.17.947-8.34 1.516h-.19q-10.993 1.894-22.367 2.843a293.235 293.235 0 0 1 -55.727 0 328.97 328.97 0 0 1 -62.929-11.752z" fill="#cb8a48"/><path d="m1302.23 863.77a1.457 1.457 0 0 1 -.569-.189q-1.516-.57-2.843-.948l10.235 29.19q7.393 2.654 14.785 4.928a324.15 324.15 0 0 0 31.844 7.772 283.487 283.487 0 0 0 55.727 6.444q11.373.191 22.367-.189h.189l8.34-.758q8.151-.759 16.112-2.085a259.586 259.586 0 0 0 30.327-6.445 13.541 13.541 0 0 1 1.706-.569q4.17-.757 8.151-1.326a1.468 1.468 0 0 0 .569-.19l.379-.19a277.849 277.849 0 0 1 54.4-5.117h.568a250.287 250.287 0 0 1 53.074 6.823h.568q5.5 1.516 10.8 3.223a17.668 17.668 0 0 1 2.085.568 220.332 220.332 0 0 1 23.693 8.53l16.68-46.06h-.189a1.446 1.446 0 0 1 -.569-.19 176.432 176.432 0 0 0 -30.138-9.1 17.582 17.582 0 0 0 -2.085-.569q-5.307-1.326-10.8-2.274h-.569a239.815 239.815 0 0 0 -53.067-2.841h-.569a290.028 290.028 0 0 0 -54.4 9.288l-.379.189a1.463 1.463 0 0 1 -.569.19q-3.979.948-8.15 2.085a13.469 13.469 0 0 0 -1.706.568 305.218 305.218 0 0 1 -30.328 8.909q-7.96 1.9-16.111 3.222-4.17.759-8.34 1.327h-.19q-10.993 1.327-22.367 1.9a285.249 285.249 0 0 1 -55.727-2.085 310.923 310.923 0 0 1 -31.844-5.5 316.065 316.065 0 0 1 -31.09-8.531z" fill="#d29353"/><path d="m1291.615 823.965v5.687a14.285 14.285 0 0 0 1.137 5.686q4.739 1.327 9.478 2.464a1.46 1.46 0 0 0 .568.19 313.427 313.427 0 0 0 32.034 6.634q16.491 2.465 32.792 3.412a312.632 312.632 0 0 0 57.622-1.517 222.31 222.31 0 0 0 22.935-3.412h.19a70.618 70.618 0 0 0 8.719-1.706q8.34-1.895 16.68-4.17a318.518 318.518 0 0 0 31.275-10.993 13.381 13.381 0 0 1 1.706-.569q4.361-1.326 8.34-2.654a1.457 1.457 0 0 0 .569-.189l.569-.19a309.018 309.018 0 0 1 56.106-12.889h.568a248.34 248.34 0 0 1 54.78-.379h.568q5.687.568 11.184 1.516.948.191 2.085.379a198.187 198.187 0 0 1 27.863 6.066q-5.687-26.916-38.668-26.916h-299.485q-36.961 0-39.615 33.55z" fill="#ecdcb8"/><path d="m1291.425 826.429v12.7a15.689 15.689 0 0 0 1.138 5.876l9.1 2.654a1.457 1.457 0 0 0 .569.189 328.97 328.97 0 0 0 62.929 11.752 293.235 293.235 0 0 0 55.727 0q11.373-.948 22.367-2.843h.19q4.17-.568 8.34-1.516 8.149-1.707 16.111-3.791a315.143 315.143 0 0 0 30.328-10.047 13.469 13.469 0 0 1 1.706-.568q4.17-1.327 8.15-2.464a1.446 1.446 0 0 0 .569-.19l.379-.189a287.965 287.965 0 0 1 54.4-11.373h.572a239.931 239.931 0 0 1 53.073.948h.569q5.5.757 10.8 1.895.948.189 2.085.379a173.391 173.391 0 0 1 30.138 7.961 1.463 1.463 0 0 0 .569.19h.568q4.55 1.517 8.53 3.222a12.794 12.794 0 0 0 .189-2.085v-11.562a63.313 63.313 0 0 0 -1.137-10.236 198.187 198.187 0 0 0 -27.863-6.066q-1.137-.189-2.085-.379-5.5-.947-11.184-1.516h-.568a248.34 248.34 0 0 0 -54.78.379h-.568a309.018 309.018 0 0 0 -56.106 12.889l-.569.19a1.457 1.457 0 0 1 -.569.189q-3.979 1.327-8.34 2.654a13.381 13.381 0 0 0 -1.706.569 318.518 318.518 0 0 1 -31.275 10.993q-8.34 2.276-16.68 4.17a70.618 70.618 0 0 1 -8.719 1.706h-.19a222.31 222.31 0 0 1 -22.935 3.412 312.632 312.632 0 0 1 -57.622 1.517q-16.3-.948-32.792-3.412a313.427 313.427 0 0 1 -32.034-6.634 1.46 1.46 0 0 1 -.568-.19q-4.74-1.137-9.478-2.464a14.285 14.285 0 0 1 -1.137-5.686v-5.687a19.975 19.975 0 0 0 -.191 2.464z" fill="#dec898"/><path d="m1291.615 817.9q-.189 2.085-.19 4.359v4.17a19.975 19.975 0 0 1 .19-2.464q2.654-33.549 39.615-33.55h299.485q32.982 0 38.668 26.916a63.313 63.313 0 0 1 1.137 10.236v-9.857q-2.274-34.877-39.805-34.877h-299.485q-36.014 0-39.425 32.223v1.706a3.565 3.565 0 0 0 -.19 1.138z" fill="#faf0da"/><path d="m753.848 583.39 18.078-4.992v-5.398l-18.078 4.992a4.958 4.958 0 0 0 -3.238 2.428h-.134a5.006 5.006 0 0 0 -.54 3.912 2.417 2.417 0 0 0 .674 1.349 5.077 5.077 0 0 1 3.238-2.293m105.633-19.966.134-.4a6.143 6.143 0 0 0 .54-3.1 6.538 6.538 0 0 0 -.674-1.754l-.81-1.079a5.123 5.123 0 0 0 -2.833-1.484l-19.831-3.912-4.722-41.282a5.659 5.659 0 0 0 -1.349-2.968 5.223 5.223 0 0 0 -2.7-1.619 4.116 4.116 0 0 0 -3.1.135 4.948 4.948 0 0 0 -2.563 1.889l-23.744 33.187-33.457-11.737a4.875 4.875 0 0 0 -4.047.135 4.721 4.721 0 0 0 -2.563 2.159l-.27.539a5.26 5.26 0 0 0 0 4.048l.27.809a4.6 4.6 0 0 1 2.563-2.293 4.868 4.868 0 0 1 4.047-.135l33.457 11.737 23.744-33.053a4.941 4.941 0 0 1 2.563-1.888 4.106 4.106 0 0 1 3.1-.135 5.216 5.216 0 0 1 2.7 1.619 5.652 5.652 0 0 1 1.349 2.968l4.722 41.281 19.831 3.778a5.11 5.11 0 0 1 2.833 1.484z" fill="#2bc26a"/><path d="m858.671 562.345a5.11 5.11 0 0 0 -2.833-1.484l-19.831-3.778-4.722-41.283a5.652 5.652 0 0 0 -1.349-2.968 5.216 5.216 0 0 0 -2.7-1.619 4.106 4.106 0 0 0 -3.1.135 4.941 4.941 0 0 0 -2.563 1.888l-23.744 33.053-33.457-11.737a4.868 4.868 0 0 0 -4.047.135 4.6 4.6 0 0 0 -2.563 2.293l14.164 36.02v5.4l-18.078 4.992a5.077 5.077 0 0 0 -3.238 2.293 5.347 5.347 0 0 0 1.62 1.889l19.156 12.412h70.557l17.538-36.56z" fill="#27ae60"/><path d="m411.026 812.421q-.418 8.629-.944 17.268h.27q.506-8.634.674-17.268m52.749-36.56q-.049-9.441-.54-18.887a2.265 2.265 0 0 1 -.27.135q.552 9.377.81 18.752z" fill="#2ecc71"/><path d="m388.5 703.821a18.4 18.4 0 0 1 5.261 14.165q-.27 21.18 15.784 32.377-.211-2.856-.539-5.8-15.512-11.09-15.245-31.973a18.4 18.4 0 0 0 -5.261-14.165 19.849 19.849 0 0 0 -34.4 12.547q-.21 4.141-.135 8.094.066-1.34.135-2.7a19.766 19.766 0 0 1 34.4-12.546m25.9-83.913a26.436 26.436 0 0 1 31.7 19.832 741.772 741.772 0 0 1 12.951 73.119q12.006-10.928 11.737-29.275a19.086 19.086 0 0 1 5.261-14.165 19.724 19.724 0 0 1 28.061-1.214 19.212 19.212 0 0 1 6.476 13.761q.066 1.341.134 2.563.072-3.834-.134-7.96a19.212 19.212 0 0 0 -6.476-13.76 19.722 19.722 0 0 0 -28.061 1.214 19.086 19.086 0 0 0 -5.261 14.165q.27 18.348-11.737 29.275a741.843 741.843 0 0 0 -12.951-73.12 10.816 10.816 0 0 0 -.4-1.349 26.386 26.386 0 0 0 -47.757-6.745 26.1 26.1 0 0 0 -3.1 6.745 24.468 24.468 0 0 0 -.944 9.579 25.681 25.681 0 0 1 3.238-9.579q.381-.677.809-1.349a25.315 25.315 0 0 1 16.454-11.736z" fill="#2bc26a"/><path d="m434.365 623.281a25.628 25.628 0 0 0 -19.966-3.373 25.315 25.315 0 0 0 -16.459 11.737q-.428.672-.809 1.349a25.681 25.681 0 0 0 -3.238 9.579 34.581 34.581 0 0 0 .675 3.642 657.094 657.094 0 0 1 14.974 98.752c-.15-.105-.33-.239-.539-.4q.329 2.946.539 5.8-16.054-11.2-15.784-32.377a18.4 18.4 0 0 0 -5.261-14.165 19.848 19.848 0 0 0 -34.4 12.546q-.069 1.358-.135 2.7 1.424 51.886 57.336 70.691v5.4l-.27 17.268q-.168 8.634-.674 17.268h52.746q.486-8.767.81-17.538l-.135-36.29q-.258-9.375-.81-18.752a2.265 2.265 0 0 0 .27-.135q-.115-2.625-.27-5.261 46.455-19.8 47.757-67.184-.066-1.221-.134-2.563a19.212 19.212 0 0 0 -6.476-13.761 19.724 19.724 0 0 0 -28.061 1.214 19.086 19.086 0 0 0 -5.261 14.165q.27 18.348-11.737 29.275a741.772 741.772 0 0 0 -12.953-73.128 26.344 26.344 0 0 0 -11.737-16.459z" fill="#27ae60"/><path d="m91.1 799.179a5.314 5.314 0 0 0 -1.632 3.515 5.638 5.638 0 0 0 1.632 3.388l18.952 18.953a4.769 4.769 0 0 0 2.636 1.381 4.742 4.742 0 0 0 5.146-2.636 5.078 5.078 0 0 0 .251-2.762l-2.134-12.676 10.543-6.652a69.378 69.378 0 0 1 -24.475-13.305zm111.078 24.852a5.646 5.646 0 0 0 3.389-1.632l18.952-18.952a4.769 4.769 0 0 0 1.381-2.636 4.742 4.742 0 0 0 -2.636-5.146 5.066 5.066 0 0 0 -2.761-.251l-12.677 2.134-3.389-5.523a54.818 54.818 0 0 1 -25.1 11.171l19.454 19.329a4.683 4.683 0 0 0 3.383 1.506z" fill="#b67b3f"/><path d="m144.689 790.142a5.41 5.41 0 0 0 2.009-2.133 4.365 4.365 0 0 0 .251-2.887 4.5 4.5 0 0 0 -1.256-2.51l-15.563-15.564a5.221 5.221 0 0 0 -3.514-1.506 4.289 4.289 0 0 0 -3.264 1.506l-21.337 21.337a69.378 69.378 0 0 0 24.475 13.305l18.2-11.548m42.674-23.219a3.606 3.606 0 0 0 -2.761-.377 4.5 4.5 0 0 0 -2.51 1.255l-15.564 15.564a5.221 5.221 0 0 0 -1.506 3.514 5.58 5.58 0 0 0 1.506 3.514l12.8 12.8a54.818 54.818 0 0 0 25.1-11.171l-14.81-23.22a4.464 4.464 0 0 0 -2.256-1.879z" fill="#a66c32"/><path d="m166.277 744.582q-11.17 3.389-20.333 13.429-8.785 9.664-13.806 40.917a93.522 93.522 0 0 0 23.722 2.887q21.588 0 38.783-8.409 2.762-1.381 5.4-2.887 2.636-1.632 5.146-3.263 2.008-1.506 4.017-3.138a77.653 77.653 0 0 0 6.652-5.9q-4.644-10.92-8.284-19.329-10.294-16.566-29.247-15.689a33.6 33.6 0 0 0 -12.05 1.381m-85.85-12.175v2.385q.753-38.408 22.09-65.894 22.091-28.491 53.343-28.491t53.34 28.494q21.336 27.487 22.09 66.019v-2.51q0-40.164-22.09-68.53-22.09-28.491-53.343-28.491t-53.343 28.491q-22.086 28.365-22.087 68.528z" fill="#c98c4f"/><path d="m80.427 741.569q0 1.255.126 2.636 1 23.094 21.964 39.913a85.089 85.089 0 0 0 9.288 6.527q2.635 1.38 5.4 2.761a74 74 0 0 0 14.936 5.522q5.02-31.253 13.806-40.917 9.164-10.039 20.333-13.429a33.6 33.6 0 0 1 12.05-1.381q18.951-.879 29.244 15.689 3.639 8.409 8.284 19.329 14.559-14.936 15.438-34.014v-4.142a16.111 16.111 0 0 0 -.126-2.008q.126-1.632.126-3.138-.753-38.532-22.09-66.019-22.09-28.491-53.343-28.491t-53.346 28.493q-21.336 27.487-22.09 65.894 0 1.63.126 3.263a16.111 16.111 0 0 0 -.126 2.008z" fill="#b67b3f"/><path d="m138.037 590.955q-7.029 8.535-7.656 21.462.126 1.506.251 3.138 1.756 18.45 9.162 32.006 7.405 13.429 14.685 13.429t9.916-13.931a167.281 167.281 0 0 0 2.636-26.734v-5.025a124.424 124.424 0 0 0 -2.631-24.22q-2.636-11.421-9.916-11.421t-16.442 11.3m13.179 10.292a6.36 6.36 0 0 1 1.255-.126q4.142 0 5.648 6.4a81.4 81.4 0 0 1 1.381 16.442 101.954 101.954 0 0 1 -1.381 17.7q-1.506 7.906-5.648 7.907a6.36 6.36 0 0 1 -1.255-.126q-3.389-1.129-7.029-7.4a46.965 46.965 0 0 1 -5.146-17.948q-1-10.418 4.268-16.568 4.386-5.407 7.902-6.285z" fill="#b67b3f"/><path d="m152.471 601.121a6.36 6.36 0 0 0 -1.255.126q-3.515.878-7.907 6.275-5.272 6.15-4.268 16.568a46.965 46.965 0 0 0 5.146 17.948q3.64 6.276 7.029 7.4a6.36 6.36 0 0 0 1.255.126q4.142 0 5.648-7.907a101.954 101.954 0 0 0 1.381-17.7 81.4 81.4 0 0 0 -1.381-16.442q-1.506-6.393-5.648-6.394z" fill="#aa7136"/><path d="m138.037 585.934q-8.409 10.167-7.656 26.483.627-12.927 7.656-21.462 9.162-11.3 16.442-11.3t9.921 11.425a124.424 124.424 0 0 1 2.636 24.224q0-17.823-2.636-29.244t-9.916-11.422q-7.284 0-16.447 11.296z" fill="#c98c4f"/><path d="m185.857 601.623a3.71 3.71 0 0 0 -.878-.125q-3.765-.126-5.021 6.275a99.1 99.1 0 0 0 -1.129 16.442 124.233 124.233 0 0 0 1.129 17.7q1.255 7.906 5.021 8.032a3.659 3.659 0 0 0 .878-.125q2.888-1 5.774-6.527a136.962 136.962 0 0 0 4.644-26.608 21.621 21.621 0 0 0 -3.389-8.661q-3.765-5.399-7.029-6.403z" fill="#aa7136"/><path d="m180.586 579.659q-4.77 0-6.527 11.421-1.129 7.405-1.631 17.321l-.126 6.9v5.021a248.381 248.381 0 0 0 1.757 26.734q1.758 13.932 6.527 13.931t9.664-13.429q.753-2.135 1.381-4.268-2.888 5.523-5.774 6.527a3.659 3.659 0 0 1 -.878.125q-3.765-.125-5.021-8.032a124.233 124.233 0 0 1 -1.129-17.7 99.1 99.1 0 0 1 1.129-16.442q1.255-6.4 5.021-6.275a3.71 3.71 0 0 1 .878.125q3.264 1 7.029 6.4a21.621 21.621 0 0 1 3.389 8.661v-1.13q0-1.632.125-3.138-.376-12.927-5.02-21.462-6.024-11.29-10.794-11.29z" fill="#b67b3f"/><path d="m174.059 591.08q1.758-11.421 6.527-11.421t10.794 11.3q4.644 8.535 5.02 21.462.5-16.316-5.02-26.483-6.024-11.295-10.794-11.3t-6.527 11.422a175.633 175.633 0 0 0 -1.631 22.341q.501-9.915 1.631-17.321z" fill="#c98c4f"/><path d="m157.492 689.607a19.7 19.7 0 1 0 5.773 13.932 18.985 18.985 0 0 0 -5.773-13.932m59.869 27.864a19.7 19.7 0 1 0 -13.932 5.773 18.985 18.985 0 0 0 13.932-5.773z" fill="#c98c4f"/><path d="m182.092 713.706a3.189 3.189 0 0 0 -2.761 0 3.418 3.418 0 0 0 -1.883 2.008 4.684 4.684 0 0 1 -.879 1.506h-.125a4.243 4.243 0 0 1 -6.025 0 3.52 3.52 0 0 1 -.878-1.381v-.125a3.459 3.459 0 0 0 -1.883-1.883 3.176 3.176 0 0 0 -2.761-.251 3.008 3.008 0 0 0 -1.883 1.883 3.209 3.209 0 0 0 -.125 2.635 10.787 10.787 0 0 0 10.543 7.406 10.914 10.914 0 0 0 8.032-3.264 13.314 13.314 0 0 0 2.636-4.016 3.212 3.212 0 0 0 -.125-2.636v-.125a3.508 3.508 0 0 0 -1.883-1.757m-26.358-14.183a9.213 9.213 0 0 0 -6.777-2.762 9.43 9.43 0 0 0 -9.414 9.414 9.215 9.215 0 0 0 2.762 6.778 9.068 9.068 0 0 0 6.652 2.761 9.431 9.431 0 0 0 9.539-9.539 9.067 9.067 0 0 0 -2.762-6.652m42.172 16.191a9.072 9.072 0 0 0 6.653-2.761 9.218 9.218 0 0 0 2.761-6.778 9.428 9.428 0 0 0 -9.414-9.414 9.214 9.214 0 0 0 -6.777 2.762 9.066 9.066 0 0 0 -2.761 6.652 9.429 9.429 0 0 0 9.538 9.539z" fill="#482c11"/><path d="m161.884 668.019a6.409 6.409 0 0 0 -4.769-1.129 6.093 6.093 0 0 0 -4.142 2.51 6.269 6.269 0 0 0 -1.381 4.895 6.647 6.647 0 0 0 2.762 4.267 5.48 5.48 0 0 0 4.769 1.13 6.234 6.234 0 0 0 4.142-2.51 7.114 7.114 0 0 0 1.255-4.77 7.316 7.316 0 0 0 -2.636-4.393m-6.4-8.66a4.414 4.414 0 0 0 1.883 3.012 4.783 4.783 0 0 0 3.64 1 4.887 4.887 0 0 0 3.138-1.882 5.065 5.065 0 0 0 -1-6.9 5.077 5.077 0 0 0 -3.64-.878 5.408 5.408 0 0 0 -3.264 1.882 5.024 5.024 0 0 0 -.753 3.766m14.309-.251a9.083 9.083 0 0 0 -1.506 6.526 7.8 7.8 0 0 0 3.388 5.523 8.4 8.4 0 0 0 6.4 1.632 9.341 9.341 0 0 0 5.522-3.515 8.013 8.013 0 0 0 1.629-6.274 8.43 8.43 0 0 0 -9.79-7.28 9.3 9.3 0 0 0 -5.648 3.388z" fill="#a66c32"/><path d="m1124.773 527.678-2.113-5.863a95.336 95.336 0 0 1 -19.077 17.1l6.214 10.555a5.2 5.2 0 0 0 2.872 2.428 5.644 5.644 0 0 0 3.69-.73l23.1-13.6a4.763 4.763 0 0 0 2-2.206 4.742 4.742 0 0 0 -1.262-5.643 5.064 5.064 0 0 0 -2.61-.934z" fill="#bc71e0"/><path d="m1088.351 503.6a5.216 5.216 0 0 0 -2.339 3.025 5.456 5.456 0 0 0 .609 3.658l16.962 28.634a95.336 95.336 0 0 0 19.077-17.1l-8.3-26.523a4.462 4.462 0 0 0 -1.716-2.389 3.6 3.6 0 0 0 -2.578-1.056 4.5 4.5 0 0 0 -2.745.586z" fill="#ac58d2"/><path d="m1022.068 490.2a5.219 5.219 0 0 0 -.578-3.78l-11.077-18.814a4.269 4.269 0 0 0 -2.205-2 3.6 3.6 0 0 0 -2.768-.327 4.461 4.461 0 0 0 -2.659 1.256l-20.129 19.164a95.8 95.8 0 0 0 8.474 24.363l28.725-16.809a5.04 5.04 0 0 0 2.217-3.053z" fill="#ac58d2"/><path d="m959.645 488.436a4.765 4.765 0 0 0 .677 2.9l13.6 23.1a5.649 5.649 0 0 0 2.872 2.429 4.818 4.818 0 0 0 3.78-.578l10.554-6.214a95.8 95.8 0 0 1 -8.474-24.363l-4.57 4.132-11.859-5.273a5.056 5.056 0 0 0 -2.736-.449 4.927 4.927 0 0 0 -2.754 1.621 3.77 3.77 0 0 0 -1.09 2.695z" fill="#bc71e0"/><path d="m1134.284 489.43.629-2.43q10.065-38.883-4.213-71.879-14.246-33.117-44.5-40.949t-58.78 14.216q-28.494 21.924-38.558 60.807l-.6 2.309q10.353-36.993 37.9-58.256 28.524-22.047 58.78-14.216t44.5 40.949q13.769 31.957 4.842 69.449m-48.723 12.929q-8.517-19.188-26.379-23.812t-34.618 8.023a61.125 61.125 0 0 0 -19.919 26.868q2.205 2 4.532 4.025 14.539 12.45 35.318 17.828 20.9 5.41 39.653 1.578 3.018-.645 5.948-1.443.167-1.643.332-3.285a60.823 60.823 0 0 0 -4.867-29.782z" fill="#cc83ee"/><path d="m1059.182 478.547q17.862 4.623 26.379 23.812a60.823 60.823 0 0 1 4.867 29.782q-.167 1.643-.332 3.285 2.961-.918 5.8-1.869 2.322-.956 4.675-2.032 24.505-11.029 31.387-33.1l.66-2.551.378-1.458a16.18 16.18 0 0 0 .381-1.976q.531-1.548.908-3.006 8.926-37.493-4.842-69.449-14.245-33.117-44.5-40.949t-58.78 14.216q-27.545 21.264-37.9 58.256-.408 1.579-.7 3.191a16.166 16.166 0 0 0 -.625 1.912l-.377 1.458q-.315 1.215-.539 2.583-4.815 22.609 11.262 44.144a84.934 84.934 0 0 0 7.357 8.646 61.125 61.125 0 0 1 19.919-26.868q16.76-12.65 34.622-8.027z" fill="#bc71e0"/><path d="m1090.983 329.644q.311-11.716-6.737-13.541t-18.748 6.815q-8.945 6.5-12.791 18.859-.255 1.489-.543 3.1-2.922 18.3.85 33.28 3.8 14.857 10.851 16.682t13.091-11a167.121 167.121 0 0 0 9.25-25.221l.944-3.645.157-.608.157-.607a124.333 124.333 0 0 0 3.519-24.112m-10.2 14.345a81.462 81.462 0 0 1 -2.783 16.262 101.952 101.952 0 0 1 -5.772 16.786q-3.438 7.278-7.449 6.24a6.379 6.379 0 0 1 -1.183-.436q-3-1.943-4.949-8.93a46.939 46.939 0 0 1 -.484-18.665q1.638-10.336 8.282-14.97 5.605-4.124 9.228-4.094a6.38 6.38 0 0 1 1.246.193q4.011 1.038 3.864 7.612m35.294-19.646q-7.048-1.824-12.461 8.572a124.273 124.273 0 0 0 -8.616 22.791l-.157.607-.158.608q-.158.608-.314 1.215-.315 1.215-.629 2.43a167.2 167.2 0 0 0 -4.148 26.542q-.939 14.148 6.108 15.972t17.582-9.322q10.566-11.266 16.89-28.688.531-1.548 1.029-2.975 2.632-12.672-2.033-22.7-6.04-13.233-13.087-15.056m-2.129 21.748q3.182 1.731 6.082 8.057 3.32 7.212-.142 17.077a46.939 46.939 0 0 1 -9.479 16.086q-4.974 5.195-8.538 5.439a6.39 6.39 0 0 1 -1.247-.193q-4.009-1.038-3.486-9.07a101.973 101.973 0 0 1 3.1-17.479 81.432 81.432 0 0 1 5.456-15.571q3.063-5.82 7.072-4.782a6.388 6.388 0 0 1 1.18.44z" fill="#bc71e0"/><path d="m1078 360.253a81.462 81.462 0 0 0 2.783-16.264q.147-6.574-3.864-7.612a6.38 6.38 0 0 0 -1.246-.193q-3.622-.03-9.228 4.094-6.644 4.634-8.282 14.97a46.939 46.939 0 0 0 .484 18.665q1.951 6.987 4.949 8.93a6.379 6.379 0 0 0 1.183.436q4.01 1.038 7.449-6.24a101.952 101.952 0 0 0 5.772-16.786m42.03-6.1q-2.9-6.326-6.082-8.057a6.388 6.388 0 0 0 -1.184-.436q-4.01-1.038-7.072 4.782a81.432 81.432 0 0 0 -5.456 15.571 101.973 101.973 0 0 0 -3.1 17.479q-.524 8.032 3.486 9.07a6.39 6.39 0 0 0 1.247.193q3.563-.245 8.538-5.439a46.939 46.939 0 0 0 9.479-16.086q3.468-9.87.148-17.082z" fill="#ac58d2"/><path d="m1092.241 324.784q.311-11.718-6.737-13.542t-18.748 6.816q-10.689 7.734-14.049 23.719 3.847-12.357 12.791-18.859 11.7-8.64 18.748-6.815t6.737 13.541a124.333 124.333 0 0 1 -3.519 24.112q4.467-17.255 4.777-28.972m11.379 8.131q5.414-10.4 12.461-8.572t13.087 15.056q4.665 10.023 2.033 22.7 4.818-15.608-.775-27.557-6.041-13.232-13.087-15.056t-12.461 8.573q-5.415 10.4-9.88 27.651a124.273 124.273 0 0 1 8.622-22.795z" fill="#cc83ee"/><path d="m1050.2 449.644a19.7 19.7 0 1 0 -14.934 2.1 18.985 18.985 0 0 0 14.934-2.1m57.959 15a19.7 19.7 0 1 0 -14.934 2.1 18.985 18.985 0 0 0 14.932-2.098z" fill="#cc83ee"/><path d="m1056.048 449.083a3.213 3.213 0 0 0 -.782 2.521 10.787 10.787 0 0 0 8.351 9.811 10.92 10.92 0 0 0 8.594-1.147 13.308 13.308 0 0 0 3.558-3.227 3.209 3.209 0 0 0 .539-2.584l.032-.121a3.511 3.511 0 0 0 -1.383-2.173 3.194 3.194 0 0 0 -2.673-.692 3.425 3.425 0 0 0 -2.326 1.472 4.685 4.685 0 0 1 -1.228 1.238l-.121-.031a4.242 4.242 0 0 1 -5.832-1.51 3.508 3.508 0 0 1 -.505-1.556l.031-.122a3.453 3.453 0 0 0 -1.35-2.294 3.177 3.177 0 0 0 -2.611-.935 3.006 3.006 0 0 0 -2.294 1.35m-1.926-10.092a9.067 9.067 0 0 0 -1.006-7.132 9.215 9.215 0 0 0 -5.869-4.371l-.486-.126-.243-.063a23.284 23.284 0 0 1 -9.159-4.186 1.331 1.331 0 0 0 -1.094-.283.9.9 0 0 0 -.976.266 1.836 1.836 0 0 0 -.648 1q-1.441 5.073 1.664 8.6a9.942 9.942 0 0 0 -.53 1.548 9.213 9.213 0 0 0 .975 7.253 9.061 9.061 0 0 0 5.748 4.34 9.427 9.427 0 0 0 11.624-6.844m52.253 1.987a1.325 1.325 0 0 0 -1.093-.283 23.284 23.284 0 0 1 -10.04-.784l-.243-.063-.486-.126a9.213 9.213 0 0 0 -7.253.975 9.066 9.066 0 0 0 -4.34 5.748 9.431 9.431 0 0 0 6.844 11.625 9.071 9.071 0 0 0 7.132-1.006 9.217 9.217 0 0 0 4.371-5.87 9.941 9.941 0 0 0 .288-1.611q4.427-1.577 5.626-6.711a1.836 1.836 0 0 0 -.081-1.188.9.9 0 0 0 -.725-.708z" fill="#4e2d5d"/><path d="m1067.369 401.84a6.1 6.1 0 0 0 -4.639 1.392 6.268 6.268 0 0 0 -2.563 4.393 6.643 6.643 0 0 0 1.6 4.823 5.479 5.479 0 0 0 4.334 2.289 6.237 6.237 0 0 0 4.639-1.392 7.117 7.117 0 0 0 2.41-4.3 7.317 7.317 0 0 0 -1.451-4.913 6.406 6.406 0 0 0 -4.334-2.289m9.919-6.767a4.389 4.389 0 0 0 -1-3.631 5.083 5.083 0 0 0 -3.3-1.763 5.412 5.412 0 0 0 -3.631 1.005 5.023 5.023 0 0 0 -1.673 3.457 4.419 4.419 0 0 0 1.068 3.388 4.792 4.792 0 0 0 3.272 1.884 4.889 4.889 0 0 0 3.51-1.037 4.394 4.394 0 0 0 1.762-3.3m16.44 3.607a8.679 8.679 0 0 0 -5.82-3.062 9.293 9.293 0 0 0 -6.317 1.865 9.088 9.088 0 0 0 -3.093 5.941 7.8 7.8 0 0 0 1.9 6.2 8.4 8.4 0 0 0 5.788 3.183 9.346 9.346 0 0 0 6.227-2.018 8.014 8.014 0 0 0 3.153-5.667 8.662 8.662 0 0 0 -1.842-6.448z" fill="#ac58d2"/><path d="m1066.193 385.848a7.082 7.082 0 0 0 2.108-4.64 5.86 5.86 0 0 0 -1.7-4.459.511.511 0 0 0 -.333-.216 17.746 17.746 0 0 0 -5.266-3.7 32.415 32.415 0 0 0 4.719-3.706 1.455 1.455 0 0 0 .337-.3 5.858 5.858 0 0 0 1.528-4.4 7.071 7.071 0 0 0 -2.153-4.706 6.62 6.62 0 0 0 -4.671-1.987 5.6 5.6 0 0 0 -4.427 1.577 1.457 1.457 0 0 1 -.338.3 28.432 28.432 0 0 0 -3.6 4.9 18.944 18.944 0 0 0 -3.67-5.358.963.963 0 0 0 -.333-.216 5.547 5.547 0 0 0 -4.523-1.559 6.556 6.556 0 0 0 -4.553 2.063 7.343 7.343 0 0 0 -2.14 4.761 5.865 5.865 0 0 0 1.7 4.459.973.973 0 0 1 .333.216 19.924 19.924 0 0 0 5.356 3.849 21.636 21.636 0 0 0 -4.931 3.521.361.361 0 0 1 -.184.212 5.551 5.551 0 0 0 -1.56 4.523 7.091 7.091 0 0 0 2.185 4.584 7.608 7.608 0 0 0 4.608 2.23 6.31 6.31 0 0 0 4.49-1.819.363.363 0 0 0 .185-.212 29.639 29.639 0 0 0 3.571-4.78 22.89 22.89 0 0 0 3.822 5.268.511.511 0 0 1 .333.215 5.546 5.546 0 0 0 4.523 1.56 7.1 7.1 0 0 0 4.585-2.184m-9.385-17.339a5.339 5.339 0 0 1 1.64 4.185 5.69 5.69 0 0 1 -1.587 4.127 5.782 5.782 0 0 1 -4.216 1.761 5.227 5.227 0 0 1 -3.974-1.677 5.886 5.886 0 0 1 -1.792-4.095 5.715 5.715 0 0 1 1.74-4.217 5.425 5.425 0 0 1 4.062-1.671 5.691 5.691 0 0 1 4.126 1.591z" fill="#fff"/><path d="m1058.448 372.694a5.339 5.339 0 0 0 -1.64-4.185 5.691 5.691 0 0 0 -4.127-1.587 5.425 5.425 0 0 0 -4.062 1.671 5.715 5.715 0 0 0 -1.74 4.217 5.886 5.886 0 0 0 1.792 4.095 5.227 5.227 0 0 0 3.974 1.677 5.782 5.782 0 0 0 4.216-1.761 5.69 5.69 0 0 0 1.587-4.127z" fill="#fc0"/><path d="m766.427 240.42a11.376 11.376 0 0 0 3.347-5.843l.218-.966q5.408-23.988-7.759-44.381a60.213 60.213 0 0 0 -3.85-5.436 53.637 53.637 0 0 1 -8.352 9.283 49.928 49.928 0 0 1 3.476 4.844q12.993 19.679 7.763 42.859l-.218.966-.217.966a10 10 0 0 0 5.592-2.292m-375.198-144.978a91.758 91.758 0 0 0 -11.25 8.629q7.425 24.852 41.7 50.679 50.932 38.212 130.945 56.25t142.256 5.34q37.06-7.548 55.151-23.263-12.607-15.361-32.841-19.415a17.326 17.326 0 0 0 -2.451-.383 81.8 81.8 0 0 0 -.536-17.885 80.758 80.758 0 0 0 -12.859-33.012q-19.261-29.382-54.611-36.165-4.545-.855-9.161-1.388a81.794 81.794 0 0 0 -10.826-24.771l-.036.161a79.4 79.4 0 0 0 -17.538-19.011 77.069 77.069 0 0 0 -32.679-14.134 81.163 81.163 0 0 0 -36.968 1.14 83.209 83.209 0 0 0 -23.411 10.794l-.161-.036a77.706 77.706 0 0 0 -8.5 6.2 71.153 71.153 0 0 0 -9.785 9.637 52.228 52.228 0 0 0 -8.226-2.532 43.77 43.77 0 0 0 -33.549 6.986 42.172 42.172 0 0 0 -18.437 23.25l-.161-.036q-24.412-1.273-46.062 12.962m-13.248-6.539q-17.163 16.1-22.606 40.246a77.267 77.267 0 0 0 -1.89 15.138 9.16 9.16 0 0 0 1 5.3 9.5 9.5 0 0 0 1.122 1.776q.477-3.615 1.311-7.318a74.748 74.748 0 0 1 23.053-39.973 44.486 44.486 0 0 1 -1.99-15.169z" fill="#e3f1f3"/><path d="m390.527 79.043a87.051 87.051 0 0 0 -12.542 9.857 44.486 44.486 0 0 0 1.994 15.167 91.758 91.758 0 0 1 11.25-8.629q21.649-14.236 46.062-12.962l.161.036a42.172 42.172 0 0 1 18.437-23.25 43.77 43.77 0 0 1 33.549-6.986 52.228 52.228 0 0 1 8.226 2.532 71.153 71.153 0 0 1 9.785-9.637 77.706 77.706 0 0 1 8.5-6.2l.161.036a83.209 83.209 0 0 1 23.411-10.794 81.163 81.163 0 0 1 36.968-1.14 77.069 77.069 0 0 1 32.679 14.134 79.4 79.4 0 0 1 17.542 19.012l.036-.161a81.794 81.794 0 0 1 10.826 24.771q4.617.533 9.161 1.388 35.351 6.783 54.611 36.165a80.758 80.758 0 0 1 12.856 33.012 81.8 81.8 0 0 1 .536 17.885 17.326 17.326 0 0 1 2.451.383q20.232 4.054 32.841 19.415a53.637 53.637 0 0 0 8.352-9.283q-12.821-15.917-33.537-20.079a17.627 17.627 0 0 0 -2.451-.384q.351-3.811.345-7.535-.159-24.058-13.949-45.438-19.808-30.688-56.052-38.013-4.705-.891-9.322-1.425a82.3 82.3 0 0 0 -8.882-22.134q-1.086-1.937-2.209-3.712l-.036.161q-18.351-28.159-51.5-34.956-33.309-6.832-62.025 11.732l-.161-.037a62.183 62.183 0 0 0 -6.261 4.51 84.542 84.542 0 0 0 -12.459 11.741 56.334 56.334 0 0 0 -8.549-2.6 43.956 43.956 0 0 0 -34.317 6.643 43.638 43.638 0 0 0 -18.9 23.822l-1.683-.041q-24.332-.92-45.905 12.994z" fill="#eef8fa"/><path d="m379.979 104.071a74.748 74.748 0 0 0 -23.053 39.973q-.834 3.7-1.311 7.318a18.815 18.815 0 0 0 2.571 2.1q134.754 82.148 305.464 90.349a840.483 840.483 0 0 0 96.665-1.047 1.254 1.254 0 0 0 .52-.052l.217-.966.218-.966q5.226-23.183-7.763-42.859a49.928 49.928 0 0 0 -3.476-4.844q-18.091 15.716-55.151 23.263-62.242 12.7-142.256-5.34t-130.949-56.25q-34.275-25.828-41.696-50.679z" fill="#d6e9ec"/><path d="m535.187 153.271a7.718 7.718 0 0 0 .469 4.674 3.967 3.967 0 0 0 1.356 1.49 5.5 5.5 0 0 0 2.306 1.027l21.251 4.791a6.2 6.2 0 0 0 2.523.061 3.477 3.477 0 0 0 1.864-.764 7.236 7.236 0 0 0 2.429-4.02q.981-4.347-3-8.458a25.871 25.871 0 0 0 -22.861-5.154q-5.394 2.168-6.337 6.353z" fill="#fff"/><path d="m614.739 146.337a12.164 12.164 0 0 0 -5.838-4.869 38.345 38.345 0 0 0 -17.361 10.973 13.106 13.106 0 0 0 2.09 7.239 12.657 12.657 0 0 0 7.573 5.429 12.116 12.116 0 0 0 9.492-1.582 12.474 12.474 0 0 0 5.5-7.9 11.064 11.064 0 0 0 -1.458-9.294m-116.037-26.325a11.386 11.386 0 0 0 -5.429 7.573 12.384 12.384 0 0 0 1.706 9.69 11.068 11.068 0 0 0 7.771 5.3 12.217 12.217 0 0 0 9.3-1.457 12.065 12.065 0 0 0 4.832-5.678 36.6 36.6 0 0 0 -10.937-17.522 13.105 13.105 0 0 0 -7.243 2.094z" fill="#7a8e91"/><path d="m525.863 270.728a7.616 7.616 0 0 0 -.165 5.611l11.882 38.123-47.2 68.489a7.218 7.218 0 0 0 -1.321 5.611 8.021 8.021 0 0 0 2.641 5.116l57.431 51.49a8.919 8.919 0 0 0 4.456 2.146 8.093 8.093 0 0 0 4.786-.825l7.922-4.126a10.693 10.693 0 0 0 3.3-2.971 8.066 8.066 0 0 0 1.156-4.126 9.466 9.466 0 0 0 -.99-4.291l-24.59-44.559 33.336-67a7.365 7.365 0 0 0 .825-3.961 9.738 9.738 0 0 0 -1.155-3.961l-27.56-47.2a7.49 7.49 0 0 0 -4.786-3.8 7.809 7.809 0 0 0 -6.272.66l-10.066 5.446a7.08 7.08 0 0 0 -3.63 4.126m7.591 3.136 10.067-5.446 27.561 47.2-35.317 70.964 26.735 48.356-7.921 4.126-57.432-51.49 49.51-71.79z" fill="#fff" fill-opacity=".2"/><path d="m535.765 386.581-38.618.991 57.432 51.49 7.921-4.126zm35.317-70.964-24.425.165-10.892 70.8z" fill="#fc0"/><path d="m535.765 386.581 10.892-70.8-49.51 71.79 38.618-.991m7.756-118.163-10.067 5.446 13.2 41.918 24.425-.165z" fill="#ffde5d"/><path d="m1583.5 130.78-23.74-93.615h-10.75l-23.74 93.615a4.185 4.185 0 0 0 .224 2.687 4.111 4.111 0 0 0 1.568 2.128 4.382 4.382 0 0 0 2.575.784h49.495a4.385 4.385 0 0 0 2.576-.784 4.772 4.772 0 0 0 1.679-2.128 4.721 4.721 0 0 0 .113-2.687z" fill="#adc5c6"/><path d="m1551.805 36.157q-3.36-2.352-13.885-4.143a227.978 227.978 0 0 0 -37.066-2.576h-2.463a12.643 12.643 0 0 0 -7.727 2.576 8.676 8.676 0 0 0 -3.135 4.143 8.779 8.779 0 0 0 3.135 4.031 13.217 13.217 0 0 0 7.727 2.688h2.463q21.725 0 37.066-2.688 10.525-1.791 13.885-4.031m66.4 4.031a8.042 8.042 0 0 0 3.024-4.031 7.985 7.985 0 0 0 -3.024-4.143 12.974 12.974 0 0 0 -7.726-2.576h-2.576a227.128 227.128 0 0 0 -36.953 2.576q-10.638 1.791-13.886 4.143 3.247 2.24 13.886 4.031 15.341 2.688 36.953 2.688h2.576a13.592 13.592 0 0 0 7.73-2.688z" fill="#d3ecf7"/><path d="m1537.92 44.667q15.34-2.575 15.341-6.271a2.794 2.794 0 0 0 -1.456-2.239q-3.36 2.24-13.885 4.031-15.342 2.688-37.066 2.688h-2.463a13.217 13.217 0 0 1 -7.727-2.688 8.779 8.779 0 0 1 -3.135-4.031 7.049 7.049 0 0 0 -.336 2.239 7.608 7.608 0 0 0 3.471 6.271 13.211 13.211 0 0 0 7.727 2.688h2.463q21.725 0 37.066-2.688m83.313-8.51a8.042 8.042 0 0 1 -3.024 4.031 13.592 13.592 0 0 1 -7.726 2.688h-2.576q-21.612 0-36.953-2.688-10.638-1.791-13.886-4.031a2.781 2.781 0 0 0 -1.568 2.243q0 3.7 15.453 6.271 15.341 2.688 36.953 2.688h2.576a13.584 13.584 0 0 0 7.726-2.688 7.675 7.675 0 0 0 3.36-6.271 7.049 7.049 0 0 0 -.335-2.243z" fill="#fff"/><path d="m1561.1 38.844v-.672a6.572 6.572 0 0 0 -2.016-4.815 6.389 6.389 0 0 0 -4.7-1.9 6.511 6.511 0 0 0 -6.719 6.718 2.1 2.1 0 0 0 .112.672q.113 1.12 1.792 1.9a10.656 10.656 0 0 0 4.815 1.008 9.96 9.96 0 0 0 4.7-1.008q1.791-.783 2.016-1.903z" fill="#5c9fbd"/><g fill="#f90"><path d="m1596.373 121.373a4.7 4.7 0 0 0 -1.232-2.127 4.553 4.553 0 0 0 -2.463-.784 3.751 3.751 0 0 0 -2.576.448l-16.909 9.742a4.086 4.086 0 0 0 -2.015 2.911 3.367 3.367 0 0 0 .448 3.136l20.156 35.161a4.12 4.12 0 0 0 5.935 1.568l20.716-12.093a4.671 4.671 0 0 0 1.9-1.9 3.382 3.382 0 0 0 .224-2.464 4.991 4.991 0 0 0 -1.344-2.463 5.133 5.133 0 0 0 -2.351-1.008l-11.534-1.008z"/><path d="m1516.2 118.35a4.632 4.632 0 0 0 -2.576.9 4.067 4.067 0 0 0 -1.455 2.127l-8.959 29.115-11.422.9a4 4 0 0 0 -2.239 1.12 4.1 4.1 0 0 0 -1.456 2.351 2.937 2.937 0 0 0 .336 2.576 3.457 3.457 0 0 0 1.791 1.9l20.605 11.981a4.557 4.557 0 0 0 3.247.56 4.034 4.034 0 0 0 2.8-2.016l20.268-35.273a3.564 3.564 0 0 0 .336-3.135 4.261 4.261 0 0 0 -1.9-2.8l-16.909-9.742a3.362 3.362 0 0 0 -2.467-.564z"/><path d="m1604.324 117.678a49.912 49.912 0 0 0 -49.943-48.823 47.857 47.857 0 0 0 -35.274 14.669 47.934 47.934 0 0 0 -14.669 34.154v39.081h99.886z"/></g><path d="m1604.324 114.319a49.892 49.892 0 0 0 -49.943-49.943 47.853 47.853 0 0 0 -35.274 14.669 47.857 47.857 0 0 0 -14.669 35.274v3.359a47.934 47.934 0 0 1 14.669-34.154 49.88 49.88 0 0 1 70.66 0 48.136 48.136 0 0 1 14.557 34.154z" fill="#ffc164"/><path d="m1602.308 94.722a56.882 56.882 0 0 0 -9.294-12.094 54.977 54.977 0 0 0 -86.337 12.094z" fill="#98b6b8"/><path d="m1602.308 94.722h2.128a53.228 53.228 0 0 0 -11.422-16.573 54.894 54.894 0 0 0 -88.576 16.573h2.239a52.348 52.348 0 0 1 9.3-12.094 54.339 54.339 0 0 1 77.042 0 56.882 56.882 0 0 1 9.289 12.094z" fill="#a6c4c6"/><path d="m1604.324 132.123a4.635 4.635 0 0 0 3.247-1.231 4.5 4.5 0 0 0 1.232-3.136v-12.766a51.856 51.856 0 0 0 -4.367-20.268h-100a53.293 53.293 0 0 0 -4.479 20.268v12.766a4.3 4.3 0 0 0 1.343 3.136 4.25 4.25 0 0 0 3.136 1.231z" fill="#fc0"/><path d="m1569.386 120.813a8.591 8.591 0 0 0 5.823 2.464 8.219 8.219 0 0 0 6.047-2.464 8.464 8.464 0 0 0 2.463-6.046 7.507 7.507 0 0 0 -2.351-5.935 8.254 8.254 0 0 0 -4.591-2.352 26.028 26.028 0 0 0 -9.855 9.854 8.9 8.9 0 0 0 2.464 4.479m-29.9-.111a8.194 8.194 0 0 0 2.352-4.48 24.827 24.827 0 0 0 -9.854-9.966 8.89 8.89 0 0 0 -4.479 2.464 7.723 7.723 0 0 0 -2.464 5.823 8.407 8.407 0 0 0 2.576 6.159 7.507 7.507 0 0 0 5.935 2.351 8.287 8.287 0 0 0 5.935-2.353z" fill="#af8c00"/><path d="m1771.252 791.039-15.3 20.276-23.974 8.161a7.1 7.1 0 0 0 -3.953 2.806 7.915 7.915 0 0 0 -1.4 4.59l-.637 25.377-14.538 20.531a8.24 8.24 0 0 0 -1.53 4.591 6.545 6.545 0 0 0 1.53 4.591l14.538 20.786.255 25.377a7.031 7.031 0 0 0 1.275 4.463 8.442 8.442 0 0 0 4.081 2.805l23.846 8.289 15.175 20.4a8.039 8.039 0 0 0 3.953 2.678 8.884 8.884 0 0 0 4.719.255l24.229-7.524 24.1 7.524a7.467 7.467 0 0 0 4.719 0 8.88 8.88 0 0 0 3.953-2.678l15.43-20.276 23.847-8.162a7.782 7.782 0 0 0 3.825-2.805 7.438 7.438 0 0 0 1.658-4.591l.383-25.122 14.792-20.786a7.246 7.246 0 0 0 1.275-4.59 7.915 7.915 0 0 0 -1.4-4.591l-14.41-20.786-.383-25.377a9.4 9.4 0 0 0 -1.4-4.591 7.743 7.743 0 0 0 -3.953-2.8l-23.857-8.29-15.048-20.149a8.223 8.223 0 0 0 -3.953-2.933 7.467 7.467 0 0 0 -4.719 0l-24.356 7.269-24.1-7.524a7.866 7.866 0 0 0 -4.846 0 7.1 7.1 0 0 0 -3.825 2.806m-31.243 118.722q-13.39-26.4-4.081-54.451 9.181-28.183 35.579-41.445t54.452-4.08q28.054 9.308 41.444 35.706 13.39 26.27 4.208 54.451-9.312 28.058-35.707 41.445t-54.451 4.081q-28.054-9.182-41.445-35.707z" fill="#e3f1f3"/><path d="m1735.928 855.31q-9.309 28.055 4.081 54.451 13.389 26.526 41.445 35.707 28.054 9.309 54.451-4.081t35.706-41.445q9.181-28.182-4.208-54.451-13.389-26.4-41.444-35.706-28.056-9.183-54.452 4.08t-35.579 41.445m37.874-36.854h-.127q24.739-12.369 50.753-3.826t38.384 33.156q12.5 24.485 3.954 50.5-8.672 26.014-33.156 38.512-24.612 12.37-50.626 3.826t-38.512-33.156h.128q-12.5-24.484-3.826-50.5 8.544-26.014 33.026-38.512z" fill="#f7feff"/><path d="m1773.675 818.456h.127q-24.484 12.5-33.028 38.512-8.671 26.015 3.826 50.5h-.128q12.5 24.612 38.512 33.156t50.626-3.826q24.485-12.5 33.156-38.512 8.544-26.013-3.954-50.5-12.369-24.612-38.384-33.156t-50.753 3.826z" fill="#98b6b8"/><path d="m1813.972 893.311a7.627 7.627 0 0 0 -2.678-5.866 10.09 10.09 0 0 0 -12.5 0 7.887 7.887 0 0 0 -2.677 5.866 8.128 8.128 0 0 0 .765 3.443 2.243 2.243 0 0 0 .892.893 2.292 2.292 0 0 0 1.4.383h11.732a3.177 3.177 0 0 0 1.4-.383 2.244 2.244 0 0 0 .892-.893 7.578 7.578 0 0 0 .774-3.443z" fill="#fff"/><path d="m1834.5 872.4a9.4 9.4 0 0 0 -5.229-2.678 29.635 29.635 0 0 0 -11.222 11.222 10.125 10.125 0 0 0 2.806 5.1 9.777 9.777 0 0 0 6.631 2.806 9.36 9.36 0 0 0 6.886-2.806 9.64 9.64 0 0 0 2.806-6.886 8.551 8.551 0 0 0 -2.678-6.758m-47.694 13.517a9.324 9.324 0 0 0 2.678-5.1 28.27 28.27 0 0 0 -11.222-11.349 10.123 10.123 0 0 0 -5.1 2.8 8.8 8.8 0 0 0 -2.806 6.631 9.571 9.571 0 0 0 2.933 7.014 8.552 8.552 0 0 0 6.759 2.678 9.437 9.437 0 0 0 6.761-2.676z" fill="#5b797b"/><path d="m1481.929 766.351a4.241 4.241 0 0 1 .441-2.646 3.816 3.816 0 0 1 1.984-1.874 4.448 4.448 0 0 1 2.425-.22l11.021 1.989 16.095-25.466a4.114 4.114 0 0 1 1.875-1.654 4.285 4.285 0 0 1 2.535-.331 6.346 6.346 0 0 1 2.2 1.213l13.671 13.67a4.185 4.185 0 0 1 1.212 3.087 4.459 4.459 0 0 1 -1.323 2.977l-28.333 28.333a4 4 0 0 1 -2.866 1.323 5.065 5.065 0 0 1 -3.087-1.434l-16.647-16.647a4.184 4.184 0 0 1 -1.203-2.32z" fill="#c33"/><path d="m1577.731 735.924a4.181 4.181 0 0 1 3.087-1.213 4.464 4.464 0 0 1 2.977 1.323l28.333 28.333a4 4 0 0 1 1.323 2.866 5.054 5.054 0 0 1 -1.434 3.087l-16.647 16.647a4.179 4.179 0 0 1 -2.315 1.213 4.241 4.241 0 0 1 -2.646-.441 3.822 3.822 0 0 1 -1.874-1.985 4.448 4.448 0 0 1 -.22-2.425l1.984-11.024-25.466-16.1a4.117 4.117 0 0 1 -1.654-1.874 4.3 4.3 0 0 1 -.331-2.536 6.362 6.362 0 0 1 1.213-2.2z" fill="#c33"/><path d="m1547.3 613.883a4.23 4.23 0 0 1 2.756-.992 3.816 3.816 0 0 1 2.646.992 4.385 4.385 0 0 1 1.653 2.315l24.364 96.023a4.113 4.113 0 0 1 -.22 2.646 4.047 4.047 0 0 1 -1.543 2.1 4.317 4.317 0 0 1 -2.536.771h-48.72a4.315 4.315 0 0 1 -2.536-.771 4.7 4.7 0 0 1 -1.654-2.1 4.648 4.648 0 0 1 -.11-2.646l24.36-96.021a4.626 4.626 0 0 1 1.54-2.317z" fill="#e3f1f3"/><path d="m1530.106 673.856q-8.379 0-8.6 8.378v-3.858q0-8.929 8.6-8.93h40.129q8.6 0 8.6 8.93v3.858q-.221-8.378-8.6-8.378z" fill="#adc5c6"/><path d="m1521.506 720.71v-38.476q.222-8.378 8.6-8.378h40.129q8.378 0 8.6 8.378v38.476q-.221 8.268-8.6 8.268h-40.129q-8.379 0-8.6-8.268z" fill="#98b6b8"/><path d="m1515.223 694.361a49.239 49.239 0 0 1 84.006 33.625v38.475h-98.338v-38.475a47.387 47.387 0 0 1 14.332-33.625z" fill="#c33"/><path d="m1515.223 689.952a49.224 49.224 0 0 1 84.006 34.727v3.307a49.181 49.181 0 0 0 -98.338 0v-3.307a47.291 47.291 0 0 1 14.332-34.727z" fill="#e04141"/><path d="m1521.176 725.12a7.39 7.39 0 0 1 2.315-5.843 8.122 8.122 0 0 1 4.52-2.315 25.617 25.617 0 0 1 9.7 9.7 8.75 8.75 0 0 1 -2.425 4.41 8.456 8.456 0 0 1 -5.733 2.425 8.093 8.093 0 0 1 -5.953-2.425 8.333 8.333 0 0 1 -2.425-5.953m41.231 1.433a24.445 24.445 0 0 1 9.7-9.812 8.764 8.764 0 0 1 4.41 2.425 7.608 7.608 0 0 1 2.425 5.733 8.274 8.274 0 0 1 -2.536 6.064 7.393 7.393 0 0 1 -5.843 2.315 8.161 8.161 0 0 1 -5.843-2.315 8.071 8.071 0 0 1 -2.312-4.409z" fill="#701c1c"/><path d="m1543.225 741.436a7.541 7.541 0 0 1 -.662-3.2 7.564 7.564 0 0 1 12.789-5.4 7.586 7.586 0 0 1 2.2 5.4 8.039 8.039 0 0 1 -.662 3.2 1.941 1.941 0 0 1 -.772.772 1.787 1.787 0 0 1 -1.1.33h-9.918a2.132 2.132 0 0 1 -1.1-.33 1.939 1.939 0 0 1 -.775-.772z" fill="#fff"/><path d="m1610.579 218.5a70.859 70.859 0 0 0 -27.187-7.116q-2.188-.183-4.379-.183h-3.466q-30.654.73-52.368 22.443-22.26 22.443-22.26 54.192v.365a18.129 18.129 0 0 0 .182 2.554v.73a74.059 74.059 0 0 0 1.46 12.955 77.82 77.82 0 0 0 4.014 12.773 26.689 26.689 0 0 0 1.46 3.466 94.91 94.91 0 0 0 4.562 8.394q1.824 2.736 4.2 5.656 2.737 3.466 6.022 6.934l.364.365q2.19 2.188 4.38 4.2a4.874 4.874 0 0 1 1.277.913 57.77 57.77 0 0 0 6.751 5.108q2.738 1.825 5.656 3.467 3.285 1.642 6.752 3.1a75.738 75.738 0 0 0 29.559 5.657q31.747 0 54.009-22.443 20.982-20.8 22.625-49.63v-4.562a82.222 82.222 0 0 0 -1.825-17.517q-.729-3.283-1.642-6.568a4.074 4.074 0 0 1 -.547-1.277 59.337 59.337 0 0 0 -2.92-6.934 70.583 70.583 0 0 0 -11.13-16.787q-1.643-2.007-3.284-3.649a13.874 13.874 0 0 0 -1.277-1.46 22.5 22.5 0 0 0 -1.825-1.642 57.432 57.432 0 0 0 -5.109-4.561 63.65 63.65 0 0 0 -6.751-4.927 54.369 54.369 0 0 0 -7.3-4.014m-3.284 6.934a44.267 44.267 0 0 1 6.569 3.649 68.918 68.918 0 0 1 6.021 4.379 36.447 36.447 0 0 1 4.562 4.2 6.184 6.184 0 0 1 1.642 1.459 6.364 6.364 0 0 1 1.277 1.278 39.69 39.69 0 0 1 2.919 3.284 66.823 66.823 0 0 1 10.036 15.144 47.213 47.213 0 0 1 2.554 6.2 4.634 4.634 0 0 0 .548 1.1q.729 2.919 1.46 6.021a73.059 73.059 0 0 1 1.642 15.692v3.649h-11.5v.548q-1.459 21.165-16.969 36.492-16.6 16.787-40.506 16.787a62.922 62.922 0 0 1 -13.685-1.46 51.09 51.09 0 0 1 -7.664-2.372 60.759 60.759 0 0 1 -10.035-5.291l-1.1-.73a34.944 34.944 0 0 1 -4.014-3.1 11.872 11.872 0 0 1 -1.277-1.095q-1.461-1.276-2.92-2.737a59.421 59.421 0 0 1 -5.839-6.751 45.525 45.525 0 0 1 -3.831-6.021 34.478 34.478 0 0 1 -2.737-5.657 22.82 22.82 0 0 1 -1.46-3.649 38.969 38.969 0 0 1 -1.642-6.2 50.75 50.75 0 0 1 -1.1-8.758h-11.495v-1.1a13.243 13.243 0 0 1 -.183-2.189v-.365q0-28.647 20.071-48.718a66.811 66.811 0 0 1 47.076-20.253h3.1q2.007 0 4.014.182a61.732 61.732 0 0 1 24.45 6.387m2.737 52.366a2.337 2.337 0 0 0 -1.46-.912l-17.334-6.569-11.5-14.232a2.337 2.337 0 0 0 -1.46-.912 1.935 1.935 0 0 0 -1.642 0 1.708 1.708 0 0 0 -1.277.912l-11.678 14.232-17.151 6.569a1.708 1.708 0 0 0 -1.277.912 1.974 1.974 0 0 0 -.548 1.46 3.623 3.623 0 0 0 .365 1.642l10.218 15.327.73 18.064a2.667 2.667 0 0 0 .547 1.642 2.337 2.337 0 0 0 1.46.913 2.059 2.059 0 0 0 1.46.182l17.881-4.926 17.881 4.926a2.489 2.489 0 0 0 1.643-.182 2.3 2.3 0 0 0 1.277-.913 2.667 2.667 0 0 0 .547-1.642l1.1-18.246 10.218-15.145a3.623 3.623 0 0 0 .365-1.642 2.6 2.6 0 0 0 -.365-1.46m-24.45-2.919a7.329 7.329 0 0 0 3.1 2.372l12.042 4.562-6.568 9.67h-33.209l-6.568-9.67 12.042-4.562a8.388 8.388 0 0 0 2.92-2.189l8.211-10.036z" fill="#fc0"/><path d="m1581.933 230.54q-2.19-.183-4.379-.183a57.313 57.313 0 0 0 -57.476 57.476v.365a14.419 14.419 0 0 0 .182 2.372v.912a50.75 50.75 0 0 0 1.1 8.758 38.969 38.969 0 0 0 1.642 6.2 22.82 22.82 0 0 0 1.46 3.649 34.478 34.478 0 0 0 2.737 5.657 45.525 45.525 0 0 0 3.831 6.021 59.421 59.421 0 0 0 5.839 6.751q1.461 1.459 2.92 2.737a11.872 11.872 0 0 0 1.277 1.095 34.944 34.944 0 0 0 4.014 3.1l1.1.73a60.759 60.759 0 0 0 10.035 5.291 51.09 51.09 0 0 0 7.664 2.372 62.922 62.922 0 0 0 13.685 1.46q23.9 0 40.506-16.787 15.51-15.327 16.969-36.492v-4.2a61.174 61.174 0 0 0 -.364-6.751q-.183-1.825-.548-3.649-.364-1.642-.547-3.1-.547-2.373-1.277-4.562a55.423 55.423 0 0 0 -12.408-20.618q-.912-1.1-1.825-2.007l-1.459-1.46-.913-.912a54.617 54.617 0 0 0 -5.473-4.2q-1.278-.912-2.373-1.642a41.471 41.471 0 0 0 -5.473-3.1 55.173 55.173 0 0 0 -20.436-5.291m26.639 46.345a2.337 2.337 0 0 1 1.46.912 2.6 2.6 0 0 1 .365 1.46 3.623 3.623 0 0 1 -.365 1.642l-10.218 15.145-1.1 18.246a2.667 2.667 0 0 1 -.547 1.642 2.3 2.3 0 0 1 -1.277.913 2.489 2.489 0 0 1 -1.643.182l-17.881-4.926-17.881 4.926a2.059 2.059 0 0 1 -1.46-.182 2.337 2.337 0 0 1 -1.46-.913 2.667 2.667 0 0 1 -.547-1.642l-.73-18.064-10.223-15.318a3.623 3.623 0 0 1 -.365-1.642 1.974 1.974 0 0 1 .548-1.46 1.708 1.708 0 0 1 1.277-.912l17.151-6.569 11.678-14.232a1.708 1.708 0 0 1 1.277-.912 1.935 1.935 0 0 1 1.642 0 2.337 2.337 0 0 1 1.46.912l11.5 14.232z" fill="#e5b700"/><path d="m1588.684 277.25a7.329 7.329 0 0 1 -3.1-2.372l-8.028-9.853-8.211 10.036a8.388 8.388 0 0 1 -2.92 2.189l-12.042 4.562 6.568 9.67h33.209l6.568-9.67-12.042-4.562m-11.13-46.893q2.188 0 4.379.183a55.173 55.173 0 0 1 20.436 5.291 41.471 41.471 0 0 1 5.473 3.1q1.095.729 2.373 1.642a54.617 54.617 0 0 1 5.473 4.2l.913.912 1.459 1.46q.912.912 1.825 2.007a55.423 55.423 0 0 1 12.408 20.618q.729 2.19 1.277 4.562.182 1.459.547 3.1.364 1.824.548 3.649a61.174 61.174 0 0 1 .364 6.751v3.649h11.5v-3.649a73.059 73.059 0 0 0 -1.642-15.692q-.731-3.1-1.46-6.021a4.634 4.634 0 0 1 -.548-1.1 47.213 47.213 0 0 0 -2.554-6.2 66.823 66.823 0 0 0 -10.036-15.144 39.69 39.69 0 0 0 -2.919-3.284 6.364 6.364 0 0 0 -1.277-1.278 6.184 6.184 0 0 0 -1.642-1.459 36.447 36.447 0 0 0 -4.562-4.2 68.918 68.918 0 0 0 -6.021-4.379 44.267 44.267 0 0 0 -6.569-3.649 61.732 61.732 0 0 0 -24.45-6.387q-2.007-.181-4.014-.182h-3.1a66.811 66.811 0 0 0 -47.076 20.253q-20.07 20.072-20.071 48.718v.365a13.243 13.243 0 0 0 .183 2.189v1.1h11.495v-.912a14.419 14.419 0 0 1 -.182-2.372v-.365a57.313 57.313 0 0 1 57.476-57.476z" fill="#ffda4a"/><path d="m1851.437 218.5a70.863 70.863 0 0 0 -27.187-7.116q-2.19-.183-4.379-.183h-3.471q-30.654.73-52.367 22.443-22.26 22.443-22.26 54.192v.365a17.981 17.981 0 0 0 .182 2.554v.73a74.059 74.059 0 0 0 1.46 12.955 77.82 77.82 0 0 0 4.014 12.773 26.689 26.689 0 0 0 1.46 3.466 94.9 94.9 0 0 0 4.561 8.394q1.826 2.736 4.2 5.656 2.736 3.466 6.021 6.934c.122.121.243.243.365.365q2.19 2.188 4.379 4.2a4.879 4.879 0 0 1 1.278.913 57.686 57.686 0 0 0 6.751 5.108q2.736 1.825 5.656 3.467 3.283 1.642 6.751 3.1a75.745 75.745 0 0 0 29.559 5.657q31.749 0 54.009-22.443 20.984-20.8 22.626-49.63v-4.562a82.286 82.286 0 0 0 -1.825-17.517q-.729-3.283-1.642-6.568a4.051 4.051 0 0 1 -.547-1.277 59.337 59.337 0 0 0 -2.92-6.934 70.644 70.644 0 0 0 -11.13-16.787q-1.642-2.007-3.284-3.649a13.888 13.888 0 0 0 -1.278-1.46 22.329 22.329 0 0 0 -1.819-1.646 57.432 57.432 0 0 0 -5.109-4.561 63.559 63.559 0 0 0 -6.752-4.927 54.3 54.3 0 0 0 -7.3-4.014m-3.284 6.934a44.259 44.259 0 0 1 6.568 3.649 68.918 68.918 0 0 1 6.021 4.379 36.447 36.447 0 0 1 4.562 4.2 6.168 6.168 0 0 1 1.642 1.459 6.343 6.343 0 0 1 1.278 1.278 39.69 39.69 0 0 1 2.919 3.284 66.785 66.785 0 0 1 10.035 15.144 47.353 47.353 0 0 1 2.555 6.2 4.629 4.629 0 0 0 .547 1.1q.731 2.919 1.46 6.021a72.933 72.933 0 0 1 1.642 15.692v.365q0 1.46 0 2.919v.365h-11.5v.548q-1.459 21.165-16.969 36.492-16.6 16.787-40.507 16.787a62.929 62.929 0 0 1 -13.685-1.46 51.077 51.077 0 0 1 -7.663-2.372 60.679 60.679 0 0 1 -10.035-5.291l-1.1-.73a35.044 35.044 0 0 1 -4.015-3.1 11.97 11.97 0 0 1 -1.277-1.095q-1.46-1.276-2.919-2.737a59.321 59.321 0 0 1 -5.839-6.751 45.533 45.533 0 0 1 -3.832-6.021 34.559 34.559 0 0 1 -2.737-5.657 22.721 22.721 0 0 1 -1.459-3.649 38.974 38.974 0 0 1 -1.643-6.2 50.653 50.653 0 0 1 -1.094-8.758h-11.495v-1.1a13.243 13.243 0 0 1 -.183-2.189v-.365q0-28.647 20.071-48.718a66.809 66.809 0 0 1 47.075-20.253h3.1q2.007 0 4.015.182a61.732 61.732 0 0 1 24.45 6.387m2.737 52.366a2.34 2.34 0 0 0 -1.46-.912l-17.334-6.569-11.486-14.238a2.34 2.34 0 0 0 -1.46-.912 1.935 1.935 0 0 0 -1.642 0 1.706 1.706 0 0 0 -1.277.912l-11.678 14.232-17.152 6.569a1.708 1.708 0 0 0 -1.277.912 1.973 1.973 0 0 0 -.547 1.46 3.623 3.623 0 0 0 .365 1.642l10.218 15.327.729 18.064a2.668 2.668 0 0 0 .548 1.642 2.337 2.337 0 0 0 1.46.913 2.056 2.056 0 0 0 1.459.182l17.882-4.926 17.881 4.926a2.486 2.486 0 0 0 1.642-.182 2.3 2.3 0 0 0 1.278-.913 2.673 2.673 0 0 0 .547-1.642l1.1-18.246 10.214-15.144a3.623 3.623 0 0 0 .364-1.642 2.6 2.6 0 0 0 -.364-1.46m-24.45-2.919a7.333 7.333 0 0 0 3.1 2.372l12.043 4.562-6.569 9.67h-33.208l-6.569-9.67 12.043-4.562a8.376 8.376 0 0 0 2.919-2.189l8.211-10.036z" fill="#fc0"/><path d="m1822.79 230.54q-2.19-.183-4.379-.183a57.315 57.315 0 0 0 -57.476 57.476v.365a14.415 14.415 0 0 0 .183 2.372v.912a50.653 50.653 0 0 0 1.094 8.758 38.974 38.974 0 0 0 1.643 6.2 22.721 22.721 0 0 0 1.459 3.649 34.559 34.559 0 0 0 2.737 5.657 45.533 45.533 0 0 0 3.832 6.021 59.321 59.321 0 0 0 5.839 6.751q1.459 1.459 2.919 2.737a11.97 11.97 0 0 0 1.277 1.095 35.044 35.044 0 0 0 4.015 3.1l1.1.73a60.679 60.679 0 0 0 10.035 5.291 51.077 51.077 0 0 0 7.663 2.372 62.929 62.929 0 0 0 13.685 1.46q23.9 0 40.507-16.787 15.509-15.327 16.969-36.492v-4.2a61.171 61.171 0 0 0 -.365-6.751q-.181-1.825-.547-3.649-.366-1.642-.548-3.1-.547-2.373-1.277-4.562a55.4 55.4 0 0 0 -12.408-20.618q-.912-1.1-1.824-2.007l-1.46-1.46-.912-.912a54.626 54.626 0 0 0 -5.474-4.2q-1.278-.912-2.372-1.642a41.481 41.481 0 0 0 -5.474-3.1 55.163 55.163 0 0 0 -20.436-5.291m26.64 46.345a2.34 2.34 0 0 1 1.46.912 2.6 2.6 0 0 1 .364 1.46 3.623 3.623 0 0 1 -.364 1.642l-10.218 15.145-1.1 18.246a2.673 2.673 0 0 1 -.547 1.642 2.3 2.3 0 0 1 -1.278.913 2.486 2.486 0 0 1 -1.642.182l-17.881-4.926-17.882 4.926a2.056 2.056 0 0 1 -1.459-.182 2.337 2.337 0 0 1 -1.46-.913 2.668 2.668 0 0 1 -.548-1.642l-.729-18.064-10.218-15.318a3.623 3.623 0 0 1 -.365-1.642 1.973 1.973 0 0 1 .547-1.46 1.708 1.708 0 0 1 1.277-.912l17.152-6.569 11.678-14.232a1.706 1.706 0 0 1 1.277-.912 1.935 1.935 0 0 1 1.642 0 2.34 2.34 0 0 1 1.46.912l11.495 14.232z" fill="#e5b700"/><path d="m1829.541 277.25a7.333 7.333 0 0 1 -3.1-2.372l-8.029-9.853-8.211 10.036a8.376 8.376 0 0 1 -2.919 2.189l-12.043 4.562 6.569 9.67h33.208l6.569-9.67-12.043-4.562m-11.13-46.893q2.19 0 4.379.183a55.163 55.163 0 0 1 20.436 5.291 41.481 41.481 0 0 1 5.474 3.1q1.1.729 2.372 1.642a54.626 54.626 0 0 1 5.474 4.2l.912.912 1.46 1.46q.912.912 1.824 2.007a55.4 55.4 0 0 1 12.408 20.618q.73 2.19 1.277 4.562.183 1.459.548 3.1.365 1.824.547 3.649a61.171 61.171 0 0 1 .365 6.751v3.649h11.5v-.365q0-1.459 0-2.919c0-.122 0-.243 0-.365a72.933 72.933 0 0 0 -1.642-15.692q-.731-3.1-1.46-6.021a4.629 4.629 0 0 1 -.547-1.1 47.353 47.353 0 0 0 -2.555-6.2 66.785 66.785 0 0 0 -10.035-15.144 39.69 39.69 0 0 0 -2.919-3.284 6.343 6.343 0 0 0 -1.278-1.278 6.168 6.168 0 0 0 -1.642-1.459 36.447 36.447 0 0 0 -4.562-4.2 68.918 68.918 0 0 0 -6.021-4.379 44.259 44.259 0 0 0 -6.568-3.649 61.732 61.732 0 0 0 -24.45-6.387q-2.008-.181-4.015-.182h-3.1a66.809 66.809 0 0 0 -47.075 20.253q-20.071 20.072-20.071 48.718v.365a13.243 13.243 0 0 0 .183 2.189v1.1h11.495v-.912a14.415 14.415 0 0 1 -.183-2.372v-.365a57.315 57.315 0 0 1 57.476-57.476z" fill="#ffda4a"/><path d="m498.21 627.577a70.9 70.9 0 0 0 -27.187-7.116q-2.19-.181-4.379-.182h-3.467q-30.654.729-52.367 22.443-22.26 22.443-22.26 54.191v.365a18.143 18.143 0 0 0 .182 2.555v.73a74.07 74.07 0 0 0 1.46 12.955 77.809 77.809 0 0 0 4.014 12.772 26.7 26.7 0 0 0 1.46 3.467 94.881 94.881 0 0 0 4.561 8.393q1.826 2.738 4.2 5.656 2.736 3.468 6.021 6.934c.122.122.244.243.365.365q2.19 2.19 4.379 4.2a4.859 4.859 0 0 1 1.278.912 57.582 57.582 0 0 0 6.751 5.109q2.736 1.824 5.656 3.467 3.285 1.643 6.751 3.1a75.763 75.763 0 0 0 29.559 5.656q31.749 0 54.009-22.443 20.984-20.8 22.626-49.63v-4.562a82.206 82.206 0 0 0 -1.825-17.516q-.729-3.285-1.642-6.569a4.041 4.041 0 0 1 -.547-1.277 59.337 59.337 0 0 0 -2.92-6.934 70.638 70.638 0 0 0 -11.13-16.786q-1.643-2.007-3.284-3.649a13.578 13.578 0 0 0 -1.278-1.46 22.146 22.146 0 0 0 -1.824-1.642 57.448 57.448 0 0 0 -5.109-4.562 63.5 63.5 0 0 0 -6.751-4.926 54.267 54.267 0 0 0 -7.3-4.015m-3.284 6.934a44.35 44.35 0 0 1 6.568 3.649 69.083 69.083 0 0 1 6.022 4.379 36.592 36.592 0 0 1 4.561 4.2 6.172 6.172 0 0 1 1.642 1.46 6.338 6.338 0 0 1 1.279 1.273 39.853 39.853 0 0 1 2.919 3.284 66.807 66.807 0 0 1 10.033 15.143 47.293 47.293 0 0 1 2.554 6.2 4.642 4.642 0 0 0 .547 1.094q.731 2.92 1.46 6.022a72.93 72.93 0 0 1 1.642 15.691v.365q0 1.459 0 2.92v.365h-11.5v.547q-1.455 21.173-16.964 36.496-16.6 16.787-40.507 16.786a62.913 62.913 0 0 1 -13.684-1.456 51.17 51.17 0 0 1 -7.664-2.372 60.724 60.724 0 0 1 -10.035-5.292l-1.095-.73a34.944 34.944 0 0 1 -4.014-3.1 11.773 11.773 0 0 1 -1.278-1.094q-1.46-1.278-2.919-2.737a59.407 59.407 0 0 1 -5.839-6.751 45.711 45.711 0 0 1 -3.832-6.022 34.463 34.463 0 0 1 -2.736-5.656 22.8 22.8 0 0 1 -1.46-3.649 39.081 39.081 0 0 1 -1.643-6.2 50.665 50.665 0 0 1 -1.094-8.758h-11.491v-1.1a13.264 13.264 0 0 1 -.183-2.19v-.365q0-28.645 20.071-48.717a66.81 66.81 0 0 1 47.076-20.254h3.1q2.007 0 4.015.183a61.715 61.715 0 0 1 24.45 6.386m2.737 52.367a2.332 2.332 0 0 0 -1.46-.912l-17.337-6.567-11.5-14.232a2.337 2.337 0 0 0 -1.46-.913 1.935 1.935 0 0 0 -1.642 0 1.706 1.706 0 0 0 -1.277.913l-11.673 14.232-17.151 6.569a1.7 1.7 0 0 0 -1.278.912 1.972 1.972 0 0 0 -.547 1.46 3.626 3.626 0 0 0 .365 1.642l10.218 15.327.73 18.064a2.662 2.662 0 0 0 .547 1.642 2.34 2.34 0 0 0 1.46.912 2.062 2.062 0 0 0 1.459.183l17.88-4.93 17.881 4.927a2.492 2.492 0 0 0 1.642-.183 2.3 2.3 0 0 0 1.278-.912 2.669 2.669 0 0 0 .547-1.642l1.095-18.247 10.218-15.144a3.626 3.626 0 0 0 .365-1.642 2.6 2.6 0 0 0 -.365-1.46m-24.45-2.919a7.349 7.349 0 0 0 3.1 2.372l12.043 4.561-6.569 9.671h-33.205l-6.568-9.671 12.042-4.561a8.391 8.391 0 0 0 2.919-2.19l8.211-10.035z" fill="#fc0"/><path d="m469.563 639.62q-2.188-.183-4.379-.183a57.315 57.315 0 0 0 -57.476 57.476v.365a14.406 14.406 0 0 0 .183 2.372v.913a50.665 50.665 0 0 0 1.094 8.758 39.081 39.081 0 0 0 1.643 6.2 22.8 22.8 0 0 0 1.46 3.649 34.463 34.463 0 0 0 2.736 5.656 45.711 45.711 0 0 0 3.832 6.022 59.407 59.407 0 0 0 5.844 6.752q1.46 1.46 2.919 2.737a11.773 11.773 0 0 0 1.278 1.094 34.944 34.944 0 0 0 4.014 3.1l1.095.73a60.724 60.724 0 0 0 10.035 5.292 51.17 51.17 0 0 0 7.664 2.372 62.913 62.913 0 0 0 13.684 1.459q23.9 0 40.507-16.786 15.51-15.327 16.969-36.493v-4.2a61.185 61.185 0 0 0 -.365-6.751q-.182-1.824-.547-3.649-.365-1.643-.548-3.1-.546-2.371-1.277-4.561a55.4 55.4 0 0 0 -12.407-20.619q-.914-1.1-1.825-2.007l-1.46-1.46-.912-.912a54.926 54.926 0 0 0 -5.474-4.2q-1.278-.912-2.372-1.642a41.708 41.708 0 0 0 -5.474-3.1 55.182 55.182 0 0 0 -20.436-5.291m26.64 46.346a2.332 2.332 0 0 1 1.46.912 2.6 2.6 0 0 1 .365 1.46 3.626 3.626 0 0 1 -.365 1.642l-10.218 15.144-1.095 18.247a2.669 2.669 0 0 1 -.547 1.642 2.3 2.3 0 0 1 -1.278.912 2.492 2.492 0 0 1 -1.642.183l-17.888-4.92-17.882 4.927a2.062 2.062 0 0 1 -1.459-.183 2.34 2.34 0 0 1 -1.46-.912 2.662 2.662 0 0 1 -.547-1.642l-.73-18.064-10.216-15.327a3.626 3.626 0 0 1 -.365-1.642 1.972 1.972 0 0 1 .547-1.46 1.7 1.7 0 0 1 1.278-.912l17.151-6.569 11.683-14.232a1.706 1.706 0 0 1 1.277-.913 1.935 1.935 0 0 1 1.642 0 2.337 2.337 0 0 1 1.46.913l11.5 14.232z" fill="#e5b700"/><path d="m476.314 686.331a7.349 7.349 0 0 1 -3.1-2.372l-8.029-9.853-8.211 10.035a8.391 8.391 0 0 1 -2.919 2.19l-12.042 4.561 6.568 9.671h33.208l6.569-9.671-12.043-4.561m-11.13-46.894q2.19 0 4.379.183a55.182 55.182 0 0 1 20.436 5.291 41.708 41.708 0 0 1 5.474 3.1q1.095.731 2.372 1.642a54.926 54.926 0 0 1 5.474 4.2l.912.912 1.46 1.46q.912.912 1.825 2.007a55.4 55.4 0 0 1 12.407 20.619q.73 2.188 1.277 4.561.183 1.46.548 3.1.364 1.824.547 3.649a61.185 61.185 0 0 1 .365 6.751v3.65h11.5v-.362q0-1.459 0-2.92c0-.121 0-.243 0-.365a72.93 72.93 0 0 0 -1.642-15.691q-.729-3.1-1.46-6.022a4.642 4.642 0 0 1 -.547-1.094 47.293 47.293 0 0 0 -2.554-6.2 66.807 66.807 0 0 0 -10.036-15.145 39.853 39.853 0 0 0 -2.922-3.29 6.338 6.338 0 0 0 -1.278-1.277 6.172 6.172 0 0 0 -1.642-1.46 36.592 36.592 0 0 0 -4.561-4.2 69.083 69.083 0 0 0 -6.022-4.379 44.35 44.35 0 0 0 -6.568-3.649 61.715 61.715 0 0 0 -24.45-6.386q-2.007-.183-4.015-.183h-3.1a66.81 66.81 0 0 0 -47.08 20.261q-20.071 20.07-20.071 48.717v.365a13.264 13.264 0 0 0 .183 2.19v1.1h11.5v-.913a14.406 14.406 0 0 1 -.183-2.372v-.365a57.315 57.315 0 0 1 57.476-57.476z" fill="#ffda4a"/></svg>