<svg height="64" viewBox="0 0 64 64" width="64" xmlns="http://www.w3.org/2000/svg"><path d="m9.3 52.137a15.605 15.605 0 0 0 5.729 5.294q7.036 4.134 16.971 4.134t16.97-4.134a15.605 15.605 0 0 0 5.73-5.294q-.724.194-1.5.387a87.438 87.438 0 0 1 -21.2 2.224 87.74 87.74 0 0 1 -21.225-2.224q-.8-.194-1.474-.387m22.699-22.047a58.507 58.507 0 0 0 -6.164.315 40.46 40.46 0 0 0 -15.061 4.448 14.474 14.474 0 0 0 -1.4.821 2.123 2.123 0 0 1 -.072.677c-.033.113-.073.242-.121.387a6.443 6.443 0 0 1 -1.572 2.345 6.059 6.059 0 0 1 -2.345 1.571q-1.183.435-1.74-.1l-.048-.049-.121-.121a9.146 9.146 0 0 0 -.725 1.5 2.361 2.361 0 0 0 .314.266 15.059 15.059 0 0 0 5.555 2.25q1.063.241 2.272.484a108.278 108.278 0 0 0 21.228 1.79 107.9 107.9 0 0 0 21.2-1.789q1.208-.242 2.272-.508a15.4 15.4 0 0 0 5.608-2.224 3.91 3.91 0 0 0 .29-.266 9.146 9.146 0 0 0 -.725-1.5l-.121.121a.279.279 0 0 1 -.072.049q-.556.531-1.716.1a6.259 6.259 0 0 1 -2.37-1.571 6.452 6.452 0 0 1 -1.566-2.348 1.833 1.833 0 0 1 -.1-.362 2.229 2.229 0 0 1 -.072-.7q-.676-.411-1.426-.821a40.46 40.46 0 0 0 -15.062-4.45 57.825 57.825 0 0 0 -6.14-.315z" fill="#6fc4a9"/><path d="m10.775 50.59q-1.329-.339-2.441-.677a7.952 7.952 0 0 0 .386 1.087 8.456 8.456 0 0 0 .58 1.137q.677.194 1.474.387a87.74 87.74 0 0 0 21.226 2.224 87.438 87.438 0 0 0 21.2-2.224q.773-.194 1.5-.387.315-.581.556-1.136a7.829 7.829 0 0 0 .387-1.088q-1.111.339-2.441.677a87.389 87.389 0 0 1 -21.202 2.224 87.69 87.69 0 0 1 -21.225-2.224z" fill="#5caa91"/><path d="m10.775 44.885q-1.209-.242-2.275-.485a15.059 15.059 0 0 1 -5.56-2.248 2.361 2.361 0 0 1 -.314-.266 9.262 9.262 0 0 0 -.363 1.136 10.022 10.022 0 0 0 -.263 2.105v.1q0 2.66 6.334 4.69 1.111.339 2.441.677a87.69 87.69 0 0 0 21.225 2.22 87.389 87.389 0 0 0 21.2-2.224q1.329-.339 2.441-.677 6.359-2.031 6.359-4.69v-.1a9.407 9.407 0 0 0 -.29-2.123q-.146-.555-.339-1.112a3.91 3.91 0 0 1 -.29.266 15.4 15.4 0 0 1 -5.608 2.224q-1.063.265-2.272.508a107.9 107.9 0 0 1 -21.201 1.788 108.278 108.278 0 0 1 -21.225-1.789z" fill="#67b69d"/><path d="m38.14 29.438a57.825 57.825 0 0 0 -6.14-.315 58.507 58.507 0 0 0 -6.164.315 40.46 40.46 0 0 0 -15.061 4.448q-.942.507-1.789 1.039a3.766 3.766 0 0 0 -2.731-1.112 3.782 3.782 0 0 0 -2.78 1.136 3.914 3.914 0 0 0 -.121 5.439l.121.121.048.049q.557.531 1.74.1a6.059 6.059 0 0 0 2.345-1.571 6.443 6.443 0 0 0 1.572-2.349c.048-.145.088-.274.121-.387a2.123 2.123 0 0 0 .072-.677 14.474 14.474 0 0 1 1.4-.821 40.46 40.46 0 0 1 15.061-4.448 58.507 58.507 0 0 1 6.166-.315 57.825 57.825 0 0 1 6.14.315 40.46 40.46 0 0 1 15.06 4.448q.749.411 1.426.821a2.229 2.229 0 0 0 .072.7 1.833 1.833 0 0 0 .1.362 6.452 6.452 0 0 0 1.571 2.345 6.259 6.259 0 0 0 2.37 1.571q1.159.435 1.716-.1a.279.279 0 0 0 .072-.049l.121-.121a3.918 3.918 0 0 0 -2.9-6.575 3.794 3.794 0 0 0 -2.755 1.112q-.848-.531-1.789-1.039a40.46 40.46 0 0 0 -15.064-4.442z" fill="#89d9c0"/><path d="m15.151 35.118q0 2.466 4.931 4.207a35.99 35.99 0 0 0 11.918 1.74 35.91 35.91 0 0 0 11.894-1.74q4.955-1.742 4.955-4.207 0-1.668-4.955-2.876a51.6 51.6 0 0 0 -11.894-1.185 51.717 51.717 0 0 0 -11.918 1.185q-4.93 1.209-4.931 2.876z" fill="#474f4c"/><path d="m32 8.454a10.219 10.219 0 0 0 -7.494 3.119 10.2 10.2 0 0 0 -3.094 7.227v16.39q.024 1.45 3.094 2.49a23.33 23.33 0 0 0 7.494 1.065 23.107 23.107 0 0 0 7.47-1.064q3.095-1.039 3.118-2.49v-16.391a10.158 10.158 0 0 0 -3.118-7.228 10.14 10.14 0 0 0 -7.47-3.118z" fill="#6fc4a9"/><path d="m21.412 18.076v.724a10.2 10.2 0 0 1 3.094-7.228 10.534 10.534 0 0 1 14.964 0 10.158 10.158 0 0 1 3.118 7.228v-.725a10.139 10.139 0 0 0 -3.118-7.47 10.536 10.536 0 0 0 -14.964 0 10.178 10.178 0 0 0 -3.094 7.471z" fill="#89d9c0"/><path d="m35.143 27.238a.408.408 0 0 0 -.387 0 .365.365 0 0 0 -.242.266 2.423 2.423 0 0 1 -.653.822 3.016 3.016 0 0 1 -1.861.58 3.1 3.1 0 0 1 -1.91-.58 1.633 1.633 0 0 1 -.58-.8.368.368 0 0 0 -.217-.266.653.653 0 0 0 -.436-.048.365.365 0 0 0 -.266.241.529.529 0 0 0 -.048.387 2.273 2.273 0 0 0 .943 1.233 3.928 3.928 0 0 0 2.514.827 3.794 3.794 0 0 0 2.466-.822 3.109 3.109 0 0 0 .967-1.209.538.538 0 0 0 0-.387.521.521 0 0 0 -.29-.241m2.925-5.246a2.268 2.268 0 0 0 -1.692-.725 2.4 2.4 0 0 0 -1.765.725 2.439 2.439 0 0 0 -.7 1.716 2.3 2.3 0 0 0 .7 1.692 2.4 2.4 0 0 0 1.765.726 2.269 2.269 0 0 0 1.692-.726 2.234 2.234 0 0 0 .749-1.692 2.364 2.364 0 0 0 -.749-1.716m-10.395-.725a2.4 2.4 0 0 0 -2.466 2.441 2.348 2.348 0 0 0 .677 1.692 2.482 2.482 0 0 0 1.789.726 2.318 2.318 0 0 0 1.692-.726 2.264 2.264 0 0 0 .725-1.692 2.4 2.4 0 0 0 -.725-1.716 2.317 2.317 0 0 0 -1.692-.728z" fill="#347e67"/><g fill="#fff"><path d="m47.447 19.019q.024-.411.024-.847t-.024-.87a15.075 15.075 0 0 0 -4.569-10.25 15.265 15.265 0 0 0 -11.168-4.617 15.107 15.107 0 0 0 -11.12 4.617 14.987 14.987 0 0 0 -4.617 10.248q-.026.435-.025.87t.025.847a16.887 16.887 0 0 0 .362 2.731 15.225 15.225 0 0 0 4.255 7.591 15.146 15.146 0 0 0 11.12 4.593 15.306 15.306 0 0 0 11.168-4.593 15.3 15.3 0 0 0 4.231-7.591 18.872 18.872 0 0 0 .338-2.731m-2.417-1.717q.024.435.024.87t-.024.847a13.705 13.705 0 0 1 -.411 2.731 13.407 13.407 0 0 1 -12.909 9.769 12.816 12.816 0 0 1 -9.4-3.893 13.076 13.076 0 0 1 -3.481-5.874 12.522 12.522 0 0 1 -.435-2.731q-.024-.411-.024-.847t.024-.87a12.669 12.669 0 0 1 3.916-8.533 12.772 12.772 0 0 1 9.4-3.916 12.931 12.931 0 0 1 9.452 3.916 12.764 12.764 0 0 1 3.868 8.531z"/><path d="m45.054 18.172q0-.435-.024-.87a12.764 12.764 0 0 0 -3.868-8.533 12.931 12.931 0 0 0 -9.452-3.916 12.772 12.772 0 0 0 -9.4 3.916 12.669 12.669 0 0 0 -3.92 8.531q-.024.435-.024.87t.024.847a12.522 12.522 0 0 0 .435 2.731 13.076 13.076 0 0 0 3.481 5.874 12.816 12.816 0 0 0 9.4 3.893 13.407 13.407 0 0 0 12.913-9.765 13.705 13.705 0 0 0 .411-2.731q.024-.411.024-.847m-1.209 0q0 .387-.024.774v.024a12.047 12.047 0 0 1 -.459 2.78q-9.815 3.651-23.28 0a13.031 13.031 0 0 1 -.483-2.8q-.024-.387-.024-.774c0-.274.008-.539.024-.8a11.489 11.489 0 0 1 3.553-7.736l.024-.024a11.587 11.587 0 0 1 8.534-3.555 11.734 11.734 0 0 1 8.606 3.578 11.58 11.58 0 0 1 3.5 7.736c.021.258.029.525.029.797z" fill-opacity=".2"/><path d="m43.821 18.946q.024-.387.024-.774c0-.274-.008-.539-.024-.8a11.58 11.58 0 0 0 -3.5-7.736 11.734 11.734 0 0 0 -8.611-3.575 11.587 11.587 0 0 0 -8.534 3.554l-.024.024a11.489 11.489 0 0 0 -3.552 7.736c-.016.258-.024.523-.024.8q0 .387.024.774a13.031 13.031 0 0 0 .483 2.8q13.465 3.651 23.28 0a12.047 12.047 0 0 0 .459-2.78z" fill-opacity=".302"/></g><path d="m37.753 28.712a2.351 2.351 0 0 0 -1.063.266c-.29.161-.419.347-.387.556v4.086a4.291 4.291 0 0 1 -7.349 3.046 4.11 4.11 0 0 1 -1.281-3.046v-3.989a.217.217 0 0 1 .024-.1c.016-.209-.121-.395-.411-.556a2.355 2.355 0 0 0 -1.064-.266 2.978 2.978 0 0 0 -1.112.194q-.459.218-.483.532a.791.791 0 0 0 -.024.193v3.992a7.387 7.387 0 0 0 7.4 7.4 7.077 7.077 0 0 0 5.2-2.152l.025-.024a7.11 7.11 0 0 0 2.151-5.221v-4.185q-.024-.315-.508-.532a2.975 2.975 0 0 0 -1.118-.194z" fill="#5a6662"/><path d="m26.053 31.468a2.568 2.568 0 0 0 -.362.024 2.965 2.965 0 0 0 -.75.145 12.209 12.209 0 0 1 -4.158.218v2.3q.073 1.911 3.7 3.554l.29.145a3.625 3.625 0 0 0 1.281.218 3.168 3.168 0 0 0 2.321-.967 3.242 3.242 0 0 0 0-4.666 3.168 3.168 0 0 0 -2.321-.967m11.894 0a3.3 3.3 0 1 0 0 6.6 3.554 3.554 0 0 0 1.252-.222l.29-.145q3.626-1.644 3.723-3.554v-2.3a12.331 12.331 0 0 1 -4.182-.218 4.217 4.217 0 0 0 -1.088-.169z" fill="#7dcab1"/></svg>