<svg height="228" viewBox="0 0 320 228" width="320" xmlns="http://www.w3.org/2000/svg"><path d="m262 203v-3.05a1.8 1.8 0 0 1 2.05-1.95h15.9a1.8 1.8 0 0 1 2.05 1.95v3.05zm32 0v-3.05a1.8 1.8 0 0 1 2.05-1.95h15.9a1.8 1.8 0 0 1 2.05 1.95v3.05zm-166 23v-19.1a1.729 1.729 0 0 1 1.95-1.9h188.05v21zm6-23v-3.05a1.8 1.8 0 0 1 2.05-1.95h15.9a1.8 1.8 0 0 1 2.05 1.95v3.05zm32 0v-3.05a1.8 1.8 0 0 1 2.05-1.95h15.9a1.8 1.8 0 0 1 2.05 1.95v3.05zm32 0v-3.05a1.8 1.8 0 0 1 2.05-1.95h15.9a1.8 1.8 0 0 1 2.05 1.95v3.05zm32 0v-3.05a1.8 1.8 0 0 1 2.05-1.95h15.9a1.8 1.8 0 0 1 2.05 1.95v3.05z" fill="#e86a17"/><path d="m262 199.95v-1.9a1.812 1.812 0 0 1 2.05-2.05h15.9a1.812 1.812 0 0 1 2.05 2.05v1.9a1.8 1.8 0 0 0 -2.05-1.95h-15.9a1.8 1.8 0 0 0 -2.05 1.95m20 3.05h36a1.752 1.752 0 0 1 2 1.9v2a1.752 1.752 0 0 0 -2-1.9h-188.05a1.729 1.729 0 0 0 -1.95 1.9v-1.9a1.746 1.746 0 0 1 1.95-2zm12-3.05v-1.9a1.812 1.812 0 0 1 2.05-2.05h15.9a1.812 1.812 0 0 1 2.05 2.05v1.9a1.8 1.8 0 0 0 -2.05-1.95h-15.9a1.8 1.8 0 0 0 -2.05 1.95m-160 0v-1.9a1.812 1.812 0 0 1 2.05-2.05h15.9a1.812 1.812 0 0 1 2.05 2.05v1.9a1.8 1.8 0 0 0 -2.05-1.95h-15.9a1.8 1.8 0 0 0 -2.05 1.95m32 0v-1.9a1.812 1.812 0 0 1 2.05-2.05h15.9a1.812 1.812 0 0 1 2.05 2.05v1.9a1.8 1.8 0 0 0 -2.05-1.95h-15.9a1.8 1.8 0 0 0 -2.05 1.95m32 0v-1.9a1.812 1.812 0 0 1 2.05-2.05h15.9a1.812 1.812 0 0 1 2.05 2.05v1.9a1.8 1.8 0 0 0 -2.05-1.95h-15.9a1.8 1.8 0 0 0 -2.05 1.95m32 0v-1.9a1.812 1.812 0 0 1 2.05-2.05h15.9a1.812 1.812 0 0 1 2.05 2.05v1.9a1.8 1.8 0 0 0 -2.05-1.95h-15.9a1.8 1.8 0 0 0 -2.05 1.95" fill="#fa883e"/><path d="m320 206.9v21.1h-192v-2h190v-21a1.752 1.752 0 0 1 2 1.9" fill="#d26219"/><path d="m122 199.95a1.8 1.8 0 0 0 -2.05-1.95h-15.9a1.8 1.8 0 0 0 -2.05 1.95v-1.9a1.812 1.812 0 0 1 2.05-2.05h15.9a1.812 1.812 0 0 1 2.05 2.05zm-20 3.05h24a1.752 1.752 0 0 1 2 1.9v2a1.752 1.752 0 0 0 -2-1.9h-124.05a1.729 1.729 0 0 0 -1.95 1.9v-1.9a1.746 1.746 0 0 1 1.95-2zm-96-3.05v-1.9a1.812 1.812 0 0 1 2.05-2.05h15.9a1.812 1.812 0 0 1 2.05 2.05v1.9a1.8 1.8 0 0 0 -2.05-1.95h-15.9a1.8 1.8 0 0 0 -2.05 1.95m32 0v-1.9a1.812 1.812 0 0 1 2.05-2.05h15.9a1.812 1.812 0 0 1 2.05 2.05v1.9a1.8 1.8 0 0 0 -2.05-1.95h-15.9a1.8 1.8 0 0 0 -2.05 1.95m32 0v-1.9a1.812 1.812 0 0 1 2.05-2.05h15.9a1.812 1.812 0 0 1 2.05 2.05v1.9a1.8 1.8 0 0 0 -2.05-1.95h-15.9a1.8 1.8 0 0 0 -2.05 1.95" fill="#fa883e"/><path d="m70 199.95a1.8 1.8 0 0 1 2.05-1.95h15.9a1.8 1.8 0 0 1 2.05 1.95v3.05h-20zm52 0v3.05h-20v-3.05a1.8 1.8 0 0 1 2.05-1.95h15.9a1.8 1.8 0 0 1 2.05 1.95m-122 26.05v-19.1a1.729 1.729 0 0 1 1.95-1.9h124.05v21zm6-23v-3.05a1.8 1.8 0 0 1 2.05-1.95h15.9a1.8 1.8 0 0 1 2.05 1.95v3.05zm32 0v-3.05a1.8 1.8 0 0 1 2.05-1.95h15.9a1.8 1.8 0 0 1 2.05 1.95v3.05z" fill="#e86a17"/><path d="m128 206.9v21.1h-128v-2h126v-21a1.752 1.752 0 0 1 2 1.9" fill="#d26219"/><path d="m320 149.9a1.752 1.752 0 0 0 -2-1.9h-124.05a1.729 1.729 0 0 0 -1.95 1.9v-1.9a1.746 1.746 0 0 1 1.95-2h124.05a1.752 1.752 0 0 1 2 1.9zm-90-6.95v-1.9a1.812 1.812 0 0 1 2.05-2.05h15.9a1.812 1.812 0 0 1 2.05 2.05v1.9a1.8 1.8 0 0 0 -2.05-1.95h-15.9a1.8 1.8 0 0 0 -2.05 1.95m32 0v-1.9a1.812 1.812 0 0 1 2.05-2.05h15.9a1.812 1.812 0 0 1 2.05 2.05v1.9a1.8 1.8 0 0 0 -2.05-1.95h-15.9a1.8 1.8 0 0 0 -2.05 1.95m32 0v-1.9a1.812 1.812 0 0 1 2.05-2.05h15.9a1.812 1.812 0 0 1 2.05 2.05v1.9a1.8 1.8 0 0 0 -2.05-1.95h-15.9a1.8 1.8 0 0 0 -2.05 1.95m-96 0v-1.9a1.812 1.812 0 0 1 2.05-2.05h15.9a1.812 1.812 0 0 1 2.05 2.05v1.9a1.8 1.8 0 0 0 -2.05-1.95h-15.9a1.8 1.8 0 0 0 -2.05 1.95" fill="#8cde67"/><path d="m198 142.95a1.8 1.8 0 0 1 2.05-1.95h15.9a1.8 1.8 0 0 1 2.05 1.95v3.05h-20zm32 0a1.8 1.8 0 0 1 2.05-1.95h15.9a1.8 1.8 0 0 1 2.05 1.95v3.05h-20zm32 3.05v-3.05a1.8 1.8 0 0 1 2.05-1.95h15.9a1.8 1.8 0 0 1 2.05 1.95v3.05zm32 0v-3.05a1.8 1.8 0 0 1 2.05-1.95h15.9a1.8 1.8 0 0 1 2.05 1.95v3.05zm-102 55v-51.1a1.729 1.729 0 0 1 1.95-1.9h124.05v53z" fill="#73cd4b"/><path d="m320 149.9v53.1h-128v-2h126v-53a1.752 1.752 0 0 1 2 1.9" fill="#65b641"/><path d="m134 178v-3.05a1.8 1.8 0 0 1 2.05-1.95h15.9a1.8 1.8 0 0 1 2.05 1.95v3.05zm32 0v-3.05a1.8 1.8 0 0 1 2.05-1.95h15.9a1.8 1.8 0 0 1 2.05 1.95v3.05zm-166 23v-19.1a1.729 1.729 0 0 1 1.95-1.9h188.05v21zm6-23v-3.05a1.8 1.8 0 0 1 2.05-1.95h15.9a1.8 1.8 0 0 1 2.05 1.95v3.05zm32 0v-3.05a1.8 1.8 0 0 1 2.05-1.95h15.9a1.8 1.8 0 0 1 2.05 1.95v3.05zm32 0v-3.05a1.8 1.8 0 0 1 2.05-1.95h15.9a1.8 1.8 0 0 1 2.05 1.95v3.05zm32 0v-3.05a1.8 1.8 0 0 1 2.05-1.95h15.9a1.8 1.8 0 0 1 2.05 1.95v3.05z" fill="#e86a17"/><path d="m134 174.95v-1.9a1.812 1.812 0 0 1 2.05-2.05h15.9a1.812 1.812 0 0 1 2.05 2.05v1.9a1.8 1.8 0 0 0 -2.05-1.95h-15.9a1.8 1.8 0 0 0 -2.05 1.95m20 3.05h36a1.752 1.752 0 0 1 2 1.9v2a1.752 1.752 0 0 0 -2-1.9h-188.05a1.729 1.729 0 0 0 -1.95 1.9v-1.9a1.746 1.746 0 0 1 1.95-2zm12-3.05v-1.9a1.812 1.812 0 0 1 2.05-2.05h15.9a1.812 1.812 0 0 1 2.05 2.05v1.9a1.8 1.8 0 0 0 -2.05-1.95h-15.9a1.8 1.8 0 0 0 -2.05 1.95m-160 0v-1.9a1.812 1.812 0 0 1 2.05-2.05h15.9a1.812 1.812 0 0 1 2.05 2.05v1.9a1.8 1.8 0 0 0 -2.05-1.95h-15.9a1.8 1.8 0 0 0 -2.05 1.95m32 0v-1.9a1.812 1.812 0 0 1 2.05-2.05h15.9a1.812 1.812 0 0 1 2.05 2.05v1.9a1.8 1.8 0 0 0 -2.05-1.95h-15.9a1.8 1.8 0 0 0 -2.05 1.95m32 0v-1.9a1.812 1.812 0 0 1 2.05-2.05h15.9a1.812 1.812 0 0 1 2.05 2.05v1.9a1.8 1.8 0 0 0 -2.05-1.95h-15.9a1.8 1.8 0 0 0 -2.05 1.95m32 0v-1.9a1.812 1.812 0 0 1 2.05-2.05h15.9a1.812 1.812 0 0 1 2.05 2.05v1.9a1.8 1.8 0 0 0 -2.05-1.95h-15.9a1.8 1.8 0 0 0 -2.05 1.95" fill="#fa883e"/><path d="m192 181.9v21.1h-192v-2h190v-21a1.752 1.752 0 0 1 2 1.9" fill="#d26219"/><path d="m126 123h-60.15a1.715 1.715 0 0 0 -1.85 1.9v-1.9a1.746 1.746 0 0 1 1.95-2h60.05a1.752 1.752 0 0 1 2 1.9v.1zm-62 16 10.65-6.35 10.7 6.35 10.7-6.35 10.6 6.35 10.7-6.35 8.65 5.15v3.8l-8.65-6.5-10.7 8-10.6-8-10.7 8-10.7-8-10.65 8zm6-21.05v-1.9a1.812 1.812 0 0 1 2.05-2.05h15.9a1.812 1.812 0 0 1 2.05 2.05v1.9a1.8 1.8 0 0 0 -2.05-1.95h-15.9a1.8 1.8 0 0 0 -2.05 1.95m32 0v-1.9a1.812 1.812 0 0 1 2.05-2.05h15.9a1.812 1.812 0 0 1 2.05 2.05v1.9a1.8 1.8 0 0 0 -2.05-1.95h-15.9a1.8 1.8 0 0 0 -2.05 1.95" fill="#8bc92a"/><path d="m64 124.9a1.715 1.715 0 0 1 1.85-1.9h60.15v14.8l-8.65-5.15-10.7 6.35-10.6-6.35-10.7 6.35-10.7-6.35-10.65 6.35zm58-3.9h-20v-3.05a1.8 1.8 0 0 1 2.05-1.95h15.9a1.8 1.8 0 0 1 2.05 1.95zm-32 0h-20v-3.05a1.8 1.8 0 0 1 2.05-1.95h15.9a1.8 1.8 0 0 1 2.05 1.95zm38 22.1-2-1.5v-3.8l2 1.2z" fill="#80be1f"/><path d="m126 123h2v16l-2-1.2z" fill="#71ad14"/><path d="m128 149.05-2-1.95v-5.5l2 1.5z" fill="#98693d"/><path d="m128 149.05v28.95h-64v-2h62v-28.9l-8.65-8.55-10.7 10.5-10.6-10.5-10.7 10.5-10.7-10.5-10.65 10.5v-5.95l10.65-8 10.7 8 10.7-8 10.6 8 10.7-8 8.65 6.5v5.5z" fill="#aa7848"/><path d="m64 149.05 10.65-10.5 10.7 10.5 10.7-10.5 10.6 10.5 10.7-10.5 8.65 8.55v28.9h-62z" fill="#b68150"/><path d="m190 123h-60.15a1.715 1.715 0 0 0 -1.85 1.9v-1.9a1.746 1.746 0 0 1 1.95-2h60.05a1.752 1.752 0 0 1 2 1.9v.1zm-62 16 10.65-6.35 10.7 6.35 10.7-6.35 10.6 6.35 10.7-6.35 8.65 5.15v3.8l-8.65-6.5-10.7 8-10.6-8-10.7 8-10.7-8-10.65 8zm6-21.05v-1.9a1.812 1.812 0 0 1 2.05-2.05h15.9a1.812 1.812 0 0 1 2.05 2.05v1.9a1.8 1.8 0 0 0 -2.05-1.95h-15.9a1.8 1.8 0 0 0 -2.05 1.95m32 0v-1.9a1.812 1.812 0 0 1 2.05-2.05h15.9a1.812 1.812 0 0 1 2.05 2.05v1.9a1.8 1.8 0 0 0 -2.05-1.95h-15.9a1.8 1.8 0 0 0 -2.05 1.95" fill="#8bc92a"/><path d="m128 124.9a1.715 1.715 0 0 1 1.85-1.9h60.15v14.8l-8.65-5.15-10.7 6.35-10.6-6.35-10.7 6.35-10.7-6.35-10.65 6.35zm58-3.9h-20v-3.05a1.8 1.8 0 0 1 2.05-1.95h15.9a1.8 1.8 0 0 1 2.05 1.95zm-32 0h-20v-3.05a1.8 1.8 0 0 1 2.05-1.95h15.9a1.8 1.8 0 0 1 2.05 1.95zm38 22.1-2-1.5v-3.8l2 1.2z" fill="#80be1f"/><path d="m190 123h2v16l-2-1.2z" fill="#71ad14"/><path d="m192 149.05-2-1.95v-5.5l2 1.5z" fill="#98693d"/><path d="m192 149.05v28.95h-64v-2h62v-28.9l-8.65-8.55-10.7 10.5-10.6-10.5-10.7 10.5-10.7-10.5-10.65 10.5v-5.95l10.65-8 10.7 8 10.7-8 10.6 8 10.7-8 8.65 6.5v5.5z" fill="#aa7848"/><path d="m128 149.05 10.65-10.5 10.7 10.5 10.7-10.5 10.6 10.5 10.7-10.5 8.65 8.55v28.9h-62z" fill="#b68150"/><path d="m198 85.95v-1.9a1.812 1.812 0 0 1 2.05-2.05h15.9a1.812 1.812 0 0 1 2.05 2.05v1.9a1.8 1.8 0 0 0 -2.05-1.95h-15.9a1.8 1.8 0 0 0 -2.05 1.95m20 3.05h6.5l31.5 32v2l-2-2-29.5-30h-30.5a1.752 1.752 0 0 0 -2 1.9v-1.9a1.768 1.768 0 0 1 2-2z" fill="#ffe272"/><path d="m218 89h-20v-3.05a1.8 1.8 0 0 1 2.05-1.95h15.9a1.8 1.8 0 0 1 2.05 1.95zm-26 55v-51.1a1.752 1.752 0 0 1 2-1.9h30.5l29.5 30v23z" fill="#fc0"/><path d="m192 144h62v-23l2 2v23h-64z" fill="#e5b700"/><path d="m128 67.9a1.729 1.729 0 0 1 1.95-1.9h60.05v53h-62z" fill="#6fc4a9"/><path d="m186 64h4a1.752 1.752 0 0 1 2 1.9v2a1.752 1.752 0 0 0 -2-1.9h-60.05a1.729 1.729 0 0 0 -1.95 1.9v-1.9a1.746 1.746 0 0 1 1.95-2z" fill="#84d7bc"/><path d="m190 66a1.752 1.752 0 0 1 2 1.9v53.1h-64v-2h62z" fill="#62ad95"/><path d="m134 7v-3.05a1.8 1.8 0 0 1 2.05-1.95h15.9a1.8 1.8 0 0 1 2.05 1.95v3.05zm-6 3.9a1.729 1.729 0 0 1 1.95-1.9h60.05v53h-62zm58-3.9h-20v-3.05a1.8 1.8 0 0 1 2.05-1.95h15.9a1.8 1.8 0 0 1 2.05 1.95z" fill="#6fc4a9"/><path d="m186 7h4a1.752 1.752 0 0 1 2 1.9v2a1.752 1.752 0 0 0 -2-1.9h-60.05a1.729 1.729 0 0 0 -1.95 1.9v-1.9a1.746 1.746 0 0 1 1.95-2zm-32-3.05a1.8 1.8 0 0 0 -2.05-1.95h-15.9a1.8 1.8 0 0 0 -2.05 1.95v-1.9a1.812 1.812 0 0 1 2.05-2.05h15.9a1.812 1.812 0 0 1 2.05 2.05zm32 0a1.8 1.8 0 0 0 -2.05-1.95h-15.9a1.8 1.8 0 0 0 -2.05 1.95v-1.9a1.812 1.812 0 0 1 2.05-2.05h15.9a1.812 1.812 0 0 1 2.05 2.05z" fill="#84d7bc"/><path d="m190 9a1.752 1.752 0 0 1 2 1.9v53.1h-64v-2h62z" fill="#62ad95"/><path d="m173.5 28.45a5.014 5.014 0 0 1 1.5 3.45v.1a4.532 4.532 0 0 1 -1.5 3.45 4.569 4.569 0 0 1 -3.45 1.55 4.89 4.89 0 0 1 -3.65-1.55 4.688 4.688 0 0 1 -1.4-3.45v-.1a5.215 5.215 0 0 1 1.4-3.45 5.055 5.055 0 0 1 3.65-1.45 4.712 4.712 0 0 1 3.45 1.45m-20 0a5.014 5.014 0 0 1 1.5 3.45v.1a4.532 4.532 0 0 1 -1.5 3.45 4.569 4.569 0 0 1 -3.45 1.55 4.89 4.89 0 0 1 -3.65-1.55 4.688 4.688 0 0 1 -1.4-3.45v-.1a5.215 5.215 0 0 1 1.4-3.45 5.055 5.055 0 0 1 3.65-1.45 4.712 4.712 0 0 1 3.45 1.45m11.45 11.3a.774.774 0 0 1 .5-.6.783.783 0 0 1 .85 0l.65.5v.9a7.6 7.6 0 0 1 -2.05 2.65 8.376 8.376 0 0 1 -5.4 1.8 8.25 8.25 0 0 1 -5.4-1.8 5.324 5.324 0 0 1 -2.05-2.75 1.244 1.244 0 0 1 .1-.85l.6-.55.9.15.5.6a3.82 3.82 0 0 0 1.25 1.75 7.037 7.037 0 0 0 8.15 0z" fill="#347e67"/></svg>